<?xml version="1.0" encoding="UTF-8"?>
<svg width="145px" height="327px" viewBox="0 0 145 327" version="1.1" xmlns="http://www.w3.org/2000/svg" xmlns:xlink="http://www.w3.org/1999/xlink">
    <!-- Generator: Sketch 52.3 (67297) - http://www.bohemiancoding.com/sketch -->
    <title>Group 41</title>
    <desc>Created with Sketch.</desc>
    <defs>
        <polygon id="path-1" points="0 0.375388291 56.9512536 0.375388291 56.9512536 69.3420063 0 69.3420063"></polygon>
        <polygon id="path-3" points="0.28455 0.0055 26.6784659 0.0055 26.6784659 28.5741 0.28455 28.5741"></polygon>
        <polygon id="path-5" points="0 0.0221935844 126.977806 0.0221935844 126.977806 126.999449 0 126.999449"></polygon>
    </defs>
    <g id="web" stroke="none" stroke-width="1" fill="none" fill-rule="evenodd">
        <g id="Group-41">
            <g id="tree-copy" transform="translate(0.000000, 226.000000)">
                <g id="Group-3">
                    <mask id="mask-2" fill="white">
                        <use xlink:href="#path-1"></use>
                    </mask>
                    <g id="Clip-2"></g>
                    <path d="M26.077778,0.44359 C17.8113878,1.13589 12.7043268,6.48039 10.9734732,13.50909 C9.97805854,18.26349 12.1975829,22.74839 10.7440829,27.54199 C7.39776585,37.41129 -3.58377073,38.82109 1.17920488,51.69759 C6.87225366,67.44759 33.333461,74.32859 46.4643146,65.36229 C51.7131805,61.72719 57.5292659,56.56749 56.9050463,49.00049 C56.3204488,41.91859 52.4520951,37.07949 47.6870341,32.56239 C41.8626073,26.41149 48.9146195,19.42829 48.0415463,11.63519 C46.9363024,3.86029 33.8853878,-0.21021 26.077778,0.44359" id="Fill-1" fill="#83AC4D" mask="url(#mask-2)"></path>
                </g>
                <polygon id="Fill-4" fill="#976039" points="26.5153066 98 29.4092923 98 29.3197165 56.1229449 43 40.6488692 42.4329166 40.0355482 29.108869 53.0521293 28.9269613 28 28.0229353 28 26.5153066 52.131446 15.5484792 44.5821237 15 45.5 26.2741412 54.6492902"></polygon>
                <path d="M112,97.0011156 C112,99.2099098 88.7184412,101 59.999142,101 C31.2798429,101 8,99.2099098 8,97.0011156 C8,94.7923213 31.2798429,93 59.999142,93 C88.7184412,93 112,94.7923213 112,97.0011156" id="Fill-6" fill="#000000" opacity="0.103459821"></path>
            </g>
            <g id="Group" transform="translate(83.000000, 242.500000) scale(-1, 1) translate(-83.000000, -242.500000) translate(21.000000, 161.000000)">
                <path d="M47.9095055,139.140848 C45.5127298,139.053973 48.6964987,157.414954 49.3937425,159.107734 C48.2389324,159.086144 46.9684338,159.697868 47.0005983,160.923373 C47.9364822,161.144416 50.2538841,160.862715 51.0611098,160.392355 C52.7736112,159.37093 51.6893556,158.081168 52.4602665,156.348292 C53.7250585,153.501461 56.7277723,151.144523 59.6386615,150.379611 C61.2282114,149.962199 62.4696582,150.474711 62.947457,150.219226 C65.5403324,148.832822 66.8222443,145.949493 65.4287942,142.807595 C63.1326623,137.619762 52.1998376,139.293008 47.9095055,139.140848" id="Fill-1" fill="#160403"></path>
                <path d="M76.9970917,142.247605 C77.0276245,143.675616 76.8104475,145.348224 76.6878238,146.492071 C76.4942852,148.431371 76.1377408,150.357311 75.758543,152.265265 C75.1976257,155.08429 74.7992218,158.480891 73.5587033,161.088206 C74.6046982,161.145244 75.7028945,161.811204 75.5935673,162.969954 C74.7484979,163.118459 72.6717744,162.694012 71.9764142,162.190945 C70.5009901,161.10876 71.5671761,159.958746 70.9870527,158.266098 C70.0961841,155.675226 67.1458282,152.628049 64.8282894,151.262728 C63.5006046,150.486803 61.7144352,150.025359 59.7756018,149.969862 C57.9830303,149.91899 59.828788,149.637396 60.0508895,147.971982 C60.100136,147.565007 59.7977627,147.243846 59.8332201,146.869243 C59.9174316,146.007503 59.7736319,145.382652 60.1986289,144.538384 C62.1000351,140.802123 66.3721662,142.332905 69.4648444,141.421835 C71.2667726,140.888451 75.6930452,136.83925 76.7887791,140.549305 C76.9237144,141.022054 76.9867499,141.617101 76.9970917,142.247605" id="Fill-3" fill="#160403"></path>
                <path d="M81.8623493,133 C81.8623493,133.006672 81.8578788,133.014884 81.8578788,133.014884 C83.4364411,133.770893 84.6206111,136.818024 83.6465518,138.442442 C83.5914164,138.538418 83.4861127,138.60668 83.3867695,138.688286 C83.2635841,139.390917 82.9069422,140.065833 82.357078,140.02734 C82.1285888,140.008863 81.876754,139.949327 81.6423042,139.859509 C81.2633102,140.627836 80.4541605,141.432089 79.5411971,140.730998 C79.3658565,140.596015 79.1646867,140.373267 79.069814,140.141793 C78.5437922,140.490799 77.9283615,140.627836 77.6199011,140.200816 C77.4539981,139.960618 77.3044867,139.652158 77.1976928,139.324709 C77.1331198,139.285189 77.0650697,139.244642 77,139.195884 C77.0119212,138.998798 77.7063296,133.823244 81.8623493,133" id="Fill-5" fill="#160403"></path>
                <path d="M43.4766861,136 L43.4766861,136.006157 C41.9571077,136.4438 40.4951974,138.856043 41.1684845,140.341375 C41.2069299,140.431366 41.2961429,140.500044 41.367119,140.584352 C41.3888061,141.188715 41.6308149,141.802077 42.1291262,141.837127 C42.3346611,141.852283 42.5727267,141.833811 42.7940341,141.785974 C43.0394931,142.482223 44.1514518,143.371717 44.7029952,142.836031 C44.8414972,142.703886 44.9676769,142.53527 45.083013,142.346289 C45.5103482,142.714306 46.051048,142.910393 46.3876916,142.585476 C46.5710465,142.407862 46.7415862,142.165358 46.8741735,141.905804 C46.9456425,141.878807 46.9274056,140.915899 46.9954243,140.889849 C47.0141541,140.71555 47.1265329,137.215831 43.4766861,136" id="Fill-7" fill="#160403"></path>
                <path d="M50,118 C49.4523924,118.174943 40.7513001,125.715097 41.0054599,139.270685 C41.0292268,140.516402 43.0950025,144.521999 45.7020805,142.38196 C46.2753951,141.913434 45.8854247,141.605272 45.8854247,141.605272 C45.8854247,141.605272 45.4576214,140.774795 45.452286,140.314312 C45.4411302,139.854332 44.4943365,131.499284 50,118" id="Fill-9" fill="#160403"></path>
                <path d="M42,140.386246 C42.6884169,141.974689 44.6573,144.05563 46.8971841,142.380334 C47.527035,141.912436 47.0984382,141.604688 47.0984382,141.604688 C47.0984382,141.604688 46.6288452,140.774822 46.6235211,140.314957 C46.610743,139.86212 45.1396711,132.258278 51,119 C48.83146,121.556871 42.6532773,130.143199 44.1898367,140.2763 C44.2846072,140.943506 43.2804662,141.353168 42,140.386246" id="Fill-11" fill="#160403"></path>
                <path d="M73,118 C73.5864229,118.299498 79.6968246,122.859144 83.9512656,135.481503 C84.4002294,136.805255 81.6839726,140.740651 78.4079485,139.877511 C76.7234199,139.435587 73,118 73,118" id="Fill-13" fill="#160403"></path>
                <path d="M50.8850905,117 C50.4904401,118.123193 43.0453724,131.060622 45.4927077,140.888438 C46.0346608,143.065467 49.0309876,149.814107 59.8273162,149.998228 C62.860343,150.053615 66.2176367,148.801686 68.8112692,147.453455 C74.6214285,144.433158 78.496041,142.992617 77.9485578,135.64371 C77.5875909,130.694874 75.7556086,125.903215 74.253926,121.281706 C74.0075837,120.521268 73.3449731,118.505907 72.4264683,117.231524 C58.8374223,124.57644 50.8850905,117 50.8850905,117" id="Fill-15" fill="#160403"></path>
                <path d="M71,126 C69.0069501,127.801912 60.6626529,132.749445 56.7328538,130.583481 C56.2123269,130.296682 53.5999677,128.668105 52,127.035182 C52.6254512,129.09589 53.1674748,132.28062 57.7344971,134.670616 C59.110285,135.390512 60.9569528,135.18531 66.9985453,131.424084 C68.6241043,130.281714 71,126 71,126" id="Fill-17" fill="#FEFEFE"></path>
                <path d="M80.154232,137.567028 C80.4588604,138.089444 81.0164941,138.102594 81.3804127,137.80074 C81.6998636,137.65071 81.9564467,137.369778 81.9963142,136.936424 C82.0392484,136.482747 81.6998636,136.132478 81.3553677,136.035646 C80.5840852,135.815682 79.6201099,136.648916 80.154232,137.567028" id="Fill-19" fill="#FEFEFE"></path>
                <path d="M79.0173611,139.530435 C78.9465702,139.775074 79.0997096,140.016115 79.341458,139.999155 C79.5644251,139.980652 79.782095,139.815675 79.9063402,139.621403 C79.9227136,139.591595 79.9381238,139.564355 79.9463105,139.530435 C79.9785757,139.473387 80.0026543,139.40349 79.9997648,139.336163 C79.9877256,139.063771 79.7291222,138.943507 79.505192,139.025225 C79.2952273,139.097691 79.0857441,139.304298 79.0173611,139.530435" id="Fill-21" fill="#FEFEFE"></path>
                <path d="M80.1161328,139.813795 L80.1185804,139.819162 C80.1265351,139.834726 80.1363255,139.846533 80.1540706,139.858877 C80.1871133,139.922206 80.2648246,139.972118 80.3511026,139.970508 C80.6044294,140.089652 80.9868672,139.825602 80.9868672,139.575505 C80.9868672,139.523447 81.0137908,139.491782 80.9905386,139.4467 C80.9954338,139.427916 80.9599436,139.253493 80.9183343,139.220218 C80.8914107,139.163866 80.8553086,139.083363 80.7794329,139.077996 C80.6166674,138.994272 80.4539019,138.956167 80.2819578,139.076386 C80.0714641,139.226658 79.8634179,139.635614 80.1161328,139.813795" id="Fill-23" fill="#FEFEFE"></path>
                <path d="M82.0301445,138.792964 C82.0925357,138.953874 82.2835402,139.014789 82.454295,138.996974 C82.4909635,139.006169 82.5363887,138.992952 82.5894759,138.976861 C82.6069892,138.963068 82.6255971,138.953874 82.6502252,138.938357 C82.6502252,138.938357 82.6529617,138.938357 82.6562454,138.933185 L82.6617183,138.927438 C82.6754006,138.921117 82.6857991,138.91537 82.6945558,138.901003 C82.7142583,138.88951 82.7323189,138.876292 82.7531159,138.863649 C82.7930682,138.837789 82.8330204,138.805032 82.8696889,138.774574 C82.9452151,138.696993 82.9829781,138.594125 82.9829781,138.478615 C83.0130791,138.367127 83.0059644,138.248169 82.9397422,138.151623 C82.8488918,138.016574 82.7301297,137.982093 82.610273,138.007954 C82.2742363,137.997609 81.8883961,138.459076 82.0301445,138.792964" id="Fill-25" fill="#FEFEFE"></path>
                <path d="M44.0128852,139.124011 C44.0933049,139.774072 44.5959283,140.074566 45.0337133,139.984296 C45.3835391,140.003077 45.714768,139.872217 45.9087806,139.487512 C46.1188772,139.087055 45.9369275,138.583001 45.6584741,138.306134 C45.0482893,137.71181 43.863606,137.982013 44.0128852,139.124011" id="Fill-27" fill="#FEFEFE"></path>
                <path d="M42.0912331,140.282265 C41.9405555,140.497686 41.9790909,140.838572 42.187788,140.947466 C42.3813309,141.055177 42.6199038,140.984159 42.7909316,140.852775 C42.8177765,140.828511 42.8355287,140.801879 42.8567448,140.776431 C42.9069707,140.735596 42.9528668,140.677006 42.9745158,140.598295 C43.0671739,140.313039 42.8926823,140.044355 42.6844181,140.004111 C42.4796177,139.978071 42.2332511,140.076313 42.0912331,140.282265" id="Fill-29" fill="#FEFEFE"></path>
                <path d="M44.0290025,140.640728 L44.0290025,140.64736 C44.0290025,140.666149 44.0290025,140.678859 44.0409032,140.696543 C44.0324027,140.779435 44.0788719,140.857907 44.1587763,140.878354 C44.316885,141.100507 44.7685431,140.993299 44.8767823,140.758436 C44.9124843,140.709806 44.9141844,140.654544 44.9141844,140.606466 C44.9238183,140.598729 44.9396858,140.581598 44.9493197,140.573861 C45.0071228,140.512521 45.0122231,140.449522 44.9810547,140.395366 C44.9906886,140.325736 44.9629204,140.273237 44.8954834,140.235106 C44.8609148,140.073189 44.7152735,139.96156 44.506162,140.012401 C44.2630487,140.073189 43.8935617,140.376024 44.0290025,140.640728" id="Fill-31" fill="#FEFEFE"></path>
                <path d="M45,140.544024 C45,140.741767 45.1317794,140.889456 45.2748682,140.962992 C45.304371,140.978441 45.342233,140.996979 45.3953381,140.996979 C45.4174653,141.003776 45.4391007,140.996979 45.4607361,140.996979 L45.4720455,140.996979 L45.4779461,140.989564 C45.4882721,140.989564 45.4995815,140.989564 45.5133495,140.982148 C45.5325264,140.978441 45.5546535,140.975351 45.5772724,140.968553 C45.6171012,140.968553 45.6647975,140.962992 45.7056098,140.943218 C45.7955934,140.907377 45.8673837,140.817156 45.911638,140.70778 C45.9770359,140.607672 46.0158814,140.486555 45.9937542,140.354932 C45.9716271,140.174492 45.8865605,140.092923 45.7852674,140.0577 C45.4995815,139.876023 45.010326,140.146684 45,140.544024" id="Fill-33" fill="#FEFEFE"></path>
                <g id="Group-37" transform="translate(85.000000, 0.000000)">
                    <mask id="mask-4" fill="white">
                        <use xlink:href="#path-3"></use>
                    </mask>
                    <g id="Clip-36"></g>
                    <path d="M0.28455,16.3256 C0.28455,16.3256 1.77855,-0.1349 12.52105,0.0061 C12.52105,0.0061 25.11955,0.6706 25.61605,9.1006 C25.61605,9.1006 30.76205,22.7711 18.40305,26.1911 L8.66555,28.5741 L0.28455,16.3256 Z" id="Fill-35" fill="#160403" mask="url(#mask-4)"></path>
                </g>
                <path d="M39.3481964,24.6229114 C39.3481964,24.6229114 45.1508459,0.28852623 22.1294425,3.24991674 C22.1294425,3.24991674 14.741581,4.09531706 13.7950934,11.3668551 C13.7950934,11.3668551 7.20628189,27.2193558 31.9629125,32 L39.3481964,24.6229114 Z" id="Fill-38" fill="#160403"></path>
                <path d="M27.5231586,9.25350851 C27.5231586,9.25350851 31.1725386,11.9003942 34,17.8866186 L24.5151008,25 C24.5151008,25 18.6765032,20.9231021 19.0140952,17.4370446 C19.357844,13.9475174 20.6076527,7.66190739 27.5231586,9.25350851" id="Fill-40" fill="#403A39"></path>
                <path d="M90,13.4595604 C90,13.4595604 94.0043585,5.32242714 99.6564716,7.3138327 C105.307602,9.31116948 104.374595,22.2145285 92.3649605,20.9071898 L90,13.4595604 Z" id="Fill-42" fill="#403A39"></path>
                <path d="M12.8107211,105.412857 C-10.4073864,84.3730103 0.634648054,55.2572877 24.4108953,20.3707767 C30.2845554,11.7551981 79.7509619,-6.29610604 100.328561,18.8157256 C111.757234,32.7511629 120.971614,48.5109986 122.310642,56.4774202 C124.175337,67.6386826 127.455676,88.0924223 112.957234,101.1144 C111.318333,102.583199 60.5717569,146.678458 12.8107211,105.412857" id="Fill-44" fill="#160403"></path>
                <path d="M83.7197099,55.7642537 C84.629217,59.5752932 83.2520607,63.2138206 80.6486028,63.8896198 C78.0431984,64.569999 75.1866941,62.0342253 74.28108,58.2343813 C73.3691398,54.4294485 74.7501891,50.7939744 77.353647,50.110033 C79.9634311,49.4311804 82.816529,51.9639009 83.7197099,55.7642537" id="Fill-46" fill="#FEFEFE"></path>
                <path d="M33.5563135,60.4997605 C32.365285,64.2770302 29.1342306,66.6649122 26.3408909,65.8354805 C23.5433221,65.0065612 22.2513233,61.272838 23.4439376,57.4955683 C24.642367,53.723934 27.8718356,51.3340028 30.6662325,52.1649714 C33.4622154,52.9918415 34.7462846,56.7271017 33.5563135,60.4997605" id="Fill-48" fill="#FEFEFE"></path>
                <path d="M29.8685962,58.8819341 C29.3816208,60.466611 27.7010484,61.3507634 26.1239582,60.8683601 C24.5367228,60.3849424 23.6464709,58.7059153 24.132939,57.1212384 C24.6138272,55.5385905 26.2928778,54.646322 27.8760551,55.1327833 C29.4577107,55.6146793 30.352528,57.2906628 29.8685962,58.8819341" id="Fill-50" fill="#160403"></path>
                <path d="M52.5306028,59.0104778 C52.5306028,59.0104778 74.7683931,58.0455239 75,74.6361689 C75,74.6361689 71.6601181,88.9141063 53.2168453,87.9536267 C53.2168453,87.9536267 31.3988739,84.7192165 34.258386,70.730119 C34.258386,70.730119 38.5408422,59.3659348 52.5306028,59.0104778" id="Fill-52" fill="#FEFEFE"></path>
                <path d="M45.7433841,64.768864 C44.7446212,65.347874 43.7509855,66.7794263 44.0560491,67.6714012 C44.3672652,68.573359 47.9665031,72 49.9527492,72 C52.026669,72 57.6905979,69.1643485 58.5345217,68.4176252 C59.3738312,67.6714012 58.9918608,64.2447601 58.0746191,64.0226399 C57.1548139,63.8000205 53.2335929,65.2999559 50.1839822,64.9929808 C47.9665031,64.768864 46.1238163,64.5467438 45.7433841,64.768864" id="Fill-54" fill="#160403"></path>
                <path d="M46.528862,65.1909437 C45.653616,65.6313893 44.7819508,66.7166548 45.048975,67.3922255 C45.3200915,68.0763118 48.6399901,71 50.3848551,71 C52.2038935,71 56.8584015,68.9046901 57.5970662,68.3369837 C58.3347077,67.7716426 57.9766293,64.94683 57.1914145,65.0007621 C56.0578405,65.0783486 53.1773553,65.6645055 50.5009748,65.4317459 C48.5514936,65.261907 46.8644326,65.0234703 46.528862,65.1909437" id="Fill-56" fill="#2A2120"></path>
                <path d="M46.3143715,66.033811 C45.5626769,66.3800141 44.8114922,67.2272745 45.0425083,67.7554561 C45.2725044,68.2895557 48.311411,71 49.8153102,71 C51.3798957,71 55.0231158,69.429264 55.6585374,68.9883729 C56.2934491,68.5425502 55.9655389,66.1260332 55.3076786,66.3740961 C53.975129,66.8756466 52.120371,66.4959083 49.8153102,66.3139297 C48.1354716,66.1822542 46.604034,65.903615 46.3143715,66.033811" id="Fill-58" fill="#403A39"></path>
                <path d="M80.9113572,56.2703761 C81.3080565,57.8795577 80.3365271,59.504094 78.7313026,59.9099722 C77.1204475,60.3107321 75.495772,59.336215 75.0888353,57.7280571 C74.6911122,56.1224583 75.6657128,54.4938274 77.2755441,54.088461 C78.8817924,53.6923076 80.5115867,54.6632418 80.9113572,56.2703761" id="Fill-60" fill="#160403"></path>
                <path d="M77.9703284,55.7615827 C78.1030141,56.2957812 77.7782833,56.8409631 77.2440487,56.9697699 C76.7043271,57.1035691 76.1641066,56.781053 76.0289268,56.2428606 C75.8982364,55.7066651 76.2224684,55.1644786 76.7577007,55.0306794 C77.2949282,54.8953824 77.8346498,55.2198955 77.9703284,55.7615827" id="Fill-62" fill="#FEFEFE"></path>
                <path d="M27.9704928,56.7615827 C28.1026887,57.2957812 27.7784346,57.8409631 27.2431659,57.9697699 C26.7044052,58.1035691 26.164148,57.781053 26.028959,57.2428606 C25.8982597,56.7066651 26.2220149,56.1644786 26.7572836,56.0306794 C27.2950465,55.8953824 27.8343061,56.2198955 27.9704928,56.7615827" id="Fill-64" fill="#FEFEFE"></path>
                <path d="M50.2364667,76.3044648 C50.2364667,76.3044648 50.7795524,75.6010008 51.6376362,76.3326467 C52.4952961,77.0632088 51.6762161,80.216874 50.7795524,79.9881668 C49.749343,79.7253163 49.9367309,76.2280485 50.2364667,76.3044648" id="Fill-66" fill="#160403"></path>
            </g>
            <g id="Group" transform="translate(3.000000, 0.000000)">
                <g id="Group-3">
                    <mask id="mask-6" fill="white">
                        <use xlink:href="#path-5"></use>
                    </mask>
                    <g id="Clip-2"></g>
                    <path d="M126.98111,63.5132993 C126.98111,98.5710892 98.5582561,126.999449 63.4894538,126.999449 C28.4261577,126.999449 -0.00220246835,98.5710892 -0.00220246835,63.5132993 C-0.00220246835,28.4555093 28.4261577,0.0216429673 63.4894538,0.0216429673 C98.5582561,0.0216429673 126.98111,28.4555093 126.98111,63.5132993" id="Fill-1" fill="#FFFFFF" mask="url(#mask-6)"></path>
                </g>
                <path d="M47.1075793,123.592751 C53.3673237,127.481876 57.4987551,132.950959 59.5018733,140 C66.2623973,129.061834 73.273311,123.592751 80.5346146,123.592751 C91.4265699,123.592751 37.7179627,117.759062 47.1075793,123.592751 Z" id="Path-3" fill="#FFFFFF"></path>
            </g>
            <path d="M31.1545,45.408 L30.0745,46.182 C29.5165,45.336 28.3105,44.04 27.2485,43.122 L28.2745,42.42 C29.3185,43.302 30.5605,44.562 31.1545,45.408 Z M29.5345,49.332 L30.7225,49.818 C29.9125,51.348 28.8505,52.77 27.5905,54.048 C28.2745,55.938 29.0845,57.09 29.9845,57.09 C30.4705,57.09 30.6865,56.172 30.7945,53.868 C31.0825,54.156 31.5505,54.462 31.9285,54.588 C31.6765,57.558 31.2085,58.422 29.8585,58.422 C28.4365,58.422 27.3565,57.162 26.5285,55.056 C25.3585,56.1 24.0805,57 22.7305,57.702 C22.5325,57.378 22.1545,56.928 21.8125,56.64 C23.3245,55.902 24.8005,54.912 26.0785,53.724 C25.6465,52.23 25.3045,50.448 25.0705,48.504 L20.8405,48.504 L20.8405,51.384 C21.9025,51.15 23.0005,50.916 24.0625,50.682 L24.1525,51.888 C23.0545,52.158 21.9385,52.41 20.8405,52.662 L20.8405,56.658 C20.8405,57.522 20.6245,57.918 20.0665,58.134 C19.5085,58.35 18.5365,58.386 17.0785,58.386 C17.0065,58.026 16.7725,57.414 16.5745,57.036 C17.7265,57.09 18.7885,57.072 19.0945,57.054 C19.4185,57.054 19.5265,56.964 19.5265,56.64 L19.5265,52.986 C18.1765,53.274 16.8805,53.58 15.8005,53.814 L15.4225,52.464 C16.5025,52.284 17.9605,51.978 19.5265,51.654 L19.5265,48.504 L15.6745,48.504 L15.6745,47.226 L19.5265,47.226 L19.5265,44.364 C18.4105,44.58 17.2765,44.76 16.2145,44.904 C16.1425,44.58 15.9625,44.112 15.7825,43.788 C18.3025,43.41 21.2005,42.798 22.8925,42.168 L23.8465,43.266 C22.9825,43.572 21.9385,43.86 20.8405,44.094 L20.8405,47.226 L24.9625,47.226 C24.8005,45.588 24.7285,43.86 24.7105,42.096 L26.0785,42.096 C26.0785,43.896 26.1505,45.624 26.2945,47.226 L31.5865,47.226 L31.5865,48.504 L26.4385,48.504 C26.6185,50.034 26.8705,51.42 27.1765,52.608 C28.1305,51.582 28.9225,50.484 29.5345,49.332 Z M39.5975,42.042 L40.8395,42.384 C40.4435,43.572 39.9755,44.76 39.4355,45.894 L39.4355,58.368 L38.1575,58.368 L38.1575,48.288 C37.6175,49.188 37.0595,49.998 36.4655,50.7 C36.3395,50.376 35.9795,49.674 35.7635,49.35 C37.3115,47.55 38.7335,44.814 39.5975,42.042 Z M44.8535,44.04 L42.3515,44.04 L42.3515,45.678 L44.8535,45.678 L44.8535,44.04 Z M42.3515,48.432 L44.8535,48.432 L44.8535,46.686 L42.3515,46.686 L42.3515,48.432 Z M45.9155,42.978 L45.9155,49.476 L42.3515,49.476 L42.3515,58.332 L41.1095,58.332 L41.1095,42.978 L45.9155,42.978 Z M48.0935,48.432 L50.7395,48.432 L50.7395,46.686 L48.0935,46.686 L48.0935,48.432 Z M50.7395,44.04 L48.0935,44.04 L48.0935,45.678 L50.7395,45.678 L50.7395,44.04 Z M51.9995,42.978 L51.9995,56.622 C51.9995,57.486 51.8015,57.9 51.2075,58.116 C50.5955,58.332 49.5515,58.35 47.8595,58.35 C47.7875,58.008 47.5715,57.414 47.4095,57.072 C48.6875,57.108 49.9295,57.108 50.2715,57.09 C50.6135,57.072 50.7395,56.964 50.7395,56.604 L50.7395,49.476 L46.9955,49.476 L46.9955,42.978 L51.9995,42.978 Z M56.9865,49.26 L73.3305,49.26 L73.3305,50.718 L56.9865,50.718 L56.9865,49.26 Z M91.8175,43.986 L87.7135,43.986 L87.7135,48.108 L91.8175,48.108 L91.8175,43.986 Z M92.0155,55.452 L88.6675,55.452 C86.9575,55.452 86.4175,55.002 86.4175,53.292 L86.4175,42.798 L93.1135,42.798 L93.1135,49.296 L87.7135,49.296 L87.7135,53.292 C87.7135,54.066 87.8755,54.228 88.7755,54.228 L91.9615,54.228 C92.7355,54.228 92.8615,53.778 92.9695,51.726 C93.2755,51.96 93.7975,52.176 94.1755,52.248 C93.9775,54.696 93.5995,55.452 92.0155,55.452 Z M82.7455,52.482 L82.7455,56.1 C83.8075,56.496 85.1395,56.622 86.8495,56.622 C87.7135,56.64 93.1855,56.64 94.2835,56.586 C94.0675,56.91 93.8155,57.522 93.7255,57.918 L86.8675,57.918 C83.0695,57.918 80.9275,57.306 79.6135,54.858 C79.3975,56.298 79.0735,57.522 78.5335,58.53 C78.2995,58.368 77.7235,58.026 77.4175,57.882 C78.4615,56.082 78.6595,53.238 78.7135,50.034 L79.9735,50.124 C79.9555,50.988 79.9195,51.834 79.8655,52.626 C80.2615,53.886 80.7835,54.768 81.5035,55.38 L81.5035,48.63 L77.8135,48.63 L77.8135,47.424 L81.1795,47.424 L81.1795,45.156 L78.2635,45.156 L78.2635,43.968 L81.1795,43.968 L81.1795,41.97 L82.4575,41.97 L82.4575,43.968 L85.0495,43.968 L85.0495,45.156 L82.4575,45.156 L82.4575,47.424 L85.4815,47.424 L85.4815,48.63 L82.7455,48.63 L82.7455,51.294 L85.3195,51.294 L85.3195,52.482 L82.7455,52.482 Z M110.5925,46.164 L111.8705,46.38 C111.7265,47.136 111.5105,47.838 111.2585,48.504 C112.3925,49.386 113.7785,50.538 114.4985,51.276 L113.5445,52.194 C112.9325,51.51 111.7985,50.502 110.7365,49.62 C110.2865,50.448 109.7645,51.168 109.1525,51.744 C108.9005,51.546 108.3605,51.168 108.0365,51.024 C109.3325,49.908 110.1965,48.162 110.5925,46.164 Z M102.1145,46.164 L103.4285,46.398 C103.2485,47.154 102.9965,47.856 102.7265,48.522 C103.4825,49.188 104.3105,49.98 104.7605,50.502 L103.8425,51.42 C103.4825,50.97 102.8165,50.304 102.1685,49.674 C101.5565,50.808 100.7825,51.762 99.9005,52.5 C99.6665,52.266 99.1445,51.834 98.8385,51.636 C100.4765,50.412 101.5925,48.486 102.1145,46.164 Z M107.2625,45.75 L107.2625,50.016 C108.8645,52.716 111.8705,55.254 114.9305,56.406 C114.5885,56.694 114.1565,57.234 113.9405,57.594 C111.4565,56.496 109.0085,54.48 107.2625,52.14 L107.2625,58.368 L105.8945,58.368 L105.8945,52.194 C104.1125,54.48 101.7005,56.424 99.3065,57.54 C99.1085,57.216 98.6765,56.694 98.3705,56.424 C101.2685,55.236 104.2385,52.752 105.8945,50.142 L105.8945,45.75 L99.0005,45.75 L99.0005,44.436 L105.8945,44.436 L105.8945,41.952 L107.2625,41.952 L107.2625,44.436 L114.4085,44.436 L114.4085,45.75 L107.2625,45.75 Z M50.9915,69.94 L49.9295,70.714 C49.4435,69.958 48.3995,68.824 47.5175,68.05 L48.5075,67.384 C49.3895,68.14 50.4875,69.22 50.9915,69.94 Z M42.5135,75.898 L40.1195,76.6 L40.1195,81.676 C40.1195,82.432 39.9395,82.792 39.4715,82.99 C39.0035,83.206 38.2655,83.242 37.0235,83.242 C36.9695,82.9 36.7895,82.36 36.6095,82 C37.4735,82.036 38.2475,82.018 38.4635,82.018 C38.7155,82.018 38.8235,81.928 38.8235,81.676 L38.8235,76.996 C37.9595,77.266 37.1495,77.482 36.4295,77.698 L36.0335,76.402 C36.8075,76.222 37.7795,75.952 38.8235,75.664 L38.8235,71.812 L36.2495,71.812 L36.2495,70.552 L38.8235,70.552 L38.8235,66.952 L40.1195,66.952 L40.1195,70.552 L42.3155,70.552 L42.3155,71.812 L40.1195,71.812 L40.1195,75.304 C40.8395,75.106 41.5955,74.872 42.3515,74.674 L42.5135,75.898 Z M50.2355,73.648 L51.3335,74.314 C50.5775,75.952 49.4795,77.572 48.1655,78.976 C48.8315,80.632 49.6775,81.64 50.7035,81.748 C51.1895,81.784 51.4775,80.812 51.6575,78.814 C51.9275,79.12 52.5035,79.444 52.7915,79.552 C52.3775,82.468 51.6755,83.368 50.7755,83.296 C49.1735,83.17 47.9675,82 47.1035,80.02 C45.8615,81.154 44.4575,82.108 43.0355,82.756 C42.7835,82.414 42.3695,81.982 41.9915,81.712 C43.6475,81.064 45.2315,79.984 46.5995,78.706 C46.0595,77.122 45.6995,75.178 45.4115,72.982 L42.6575,73.27 L42.5315,72.01 L45.2855,71.722 C45.1415,70.228 45.0155,68.662 44.9435,67.006 L46.2755,67.006 C46.3475,68.608 46.4555,70.138 46.5995,71.578 L52.1075,71.02 L52.2515,72.244 L46.7435,72.838 C46.9775,74.638 47.3015,76.24 47.6795,77.572 C48.7595,76.366 49.6415,74.998 50.2355,73.648 Z M73.1685,69.58 L66.9945,69.58 C66.6165,70.264 66.1665,70.858 65.7165,71.362 C65.4825,71.11 64.9605,70.624 64.6545,70.408 C65.5725,69.544 66.3105,68.23 66.7065,66.88 L68.0385,67.222 C67.9125,67.618 67.7685,67.996 67.6065,68.392 L73.1685,68.392 L73.1685,69.58 Z M67.8765,70.444 L68.7945,69.742 C69.4245,70.3 70.1805,71.11 70.5405,71.65 L69.5685,72.442 C69.2445,71.902 68.5245,71.038 67.8765,70.444 Z M65.0865,69.58 L59.8125,69.58 C59.2365,70.552 58.5525,71.434 57.8325,72.1 C57.6705,71.812 57.2205,71.218 56.9325,70.948 C58.0665,69.976 59.0925,68.428 59.6685,66.862 L60.9825,67.222 C60.8385,67.618 60.6585,67.996 60.4785,68.392 L65.0865,68.392 L65.0865,69.58 Z M60.3705,70.516 L61.2885,69.796 C61.8825,70.372 62.6025,71.182 62.9265,71.704 L61.9545,72.514 C61.6485,71.974 60.9465,71.128 60.3705,70.516 Z M69.0465,78.904 L61.2705,78.904 L61.2705,81.478 L69.0465,81.478 L69.0465,78.904 Z M59.9745,83.386 L59.9745,77.734 L70.3605,77.734 L70.3605,83.296 L69.0465,83.296 L69.0465,82.666 L61.2705,82.666 L61.2705,83.386 L59.9745,83.386 Z M62.2785,75.16 L68.3445,75.16 C67.0665,74.44 65.9145,73.666 65.0505,72.982 C64.2585,73.774 63.3225,74.512 62.2785,75.16 Z M64.8885,71.2 L66.1485,71.704 C66.0405,71.866 65.9145,72.01 65.7885,72.154 C67.4985,73.468 70.7205,75.106 73.5465,75.934 C73.2225,76.204 72.8265,76.744 72.6105,77.104 C71.3685,76.69 70.0905,76.096 68.8845,75.466 L68.8845,76.294 L61.5045,76.294 L61.5045,75.646 C60.3525,76.294 59.0925,76.852 57.7785,77.356 C57.5985,77.05 57.2025,76.51 56.9325,76.276 C60.3345,75.106 63.3945,73.288 64.8885,71.2 Z M79.6315,69.436 L79.6315,70.876 L78.3715,70.876 L78.3715,68.302 L85.3015,68.302 C85.0855,67.924 84.8515,67.564 84.6535,67.24 L85.9855,66.916 C86.2555,67.312 86.6335,67.852 86.8855,68.302 L93.4735,68.302 L93.4735,70.876 L92.1775,70.876 L92.1775,69.436 L79.6315,69.436 Z M88.3615,72.568 L83.6455,72.568 C83.2675,72.964 82.8895,73.324 82.5475,73.666 C83.7355,73.846 84.9055,74.062 86.0575,74.296 C86.9935,73.828 87.7675,73.27 88.3615,72.568 Z M93.5095,76.168 L92.2135,77.05 C90.7555,76.492 88.7215,75.952 86.3635,75.412 C84.4195,76.24 81.8635,76.654 78.5515,76.87 C78.4255,76.474 78.2455,76.042 78.0475,75.718 C80.5135,75.61 82.5115,75.376 84.1315,74.962 C82.9075,74.728 81.6475,74.512 80.3335,74.314 C80.8915,73.81 81.5035,73.216 82.1155,72.568 L78.0655,72.568 L78.0655,71.47 L83.0875,71.47 C83.6275,70.84 84.1135,70.192 84.4915,69.616 L85.7875,70.012 C85.4635,70.48 85.0675,70.984 84.6535,71.47 L89.0815,71.47 C89.2975,71.092 89.4775,70.678 89.6215,70.228 L90.9175,70.534 C90.8095,70.876 90.7015,71.164 90.5575,71.47 L93.7435,71.47 L93.7435,72.568 L89.9635,72.568 C89.4055,73.414 88.7035,74.098 87.8395,74.656 C90.0355,75.142 92.0155,75.664 93.5095,76.168 Z M82.3855,79.372 L83.6995,79.804 C82.6015,81.028 80.7835,82.144 79.1995,82.846 C78.9655,82.594 78.4255,82.126 78.1015,81.928 C79.7215,81.334 81.4315,80.398 82.3855,79.372 Z M87.9115,80.038 L88.8115,79.192 C90.4315,79.912 92.5195,81.1 93.5815,81.964 L92.6095,82.936 C91.6015,82.054 89.5495,80.812 87.9115,80.038 Z M86.4895,77.842 L93.9235,77.842 L93.9235,78.976 L86.4895,78.976 L86.4895,83.368 L85.1755,83.368 L85.1755,78.976 L77.8855,78.976 L77.8855,77.842 L85.1755,77.842 L85.1755,76.348 L86.4895,76.348 L86.4895,77.842 Z" id="我們一起來找答案" fill="#040101"></path>
        </g>
    </g>
</svg>