<?xml version="1.0" encoding="UTF-8"?>
<svg width="152px" height="151px" viewBox="0 0 152 151" version="1.1" xmlns="http://www.w3.org/2000/svg" xmlns:xlink="http://www.w3.org/1999/xlink">
    <!-- Generator: Sketch 52.3 (67297) - http://www.bohemiancoding.com/sketch -->
    <title>Group</title>
    <desc>Created with Sketch.</desc>
    <defs>
        <polygon id="path-1" points="0.0617207383 0.29271 27.9191473 0.29271 27.9191473 32.673663 0.0617207383 32.673663"></polygon>
    </defs>
    <g id="web" stroke="none" stroke-width="1" fill="none" fill-rule="evenodd">
        <g id="Group" transform="translate(76.000000, 75.500000) scale(-1, 1) translate(-76.000000, -75.500000) ">
            <path d="M97.1556787,64.0053017 C98.395731,64.22341 99.961839,65.2842997 99.9996476,66.284567 C100.032947,67.2877996 97.7002611,71.982401 95.6790627,72.6901 C93.5742691,73.4363469 86.7135715,72.6561647 85.5612768,72.2166533 C84.4204287,71.7794482 83.4800702,68.2383172 84.3253869,67.6881043 C85.1707037,67.1375618 89.7517863,67.2215764 92.7282586,65.8223223 C94.8920197,64.805252 96.6849792,63.9232639 97.1556787,64.0053017" id="Fill-1" fill="#160607"></path>
            <path d="M97.1556787,64.0053017 C98.395731,64.22341 99.961839,65.2842997 99.9996476,66.284567 C100.032947,67.2877996 97.7002611,71.982401 95.6790627,72.6901 C93.5742691,73.4363469 86.7135715,72.6561647 85.5612768,72.2166533 C84.4204287,71.7794482 83.4800702,68.2383172 84.3253869,67.6881043 C85.1707037,67.1375618 89.7517863,67.2215764 92.7282586,65.8223223 C94.8920197,64.805252 96.6849792,63.9232639 97.1556787,64.0053017 Z" id="Stroke-3" stroke="#FEFEFE" stroke-width="23.773"></path>
            <path d="M95.7087981,64.0021802 C96.7293381,64.1307483 97.9963743,64.8725329 97.9999944,65.5992092 C98.0039436,66.3276631 95.9230424,70.1544896 94.2370615,70.7173453 C92.4790077,71.3044927 87.1627214,70.8408773 86.2280766,70.5464149 C85.294419,70.252545 84.5443994,67.4752963 85.3273291,67.2691133 C86.4508775,66.973466 89.4654363,66.599315 91.964953,65.5156696 C93.7799412,64.7250054 95.3240798,63.9535968 95.7087981,64.0021802" id="Fill-5" fill="#2B2222"></path>
            <path d="M95.7087981,64.0021802 C96.7293381,64.1307483 97.9963743,64.8725329 97.9999944,65.5992092 C98.0039436,66.3276631 95.9230424,70.1544896 94.2370615,70.7173453 C92.4790077,71.3044927 87.1627214,70.8408773 86.2280766,70.5464149 C85.294419,70.252545 84.5443994,67.4752963 85.3273291,67.2691133 C86.4508775,66.973466 89.4654363,66.599315 91.964953,65.5156696 C93.7799412,64.7250054 95.3240798,63.9535968 95.7087981,64.0021802 Z" id="Stroke-7" stroke="#FEFEFE" stroke-width="23.773"></path>
            <path d="M96.9081419,65.0004442 C97.8654772,65.083693 99.0247988,65.6979153 98.9995961,66.352013 C98.9670884,67.0075099 96.8131755,71.0671135 95.1961884,71.6383122 C93.5130901,72.2399423 88.936436,71.9583654 88.0729715,71.7376511 C87.2043934,71.4994476 86.5593519,68.8036554 87.3746026,68.8057541 C89.0160618,68.8312884 90.8459929,67.7189724 93.2596026,66.6458323 C95.009908,65.8584665 96.5490956,64.9773584 96.9081419,65.0004442" id="Fill-9" fill="#413A39"></path>
            <path d="M96.9081419,65.0004442 C97.8654772,65.083693 99.0247988,65.6979153 98.9995961,66.352013 C98.9670884,67.0075099 96.8131755,71.0671135 95.1961884,71.6383122 C93.5130901,72.2399423 88.936436,71.9583654 88.0729715,71.7376511 C87.2043934,71.4994476 86.5593519,68.8036554 87.3746026,68.8057541 C89.0160618,68.8312884 90.8459929,67.7189724 93.2596026,66.6458323 C95.009908,65.8584665 96.5490956,64.9773584 96.9081419,65.0004442 Z" id="Stroke-11" stroke="#FEFEFE" stroke-width="23.773"></path>
            <path d="M74.9970033,130.865806 C72.5412405,129.313452 69.6352545,128.370963 66.6765,127.930195 C64.636458,127.626738 62.7510004,128.122888 60.7177235,127.739469 C59.0764892,127.432407 57.4907294,126.411595 55.7290748,125.866944 C51.7122451,124.621652 47.9795533,121.319336 43.7719454,121.148928 C35.365186,120.809422 27.5571457,120.444027 22.0289733,127.465833 C20.2690099,129.704408 18.8540711,132.328696 15.8317239,133.296091 C11.6261455,134.639368 11.017617,130.69376 9.12945336,127.290181 C8.59195927,126.322786 7.94081004,123.969841 6.94260673,123.370134 C5.57536248,122.551191 -0.74771936,124.092404 0.0732360573,126.269698 C0.704766244,127.934783 1.93839806,126.529242 3.0245488,126.963784 C4.54671582,127.568406 4.6417667,128.328033 5.16200956,129.851877 C6.40612741,133.48649 6.52790078,138.088497 8.67415629,141.368858 C10.0562839,143.481265 13.3424734,147.71624 15.9193331,148.401478 C18.6213487,149.120797 21.2059883,148.121943 23.8636919,147.866985 C26.429389,147.619238 29.0167347,147.879438 31.6203168,147.700837 C37.3101772,147.310864 43.1678142,145.675928 48.7183117,145.933506 C51.0201665,146.040995 53.309844,146.669539 55.5988449,146.427691 C60.2357039,145.940388 59.5311097,146.858627 63.4467999,148.550913 C69.3994877,151.124078 73.7559297,152.950397 78.5324899,147.205015 C81.1134086,144.100962 81.8785513,139.416371 79.8205814,135.812563 C78.6319381,133.734565 76.9585692,132.106838 74.9970033,130.865806" id="Fill-13" fill="#160607"></path>
            <path d="M16.0402741,124.86938 C19.1365716,129.505898 22.9131568,139.547295 30.9278912,136.400455 C34.6703113,134.918451 32.6679675,128.512001 30.2127684,126.715046 C28.0265359,125.113267 27.1281943,126.66767 24.8753063,126.2583 C22.2131068,125.771861 20.8813372,123.149494 19.1382463,121.323179 C18.364172,120.509111 17.1094413,118.373183 15.9953906,118.043552 C14.4680089,117.592145 8.842153,120.754666 10.213447,122.676401 C11.2621821,124.14606 12.067742,122.447527 13.2199773,122.587987 C14.8364562,122.790837 15.1325539,123.512822 16.0402741,124.86938" id="Fill-15" fill="#160607"></path>
            <path d="M112.693829,128.251632 C111.067048,128.336037 109.435991,128.418448 107.772365,128.458656 C102.851888,128.576624 100.586238,130.941624 97.0056761,134.394584 C96.6832808,134.706284 110.198554,141.754098 111.026255,142.105342 C116.256297,144.336092 124.419808,146.330242 129.998564,143.863225 C134.800609,141.741803 133.323841,131.839174 129.200471,129.62936 C126.63973,128.256284 123.565789,128.035967 120.723447,128.003734 C117.971243,127.975156 115.338457,128.11572 112.693829,128.251632" id="Fill-17" fill="#160607"></path>
            <path d="M45,37.4051909 C45,37.4051909 37.2224628,21.5641292 26.3067999,25.6837923 C26.3067999,25.6837923 13.6843119,31.0087499 16.3767061,39.5879035 C16.3767061,39.5879035 16.3101182,55.1056985 30.2314104,53.9371689 L41.0845622,52.7100141 L45,37.4051909 Z" id="Fill-19" fill="#160607"></path>
            <g id="Group-23" transform="translate(88.000000, 0.000000)">
                <mask id="mask-2" fill="white">
                    <use xlink:href="#path-1"></use>
                </mask>
                <g id="Clip-22"></g>
                <path d="M4.62873333,27.965883 C4.62873333,27.965883 -10.1126,5.787903 13.3734,0.503283 C13.3734,0.503283 20.8720667,-1.294557 24.5134,5.615313 C24.5134,5.615313 36.8484,19.054893 14.5687333,32.673663 L4.62873333,27.965883 Z" id="Fill-21" fill="#160607" mask="url(#mask-2)"></path>
            </g>
            <path d="M98.9099729,8.38607565 C98.9099729,8.38607565 96.4867762,12.3325087 96,19.3104646 L107.254304,23 C107.254304,23 111.18591,16.8525263 109.639791,13.5007028 C108.087386,10.1478937 104.711692,4.32696249 98.9099729,8.38607565" id="Fill-24" fill="#413A39"></path>
            <path d="M38.6183293,36.242986 C38.6183293,36.242986 31.6490997,28.9750987 26.7589028,33.4635272 C21.8758582,37.9623871 27.5453266,51.6952948 39,45.3572511 L38.6183293,36.242986 Z" id="Fill-26" fill="#413A39"></path>
            <path d="M146.729397,98.6887931 C161.981524,68.9808915 142.809606,44.5028729 106.24667,18.3144247 C97.2111035,11.8509329 41.3810531,12.0689849 30.2625739,44.8753783 C24.0895889,63.0894497 20.7828721,82.3130211 22.4139399,90.7965223 C24.7036695,102.686076 29.0350831,124.41489 48.2686778,132.105261 C50.44377,132.972085 114.615194,157.772134 146.729397,98.6887931" id="Fill-28" fill="#160607"></path>
            <path d="M54.0610313,69.0931795 C54.4839497,73.2276955 57.0413043,76.3122771 59.7654699,75.9747382 C62.4921159,75.652328 64.3670338,72.0294995 63.9391544,67.9000264 C63.5218169,63.7732428 60.957331,60.6967299 58.2313052,61.0238469 C55.4978379,61.3536533 53.6334619,64.9677408 54.0610313,69.0931795" id="Fill-30" fill="#FEFEFE"></path>
            <path d="M106.057092,53.6250376 C108.675739,56.7742121 112.786421,57.9228628 115.245019,56.1982843 C117.698039,54.4698599 117.563097,50.5229756 114.943404,47.3677116 C112.324758,44.2310363 108.212332,43.0721298 105.759661,44.8060026 C103.291997,46.5280172 103.445768,50.4787474 106.057092,53.6250376" id="Fill-32" fill="#FEFEFE"></path>
            <path d="M88.5181019,61.309514 C88.5181019,61.309514 66.0207879,68.4975496 72.0158622,85.199951 C72.0158622,85.199951 80.6996163,98.2863036 98.6992047,90.5582626 C98.6992047,90.5582626 119.19972,79.3188611 111.110295,66.3514421 C111.110295,66.3514421 102.578881,56.5352696 88.5181019,61.309514" id="Fill-34" fill="#FEFEFE"></path>
            <path d="M97.1556787,64.0053017 C98.395731,64.22341 99.961839,65.2842997 99.9996476,66.284567 C100.032947,67.2877996 97.7002611,71.982401 95.6790627,72.6901 C93.5742691,73.4363469 86.7135715,72.6561647 85.5612768,72.2166533 C84.4204287,71.7794482 83.4800702,68.2383172 84.3253869,67.6881043 C85.1707037,67.1375618 89.7517863,67.2215764 92.7282586,65.8223223 C94.8920197,64.805252 96.6849792,63.9232639 97.1556787,64.0053017" id="Fill-36" fill="#160607"></path>
            <path d="M95.7087981,64.0021802 C96.7293381,64.1307483 97.9963743,64.8725329 97.9999944,65.5992092 C98.0039436,66.3276631 95.9230424,70.1544896 94.2370615,70.7173453 C92.4790077,71.3044927 87.1627214,70.8408773 86.2280766,70.5464149 C85.294419,70.252545 84.5443994,67.4752963 85.3273291,67.2691133 C86.4508775,66.973466 89.4654363,66.599315 91.964953,65.5156696 C93.7799412,64.7250054 95.3240798,63.9535968 95.7087981,64.0021802" id="Fill-38" fill="#2B2222"></path>
            <path d="M96.9081419,65.0004442 C97.8654772,65.083693 99.0247988,65.6979153 98.9995961,66.352013 C98.9670884,67.0075099 96.8131755,71.0671135 95.1961884,71.6383122 C93.5130901,72.2399423 88.936436,71.9583654 88.0729715,71.7376511 C87.2043934,71.4994476 86.5593519,68.8036554 87.3746026,68.8057541 C89.0160618,68.8312884 90.8459929,67.7189724 93.2596026,66.6458323 C95.009908,65.8584665 96.5490956,64.9773584 96.9081419,65.0004442" id="Fill-40" fill="#413A39"></path>
            <path d="M57.3131153,69.3879326 C57.1877862,68.5133382 57.6676975,67.9461996 58.387099,67.6936831 C59.0295658,67.4677832 59.7502083,67.5401257 60.0567062,67.9397161 C61.0264558,69.2050288 62.6709351,67.3804261 61.7077002,66.1236444 C60.7162352,64.8303502 58.7900755,64.7805294 57.4545759,65.3360658 C55.5836355,66.1147722 54.7568977,67.9448347 55.0618445,70.070751 C55.2951304,71.698459 57.5454705,71.0074509 57.3131153,69.3879326" id="Fill-42" fill="#160607"></path>
            <path d="M124.52812,140.406626 C124.992746,140.981463 125.493714,141.418654 126.025249,141.641689 C128.927123,142.862749 133.069359,140.80727 133.784978,137.831984 C134.251642,135.895025 133.859359,133.793437 133.544174,131.860235 C132.897841,127.902636 130.459574,124.515435 128.463176,121.133015 C127.414372,119.352147 126.417871,117.55181 125.326951,115.799632 C124.109006,113.844913 122.16729,112.121426 120.602914,110.431411 C120.59748,110.423556 119.883898,109.660863 119.172355,110.182076 C118.453,110.710804 118.759014,110.695775 118.759014,110.695775 C118.759014,110.695775 117.82229,109.812855 117.206865,110.309476 C116.593816,110.794826 116.39275,111.12306 116.39275,111.12306 C116.39275,111.12306 115.459083,110.876799 114.941813,111.464957 C112.880884,113.773869 114.695575,116.861527 115.721624,119.272223 C116.698085,121.566107 117.529861,123.909858 118.716899,126.105374 C119.596224,127.726052 120.778507,129.283202 121.02067,131.120768 C121.307664,133.268125 122.616972,138.032135 124.52812,140.406626" id="Fill-44" fill="#160607"></path>
            <path d="M135.976259,138 C136.200681,136.067645 134.777237,132.895427 134.098705,131.103756 C132.733561,127.497194 131.019669,124.441075 128.998822,121.129197 C127.912186,119.349136 126.8835,117.548587 125.753314,115.79755 C124.494236,113.845731 122.483574,112.118256 120.868371,110.43039 C120.860644,110.424926 120.126972,109.659702 119.391544,110.182827 C118.645228,110.709709 118.961666,110.696733 118.961666,110.696733 C118.961666,110.696733 117.993036,109.811995 117.356297,110.308487 C116.72307,110.795758 116.516911,111.121517 116.516911,111.121517 C116.516911,111.121517 115.549335,110.878052 115.014446,111.463666 C112.975687,113.706413 114.407208,117.706002 115.841188,119.873969 C117.030025,121.662909 117.965993,123.597654 118.879835,125.527277 C119.57663,126.994898 120.429362,128.307834 120.800588,129.87004 C121.105787,131.158049 120.705762,133.164161 121.190077,134.395487" id="Stroke-46" stroke="#FEFEFE" stroke-width="1.628"></path>
            <path d="M80.9067722,138 C81.0271034,135.984018 81.9264208,126.380711 81.9940863,124.362398 C82.0707516,122.111945 81.3834304,119.636681 81.008437,117.403214 C81.0064371,117.390891 80.8297735,116.382067 79.9057898,116.400052 C78.9728063,116.412709 79.2481348,116.573241 79.2481348,116.573241 C79.2481348,116.573241 78.9461401,115.336608 78.1251546,115.386233 C77.3078357,115.428198 76.9415088,115.575075 76.9415088,115.575075 C76.9415088,115.575075 76.272854,114.852679 75.4848679,115.0272 C72.458588,115.707298 71.3396077,119.686972 71.2896086,122.202203 C71.2426094,124.284796 70.9109486,126.338413 70.5536216,128.383371 C70.2882929,129.935407 70.2416271,131.45547 69.6423043,132.905924 C69.1526463,134.100259 68.3076612,135.452796 68,136.696423" id="Stroke-48" stroke="#FEFEFE" stroke-width="1.684"></path>
            <path d="M119.010391,116.3737 C119.108264,115.381751 119.837964,114.899859 120.512928,115.017361 C121.019331,114.946067 121.531173,115.1177 121.845092,115.677487 C122.176049,116.274681 121.933903,117.047469 121.521385,117.476991 C120.621676,118.430653 118.848356,118.090028 119.010391,116.3737" id="Fill-50" fill="#FEFEFE"></path>
            <path d="M116.003662,112.396721 C115.970445,112.157388 116.167599,111.951622 116.415893,112.010018 C116.646025,112.065196 116.849154,112.256248 116.941398,112.456727 C116.950718,112.486844 116.96649,112.515813 116.96888,112.548459 C116.991582,112.610994 117.008788,112.677437 116.995167,112.737672 C116.93853,112.991029 116.650566,113.060231 116.431187,112.948037 C116.226386,112.850327 116.040464,112.62065 116.003662,112.396721" id="Fill-52" fill="#FEFEFE"></path>
            <path d="M117.166989,112.131928 L117.172267,112.129625 C117.179304,112.115297 117.196312,112.102761 117.217424,112.093294 C117.254371,112.034705 117.346739,111.995304 117.434414,112.013213 C117.704479,111.931086 118.049024,112.248851 117.99419,112.495235 C117.990378,112.547428 117.960469,112.593481 117.929679,112.634417 C117.933491,112.655397 117.931732,112.669213 117.945514,112.690704 C117.949326,112.765412 117.90974,112.810698 117.862237,112.843958 C117.824996,112.892569 117.75814,112.923527 117.688351,112.917899 C117.554639,113.026635 117.345859,113.035334 117.196312,112.89564 C117.013923,112.712451 116.878744,112.273413 117.166989,112.131928" id="Fill-54" fill="#FEFEFE"></path>
            <path d="M120.056626,112.142779 C120.152794,112.001803 120.35429,111.975935 120.528579,112.018875 C120.570063,112.01603 120.614511,112.039569 120.665963,112.063884 C120.680509,112.078369 120.70179,112.088975 120.724418,112.110703 L120.730075,112.111479 L120.731422,112.119757 C120.743274,112.128034 120.752972,112.135019 120.759437,112.150798 C120.778833,112.163214 120.799575,112.181838 120.81924,112.194254 C120.855875,112.225812 120.890086,112.260992 120.925644,112.296171 C120.987332,112.383085 121.013193,112.487071 120.993528,112.591316 C121.007536,112.709011 120.979251,112.814808 120.89278,112.897065 C120.780718,113.006742 120.650877,113.019676 120.533428,112.978288 C120.18512,112.933538 119.867252,112.433267 120.056626,112.142779" id="Fill-56" fill="#FEFEFE"></path>
            <path d="M98.3275521,77.3153265 C99.1031983,76.7555116 99.9220262,76.2497504 100.89897,76.0032958 C101.306761,75.9012363 100.354492,78.2024876 100.261635,78.3306289 C99.7356633,79.0733948 98.9785235,79.6294298 98.233072,80.0206576 C97.1213881,80.6001284 95.8142505,81.038228 94.6207487,81.3440283 C92.9278984,81.7791039 87.8769445,83.0019272 87,80.3049121 C87.3538947,81.399216 97.426257,77.9643489 98.3275521,77.3153265" id="Fill-58" fill="#160607"></path>
            <path d="M113.998825,51.3988746 C114.04825,53.3324958 112.532766,54.9383374 110.600647,54.9985347 C108.669919,55.0538605 107.058369,53.5357052 107.001286,51.5944289 C106.949424,49.6729864 108.472913,48.0608815 110.402596,48.0010321 C112.334716,47.9547533 113.948355,49.4704729 113.998825,51.3988746" id="Fill-60" fill="#160403"></path>
            <path d="M111.999286,49.4626188 C112.024608,50.2887407 111.373211,50.9824208 110.544121,50.9994677 C109.71896,51.0213228 109.02303,50.3674189 109.000328,49.5382374 C108.9833,48.7081816 109.632078,48.0179983 110.461168,48.0009513 C111.294188,47.9716655 111.977893,48.6220726 111.999286,49.4626188" id="Fill-62" fill="#FEFEFE"></path>
            <path d="M56.7769192,7 C56.7769192,7 56.1795733,6.71777642 56,4.61942578 L56.6117924,4 C56.6117924,4 56.5014279,5.57651191 57,6.10155773 L56.7769192,7 Z" id="Fill-64" fill="#3EAB4A"></path>
            <path d="M76.8732614,26.5170062 C79.8436089,24.7284105 82.1383493,21.5461393 82.8013407,18.1877781 C83.5798659,14.2262659 81.997252,10.4637526 79.3290187,7.58852765 C76.5160362,4.55772808 72.4564173,2.80469226 68.3755509,3.01736796 C64.6130664,3.21499907 61.3333008,5.7674493 59.4661682,9.02870453 C57.2371626,12.9365349 57.6568026,17.6745527 60.0003461,21.4134734 C62.635048,25.6112539 67.5452347,28.3035504 72.4265379,27.9725696 C73.9892322,27.865206 75.5074394,27.3417229 76.8732614,26.5170062" id="Fill-66" fill="#F0E87D"></path>
            <path d="M56.284259,16 L66,1 C66,1 61.2521451,1.88979809 58.0721453,6.56306359 C58.0721453,6.56306359 55.0841856,11.2043395 56.284259,16" id="Fill-68" fill="#E0B380"></path>
            <path d="M56.073842,13.6531383 C56.0650448,13.5724067 56.0511724,13.4890603 56.0447437,13.4089825 C56.0281644,13.2527489 56.0190289,13.1432546 56.0190289,13.1432546 C56.0234275,13.1288733 56.0257959,13.1174336 56.0305329,13.1043596 C55.6576684,8.03330478 58.8229563,4.45692824 58.8229563,4.45692824 C60.9840139,2.10754105 63.3494364,0.914543937 65.6187668,0.373936479 C65.6366995,0.363804175 65.6674895,0.347461749 65.6674895,0.347461749 C65.7287314,0.33177302 65.7896348,0.326543443 65.851215,0.31183526 C66.034602,0.27195974 66.2129138,0.241889676 66.3932557,0.20985852 C66.680517,0.158543302 66.9687934,0.11245766 67.2533478,0.0827144446 C67.4286145,0.0624498362 67.6032044,0.0497027438 67.7754258,0.0372824999 C68.0156561,0.0209400737 68.2477659,0.0088466783 68.479199,0.00557819306 C68.6987898,-0.000305080364 68.9126286,-0.00193932298 69.1254524,0.00263655635 C69.3291406,0.00688558716 69.5182797,0.0163641943 69.7077571,0.0278038927 C69.8884373,0.038589894 70.0701326,0.0441463189 70.2453992,0.0611424421 C71.5737713,0.179134759 72.4832629,0.408909271 72.4832629,0.408909271 C72.4771725,0.412177756 72.4710822,0.416099939 72.4673603,0.420022121 C74.5505968,0.90277739 75.9131424,1.61922935 75.9131424,1.61922935 C78.092471,2.59258426 77.9994241,4.23695918 77.9994241,4.23695918 L77.2594471,3.81499774 C72.5472115,3.68556572 67.1633461,11.1364047 67.1633461,11.1364047 C61.9415515,17.7416865 63.0455958,22.1410676 63.0455958,22.1410676 L63.8870786,22.912757 C62.1086977,23.4314656 59.9838438,21.4677597 59.9838438,21.4677597 C57.7043628,18.9775007 56.6202813,16.5751641 56.2054611,14.3921428 C56.1442193,14.0966717 56.0995568,13.8518622 56.073842,13.6531383" id="Fill-70" fill="#3EAB4A"></path>
            <path d="M84,20 C84,20 80.5225567,21.3044538 80,24 C80,24 80.5822258,23.6646346 81.3300787,23.071362 C81.8215351,22.8019795 82.4153332,22.5627196 83.0268511,22.5044825 C83.0268511,22.5044825 82.9205316,21.9244065 83.2977127,21.0933085 C83.5598951,20.7513448 83.7989332,20.3884386 84,20" id="Fill-72" fill="#C39F66"></path>
        </g>
        <path d="M149,143.003719 C149,147.418332 119.224274,151 82.4989028,151 C45.7691432,151 16,147.418332 16,143.003719 C16,138.58613 45.7691432,135 82.4989028,135 C119.224274,135 149,138.58613 149,143.003719" id="Fill-6" fill="#000000" opacity="0.097265625"></path>
        <path d="M149,143.003719 C149,147.418332 119.224274,151 82.4989028,151 C45.7691432,151 16,147.418332 16,143.003719 C16,138.58613 45.7691432,135 82.4989028,135 C119.224274,135 149,138.58613 149,143.003719" id="Fill-6" fill="#000000" opacity="0.097265625"></path>
    </g>
</svg>