<?xml version="1.0" encoding="UTF-8"?>
<svg width="207px" height="207px" viewBox="0 0 207 207" version="1.1" xmlns="http://www.w3.org/2000/svg" xmlns:xlink="http://www.w3.org/1999/xlink">
    <!-- Generator: Sketch 50.2 (55047) - http://www.bohemiancoding.com/sketch -->
    <title>Group 18 Copy</title>
    <desc>Created with Sketch.</desc>
    <defs>
        <circle id="path-1" cx="103.5" cy="103.5" r="103.5"></circle>
    </defs>
    <g id="web" stroke="none" stroke-width="1" fill="none" fill-rule="evenodd">
        <g id="Group-18-Copy">
            <mask id="mask-2" fill="white">
                <use xlink:href="#path-1"></use>
            </mask>
            <use id="Mask" fill="#FFF8D5" xlink:href="#path-1"></use>
        </g>
        <g id="Group-25" transform="translate(47.000000, 61.000000)">
            <path d="M99.9248238,79.067836 C97.055077,88.6482907 99.7807361,99.6758547 108.011746,107 C94.0112242,107 81.4335683,101.134777 72.7222657,91.3357795 C67.8653093,92.328083 62.7682067,92.8537677 57.5030018,92.8537677 C25.7496737,92.8537677 0,73.8523358 0,50.4268838 C0,27.0073385 25.7496737,8 57.5030018,8 C89.2743409,8 115,27.0191516 115,50.4268838 C115,61.7084303 108.972331,71.767317 99.9248238,79.067836" id="Fill-124" fill="#ECF5E1"></path>
            <path d="M55.992483,8 C25.0700394,8 0,26.803244 0,49.9843647 C0,66.7944765 13.1898341,81.2958282 32.226226,88 L98,22.2441733 C86.5875194,12.5356908 71.0356759,8 55.992483,8" id="Fill-126" fill="#FFFFFF"></path>
            <path d="M58.0027855,52 C60.7604457,52 63,54.2383073 63,57 C63,59.7616927 60.7604457,62 58.0027855,62 C55.2395543,62 53,59.7616927 53,57 C53,54.2383073 55.2395543,52 58.0027855,52" id="Fill-128" fill="#3BEC96"></path>
            <path d="M37.0027855,52 C39.7660167,52 42,54.2383073 42,57 C42,59.7616927 39.7660167,62 37.0027855,62 C34.2395543,62 32,59.7616927 32,57 C32,54.2383073 34.2395543,52 37.0027855,52" id="Fill-130" fill="#3BEC96"></path>
            <path d="M79.9972145,52 C82.7604457,52 85,54.2383073 85,57 C85,59.7616927 82.7604457,62 79.9972145,62 C77.2395543,62 75,59.7616927 75,57 C75,54.2383073 77.2395543,52 79.9972145,52" id="Fill-132" fill="#3BEC96"></path>
            <path d="M21.5,0 C33.3692929,0 43,9.62606153 43,21.5029932 C43,33.3739385 33.3692929,43 21.5,43 C9.63070713,43 0,33.3739385 0,21.5029932 C0,9.62606153 9.63070713,0 21.5,0" id="Fill-134" fill="#FB2142"></path>
            <path d="M15.9262833,26.3147836 L22.1671169,20.6447442 C24.9517561,18.1343451 25.9648784,16.7369309 25.9648784,14.7892074 C25.9648784,12.6498033 24.5465071,11.4069702 22.6881513,11.4069702 C21.0671555,11.4069702 19.9324585,12.2169758 18.6877653,13.8246206 C18.4272482,14.1399663 18.01621,14.4182125 17.4372829,14.4182125 C16.5341567,14.4182125 15.8047086,13.6391231 15.8047086,12.6807195 C15.8047086,12.2726251 15.9552296,11.8459809 16.2157468,11.4997189 C17.8714782,9.30466554 19.7529911,8 22.9486685,8 C26.9201081,8 29.6526438,10.5969646 29.6526438,14.4738617 L29.6526438,14.5418775 C29.6526438,17.9488477 27.967966,19.8100056 24.3670398,22.9387296 L20.1871864,26.6548623 L28.4311077,26.6548623 C29.3052875,26.6548623 30,27.4030354 30,28.3305228 C30,29.2580101 29.3110768,30 28.4311077,30 L16.9162486,30 C15.8104979,30 15,29.3198426 15,28.2068578 C15,27.4648679 15.3184099,26.8403598 15.9262833,26.3147836" id="Fill-136" fill="#FFFFFF"></path>
        </g>
    </g>
</svg>