<?xml version="1.0" encoding="UTF-8"?>
<svg width="70px" height="120px" viewBox="0 0 70 120" version="1.1" xmlns="http://www.w3.org/2000/svg" xmlns:xlink="http://www.w3.org/1999/xlink">
    <!-- Generator: Sketch 52.3 (67297) - http://www.bohemiancoding.com/sketch -->
    <title>Group 47</title>
    <desc>Created with Sketch.</desc>
    <defs>
        <polygon id="path-1" points="1.71757037e-05 0.156446991 69.7623415 0.156446991 69.7623415 87.2281032 1.71757037e-05 87.2281032"></polygon>
        <polygon id="path-3" points="0.0965886243 0.156446991 62.1542628 0.156446991 62.1542628 87.2281032 0.0965886243 87.2281032"></polygon>
        <polygon id="path-5" points="0.224069013 0.156446991 51.0999427 0.156446991 51.0999427 87.2281032 0.224069013 87.2281032"></polygon>
        <polygon id="path-7" points="0.103917985 0.156446991 37.5618381 0.156446991 37.5618381 87.2281032 0.103917985 87.2281032"></polygon>
        <polygon id="path-9" points="0.127547028 0.156446991 15.6840111 0.156446991 15.6840111 87.2281032 0.127547028 87.2281032"></polygon>
    </defs>
    <g id="web" stroke="none" stroke-width="1" fill="none" fill-rule="evenodd">
        <g id="Group-47">
            <polygon id="Fill-1" fill="#468E65" points="25 104 28.180685 120 41.8196565 120 45 104"></polygon>
            <polygon id="Fill-2" fill="#FFDFE3" points="44 108 43.6348675 110 26.3664639 110 26 108"></polygon>
            <polygon id="Fill-3" fill="#FFDFE3" points="25 104 45 104 44.6240139 106 25.3753031 106"></polygon>
            <polygon id="Fill-4" fill="#FF8096" points="25 105 45 105 44.8700707 106 25.129579 106"></polygon>
            <g id="Group-46">
                <path d="M25.6364585,105.334074 C27.8412878,105.334074 29.2928488,110.420149 25.6364585,110.420149 C21.9810927,110.420149 23.4329951,105.334074 25.6364585,105.334074" id="Fill-5" fill="#FF8096"></path>
                <path d="M25.6364585,105.882739 C26.2312878,105.882739 26.6939707,104.990476 26.527678,104.365719 C26.2722634,104.399759 25.977239,104.41867 25.6364585,104.41867 C25.2970439,104.41867 25.0009951,104.399759 24.745922,104.365719 C24.5799707,104.990476 25.0419707,105.882739 25.6364585,105.882739" id="Fill-7" fill="#FF8096"></path>
                <path d="M44.1263268,105.334074 C46.3311561,105.334074 47.7830585,110.420149 44.1263268,110.420149 C40.470961,110.420149 41.9228634,105.334074 44.1263268,105.334074" id="Fill-9" fill="#FF8096"></path>
                <path d="M44.1263268,105.882739 C44.7221805,105.882739 45.1841805,104.990476 45.0178878,104.365719 C44.7628146,104.399759 44.4671073,104.41867 44.1263268,104.41867 C43.7869122,104.41867 43.4912049,104.399759 43.2364732,104.365719 C43.0701805,104.990476 43.531839,105.882739 44.1263268,105.882739" id="Fill-11" fill="#FF8096"></path>
                <path d="M31.8001463,105.334074 C34.0046341,105.334074 35.4565366,110.420149 31.8001463,110.420149 C28.1447805,110.420149 29.596,105.334074 31.8001463,105.334074" id="Fill-13" fill="#FF8096"></path>
                <path d="M31.8001463,105.882739 C32.3946341,105.882739 32.8573171,104.990476 32.6910244,104.365719 C32.4356098,104.399759 32.1409268,104.41867 31.8001463,104.41867 C31.4600488,104.41867 31.1643415,104.399759 30.9092683,104.365719 C30.7436585,104.990476 31.2053171,105.882739 31.8001463,105.882739" id="Fill-15" fill="#FF8096"></path>
                <path d="M37.9636634,105.334074 C40.1678098,105.334074 41.6190293,110.420149 37.9636634,110.420149 C34.3079561,110.420149 35.7595171,105.334074 37.9636634,105.334074" id="Fill-17" fill="#FF8096"></path>
                <path d="M37.9636634,105.882739 C38.5584927,105.882739 39.0208341,104.990476 38.8545415,104.365719 C38.5991268,104.399759 38.303761,104.41867 37.9636634,104.41867 C37.6232244,104.41867 37.3282,104.399759 37.0731268,104.365719 C36.9061512,104.990476 37.3691756,105.882739 37.9636634,105.882739" id="Fill-19" fill="#FF8096"></path>
                <polygon id="Fill-21" fill="#FF8096" points="24.573722 103.96243 45.1895756 103.96243 45.0567463 104.600252 24.7079171 104.600252"></polygon>
                <g id="Group-25">
                    <mask id="mask-2" fill="white">
                        <use xlink:href="#path-1"></use>
                    </mask>
                    <g id="Clip-24"></g>
                    <path d="M25.4402195,87.2281032 L7.02953659,55.8314269 C-8.12631707,29.9832894 1.25539024,0.156240688 34.8816829,0.156240688 C68.5165122,0.156240688 77.8869512,29.9908539 62.7293902,55.8396791 L44.3245122,87.2281032 L25.4402195,87.2281032 Z" id="Fill-23" fill="#FFDFE3" mask="url(#mask-2)"></path>
                </g>
                <g id="Group-28" transform="translate(3.756098, 0.000000)">
                    <mask id="mask-4" fill="white">
                        <use xlink:href="#path-3"></use>
                    </mask>
                    <g id="Clip-27"></g>
                    <path d="M22.7265073,87.2281032 L6.34958049,55.8314269 C-7.13241951,29.9832894 1.21397073,0.156240688 31.1258244,0.156240688 C61.0465561,0.156240688 69.3813366,29.9908539 55.8979707,55.8396791 L39.5251415,87.2281032 L22.7265073,87.2281032 Z" id="Fill-26" fill="#FF8096" mask="url(#mask-4)"></path>
                </g>
                <g id="Group-31" transform="translate(9.219512, 0.000000)">
                    <mask id="mask-6" fill="white">
                        <use xlink:href="#path-5"></use>
                    </mask>
                    <g id="Clip-30"></g>
                    <path d="M18.7760146,87.2281032 L5.35069756,55.8314269 C-5.70247317,29.9832894 1.13977073,0.156240688 25.6623073,0.156240688 C50.1916732,0.156240688 57.0246976,29.9908539 45.9711854,55.8396791 L32.5482585,87.2281032 L18.7760146,87.2281032 Z" id="Fill-29" fill="#FFDFE3" mask="url(#mask-6)"></path>
                </g>
                <g id="Group-34" transform="translate(16.048780, 0.000000)">
                    <mask id="mask-8" fill="white">
                        <use xlink:href="#path-7"></use>
                    </mask>
                    <g id="Clip-33"></g>
                    <path d="M13.7630927,87.2281032 L3.87806829,55.8314269 C-4.25934634,29.9832894 0.778263415,0.156240688 18.8331415,0.156240688 C36.8931415,0.156240688 41.923922,29.9908539 33.7858244,55.8396791 L23.9021659,87.2281032 L13.7630927,87.2281032 Z" id="Fill-32" fill="#FF8096" mask="url(#mask-8)"></path>
                </g>
                <g id="Group-37" transform="translate(26.975610, 0.000000)">
                    <mask id="mask-10" fill="white">
                        <use xlink:href="#path-9"></use>
                    </mask>
                    <g id="Clip-36"></g>
                    <path d="M5.79989268,87.2281032 L1.69516098,55.8314269 C-1.6846439,29.9832894 0.407502439,0.156240688 7.90603902,0.156240688 C15.4059415,0.156240688 17.4956976,29.9908539 14.1158927,55.8396791 L10.0115024,87.2281032 L5.79989268,87.2281032 Z" id="Fill-35" fill="#FFDFE3" mask="url(#mask-10)"></path>
                </g>
                <polygon id="Fill-38" fill="#468E65" points="25.4402195 87.2281032 17.7241707 74.0700516 52.039878 74.0700516 44.3245122 87.2281032"></polygon>
                <path d="M24.003,80.8126762 L22.8297317,74.0703266 L22.537439,74.0703266 L24.003,82.9018453 L24.003,80.8126762 Z M18.243878,74.0703266 L24.003,98.0208138 L24.003,100.086602 L17.9420244,74.0703266 L18.243878,74.0703266 Z M38.8327561,74.0703266 L37.4505122,104.181043 L36.9123659,104.157662 L38.5503659,74.0703266 L38.8327561,74.0703266 Z M31.2126585,74.0703266 L32.8513415,104.157662 L32.3125122,104.181043 L30.9299268,74.0703266 L31.2126585,74.0703266 Z M24.003,82.9018453 L27.5391951,104.207175 L28.058561,104.130842 L24.003,80.8126762 L24.003,82.9018453 Z M45.7596829,98.0208138 L44.2937805,104.117777 L44.7967561,104.220585 L45.7596829,100.087977 L45.7596829,98.0208138 Z M45.7596829,80.8143954 L45.7596829,82.9018453 L42.2234878,104.207175 L41.703439,104.130842 L45.7596829,80.8143954 Z M24.003,98.0208138 L25.4689024,104.117777 L24.9659268,104.220585 L24.003,100.086602 L24.003,98.0208138 Z M45.7596829,82.9018453 L47.2259268,74.0703266 L46.9329512,74.0703266 L45.7596829,80.8143954 L45.7596829,82.9018453 Z M45.7596829,100.087977 L45.7596829,98.0208138 L51.5184634,74.0703266 L51.821,74.0703266 L45.7596829,100.087977 Z" id="Fill-40" fill="#FFDFE3"></path>
                <path d="M17.7016,74.0349456 L52.0603317,74.0349456 C52.0248195,74.2484699 51.9876,74.4606189 51.9496976,74.6737994 L17.8125756,74.6737994 C17.7746732,74.4606189 17.738478,74.2484699 17.7016,74.0349456" id="Fill-42" fill="#FFDFE3"></path>
                <path d="M46.7109659,94.0686533 L44.3316488,103.962292 L43.5216976,103.962292 L42.2644293,103.962292 L43.5216976,96.3864756 L45.3253073,85.5221777 L46.7109659,83.1586246 L51.1557951,75.5769628 L46.7109659,94.0686533 Z M41.1201854,103.962292 L37.460722,103.962292 L38.2286732,87.2279656 L39.9510146,87.2279656 L41.1201854,87.2279656 L41.7676,87.2279656 L43.2813073,87.2279656 L43.5216976,87.2279656 L44.324478,87.2279656 L44.7789659,86.453639 L43.5216976,93.68149 L41.7334537,103.962292 L41.1201854,103.962292 Z M46.7109659,1.58372493 C45.6807707,1.31484241 44.6195024,1.08068768 43.5216976,0.88469914 C42.738722,0.746131805 41.9379902,0.626819484 41.1201854,0.526418338 C39.1427707,0.284355301 37.0642829,0.156446991 34.8816488,0.156446991 L34.8816488,74.0348424 L34.8816488,74.0702579 L34.8816488,74.6740401 L34.8816488,87.2279656 L36.9871122,87.2279656 L37.8336,87.2279656 L36.9218927,103.962292 L34.8816488,103.962292 L34.8816488,104.600458 L34.8816488,105.216619 L34.8816488,105.854785 L34.8816488,107.824986 L34.8816488,109.719198 L34.8816488,120 L41.1201854,120 L41.7006732,120 L43.5216976,110.81639 L43.6077463,110.383496 C43.7678927,110.407221 43.9399902,110.420287 44.1264293,110.420287 C47.4058439,110.420287 46.5754049,106.325501 44.7782829,105.485158 C44.955161,105.235874 45.0616976,104.904413 45.0514537,104.600458 L45.0565756,104.600458 L45.1897463,103.962292 L44.8810634,103.962292 L44.8575024,103.962292 L46.7109659,96.0082521 L51.6758439,74.6908883 L51.6860878,74.6740401 L51.9496976,74.6740401 C51.9876,74.4608596 52.0248195,74.2483668 52.0603317,74.0348424 L62.7293561,55.8395415 C75.9272585,33.334212 70.5263317,7.81100287 46.7109659,1.58372493 Z" id="Fill-44" fill="#1A1A1A" opacity="0.10046968"></path>
            </g>
        </g>
    </g>
</svg>