<?xml version="1.0" encoding="UTF-8"?>
<svg width="122px" height="191px" viewBox="0 0 122 191" version="1.1" xmlns="http://www.w3.org/2000/svg" xmlns:xlink="http://www.w3.org/1999/xlink">
    <!-- Generator: Sketch 52.3 (67297) - http://www.bohemiancoding.com/sketch -->
    <title>Group 38</title>
    <desc>Created with Sketch.</desc>
    <defs>
        <polygon id="path-1" points="0 0.873477739 122.0406 0.873477739 122.0406 116.471699 0 116.471699"></polygon>
    </defs>
    <g id="web" stroke="none" stroke-width="1" fill="none" fill-rule="evenodd">
        <g id="Group-38" transform="translate(-1.000000, 0.000000)">
            <path d="M105,180.005113 C105,186.075207 87.0897886,191 64.99934,191 C42.9062515,191 25,186.075207 25,180.005113 C25,173.930929 42.9062515,169 64.99934,169 C87.0897886,169 105,173.930929 105,180.005113" id="Fill-6" fill="#000000" opacity="0.097265625"></path>
            <g id="Group-7" transform="translate(19.000000, 152.000000)">
                <path d="M67.7245794,26.788818 C68.67183,29.6740324 67.0967083,32.7769988 64.2114048,33.7242201 C61.3261013,34.6714414 58.223039,33.0999976 57.2757884,30.2147833 C56.3285378,27.3295689 57.9000302,24.2229733 60.7853337,23.275752 C63.6742666,22.3285307 66.7773288,23.8999745 67.7245794,26.788818" id="Fill-1" fill="#1E1A1E"></path>
                <path d="M22.7245794,17.7853337 C23.67183,20.6706372 22.0967083,23.7773288 19.2114048,24.7245794 C16.3261013,25.67183 13.223039,24.0967083 12.2757884,21.2114048 C11.3285378,18.3261013 12.9000302,15.223039 15.7853337,14.2757884 C18.6706372,13.3285378 21.7773288,14.9000302 22.7245794,17.7853337" id="Fill-3" fill="#1E1A1E"></path>
                <path d="M2.85227735,2.77144449 C-2.48226464,7.8453242 0.0373189056,16.2555486 7.32560576,17.6948241 L67.5500581,29.5835866 C76.2938671,31.3141854 85.4042257,27.544324 90.1231067,20.2508387 C95.0555118,12.6278807 89.7352047,3.07317213 80.3543824,2.70901809 L10.2544437,0.00734188215 C7.50710118,-0.0967021309 4.80958095,0.909056662 2.85227735,2.77144449" id="Fill-5" fill="#F9AD58"></path>
            </g>
            <g id="Group" transform="translate(61.500000, 84.500000) scale(-1, 1) translate(-61.500000, -84.500000) ">
                <path d="M85,25.5662084 C85,25.5662084 86.4708944,8.85673687 97.0539338,9.00092786 C97.0539338,9.00092786 109.464027,9.67421636 109.953169,18.2327262 C109.953169,18.2327262 115.022667,32.110811 102.849628,35.5821197 L93.2552795,38 L85,25.5662084 Z" id="Fill-1" fill="#160403"></path>
                <path d="M37.3724503,34.6230953 C37.3724503,34.6230953 42.9596916,10.2890117 20.7913734,13.2498261 C20.7913734,13.2498261 13.6762069,14.0949381 12.7659784,21.3654732 C12.7659784,21.3654732 6.420019,37.219214 30.2596147,42 L37.3724503,34.6230953 Z" id="Fill-3" fill="#160403"></path>
                <path d="M25.9531526,19.2694821 C25.9531526,19.2694821 29.3593522,22.0799519 32,28.4415301 L23.1461294,36 C23.1461294,36 17.6973343,31.66745 18.0132227,27.9630207 C18.3336078,24.2561186 19.49936,17.5780071 25.9531526,19.2694821" id="Fill-5" fill="#403A39"></path>
                <path d="M90,23.4594659 C90,23.4594659 94.0025778,15.3225044 99.6567384,17.3138087 C105.307437,19.3109152 104.374887,32.2149385 92.3636907,30.9071297 L90,23.4594659 Z" id="Fill-7" fill="#403A39"></path>
                <g id="Group-11" transform="translate(0.000000, 14.000000)">
                    <mask id="mask-2" fill="white">
                        <use xlink:href="#path-1"></use>
                    </mask>
                    <g id="Clip-10"></g>
                    <path d="M12.5983629,99.095958 C-10.2339514,78.306228 0.622848571,49.540608 24.0045629,15.073578 C29.7808771,6.558318 78.4209343,-11.273652 98.6561914,13.533858 C109.894877,27.304758 115.144049,34.855938 119.11402,49.580388 C122.921163,63.705798 125.331963,81.981198 111.074506,94.848858 C109.461449,96.297318 59.5609343,139.866948 12.5983629,99.095958" id="Fill-9" fill="#160403" mask="url(#mask-2)"></path>
                </g>
                <path d="M83.6905439,62.3513795 C84.6934286,65.8904239 83.1777908,69.269712 80.3136627,69.8976427 C77.447021,70.5289018 74.3051516,68.1747161 73.3098073,64.6456565 C72.3056659,61.1132687 73.8238172,57.7361994 76.6879453,57.1027215 C79.559614,56.4703531 82.6964564,58.8234293 83.6905439,62.3513795" id="Fill-12" fill="#FEFEFE"></path>
                <path d="M79.9114787,61.2703063 C80.3079363,62.880733 79.3360144,64.5043796 77.7297604,64.9105917 C76.122305,65.309593 74.4956274,64.3361261 74.0883573,62.728103 C73.6918997,61.1224835 74.6662243,59.4928278 76.2772839,59.0890193 C77.8811351,58.6912199 79.5102155,59.663485 79.9114787,61.2703063" id="Fill-14" fill="#160403"></path>
                <path d="M31.5560249,67.8924916 C30.3644972,71.3993221 27.1337193,73.6162197 24.3423174,72.8478441 C21.5422272,72.0761181 20.2514055,68.6106101 21.4441744,65.1026628 C22.641908,61.6002996 25.8726858,59.3822852 28.6665701,60.1528944 C31.4629368,60.92127 32.7463115,64.3890116 31.5560249,67.8924916" id="Fill-16" fill="#FEFEFE"></path>
                <path d="M29.8681968,65.882776 C29.3822492,67.4669305 27.7016804,68.3507221 26.1223506,67.8683291 C24.5358746,67.3847451 23.6461617,65.705303 24.1333004,64.1211484 C24.6132927,62.5369938 26.2926705,61.6460557 27.8755734,62.1332131 C29.4584763,62.6144149 30.3529533,64.2902837 29.8681968,65.882776" id="Fill-18" fill="#160403"></path>
                <path d="M50.5315525,65.0104846 C50.5315525,65.0104846 72.7689772,64.0452432 73,80.6375911 C73,80.6375911 69.6602397,94.9131262 51.2186972,93.9537206 C51.2186972,93.9537206 29.3994829,90.7183528 32.2582419,76.7299391 C32.2582419,76.7299391 36.5410491,65.3664685 50.5315525,65.0104846" id="Fill-20" fill="#FEFEFE"></path>
                <path d="M44.6276115,71.6745848 C43.6949405,72.179921 42.767888,73.4324988 43.0521841,74.211516 C43.3420987,75.0028336 46.7019618,78 48.5560669,78 C50.4933258,78 55.7792108,75.51842 56.5669246,74.8665055 C57.3478961,74.211516 56.9928069,71.2163996 56.1365474,71.0195953 C55.2791643,70.825866 51.6203969,72.1389201 48.7718173,71.8703641 C46.7019618,71.6745848 44.9815771,71.4808555 44.6276115,71.6745848" id="Fill-22" fill="#160403"></path>
                <path d="M45.4104402,71.2236803 C44.6021185,71.7379603 43.798232,73.0022861 44.0454964,73.7898988 C44.2938696,74.5904658 47.3597263,78 48.9708257,78 C50.6506712,78 54.9473058,75.5568459 55.6281145,74.8948885 C56.3089232,74.232931 55.9784981,70.9386888 55.2533371,71.0008688 C54.208839,71.0902524 51.5488064,71.7755274 49.0783801,71.5047855 C47.2787832,71.3065869 45.7197979,71.0293679 45.4104402,71.2236803" id="Fill-24" fill="#2A2120"></path>
                <path d="M45.3134174,72.0331094 C44.5614356,72.3802825 43.8106511,73.2239133 44.0429513,73.753931 C44.2716591,74.2885776 47.3107195,77 48.8158806,77 C50.3797155,77 54.0234747,75.4296201 54.6593065,74.9863957 C55.2927434,74.5420141 54.9658468,72.1256889 54.3084614,72.3733391 C52.9757293,72.8755829 51.1209205,72.4936924 48.8158806,72.3131624 C47.1346983,72.1823938 45.6031939,71.9046553 45.3134174,72.0331094" id="Fill-26" fill="#403A39"></path>
                <path d="M44.7808691,142.000297 C42.4732776,141.916049 45.8026852,159.770816 48.0082124,165.141367 C46.8960635,165.118822 45.671292,165.720428 45.7029672,166.926014 C46.6051216,167.140788 48.8352851,166.86431 49.6142585,166.401536 C51.2625381,165.400046 50.2184322,164.129198 50.9633842,162.42524 C52.1799436,159.626051 55.070592,157.309808 57.8744271,156.558691 C59.4053915,156.149314 60.599661,156.652432 61.0595369,156.402059 C63.5571791,155.036283 64.7925089,152.202683 63.449249,149.113963 C61.2366829,144.011584 48.9127131,142.147436 44.7808691,142.000297" id="Fill-28" fill="#160403"></path>
                <path d="M73.788982,158.362368 C73.2258858,161.157411 72.8284743,164.521505 71.5841013,167.106143 C72.6326651,167.161136 73.7345262,167.823434 73.6244559,168.969904 C72.7763358,169.118144 70.6977462,168.696138 69.9990898,168.200012 C68.5206727,167.124076 69.4035519,167.519781 69.007299,164.308709 C68.6736124,161.602132 65.1583165,158.721013 62.8352551,157.367725 C61.5051431,156.599028 59.3813668,156.223646 57.7754999,156.088556 C55.9842516,155.936729 57.8264798,155.758602 58.0500962,154.106442 C58.0999175,153.705955 57.7963553,153.386761 57.832273,153.013769 C57.9168533,152.161389 57.772024,151.540932 58.1972427,150.706484 C60.1008786,147.002872 64.3820316,148.521138 67.4848538,147.617351 C69.2888471,147.090143 77.6055227,138.388209 75.7250596,150.033426 C75.1190939,153.781271 74.169014,156.471111 73.788982,158.362368" id="Fill-30" fill="#160403"></path>
                <path d="M79.8625732,139 C79.8625732,139.00738 79.8579089,139.01476 79.8579089,139.01476 C81.4367876,139.675793 82.6203636,142.342064 81.6466828,143.763233 C81.5918769,143.847575 81.4869292,143.90556 81.387812,143.97936 C81.2642071,144.59295 80.9062191,145.183346 80.3569932,145.148555 C80.1296066,145.13485 79.8777323,145.082136 79.6433493,144.999902 C79.2632057,145.673586 78.4562751,146.377844 77.5420647,145.765308 C77.3659859,145.646175 77.1642532,145.451133 77.0698004,145.249766 C76.5438962,145.554453 75.9282034,145.673586 75.6215232,145.301426 C75.454773,145.089516 75.3066803,144.820674 75.1982344,144.533911 C75.1329337,144.499119 75.0653007,144.464328 75,144.422157 C75.0128269,144.250309 75.7066473,139.722181 79.8625732,139" id="Fill-32" fill="#160403"></path>
                <path d="M35,135.80493 L34.9944914,135.806127 C34.8105025,137.432511 32.6852665,139.361672 31.1274211,138.941612 C31.0348758,138.920071 30.9522461,138.841085 30.8597008,138.783641 C30.2636652,138.872201 29.6268656,138.734575 29.5133874,138.234333 C29.4671148,138.024902 29.4450802,137.779568 29.458301,137.546202 C28.7388716,137.420543 27.6922287,136.447585 28.1263101,135.789373 C28.2342796,135.625418 28.3786061,135.465053 28.5438655,135.313066 C28.1174963,134.94327 27.8387587,134.429864 28.1031738,134.027756 C28.2452969,133.807554 28.4557272,133.589746 28.6892938,133.409037 C28.7025146,133.331248 29.6489002,133.176867 29.6610192,133.100275 C29.8306855,133.050012 33.2284191,132.303239 35,135.80493" id="Fill-34" fill="#160403"></path>
                <path d="M48.5430367,135.453013 C48.2867776,135.740716 47.9915482,135.986371 47.6431775,136.175591 C45.4761938,137.362921 43.0517701,138.46726 40.6509647,139.188731 C37.9502063,140.00094 35.0853004,140.03303 32.2747166,139.986555 C30.8989477,139.964424 29.5066459,139.865941 28.1922847,139.45541 C27.829743,139.342542 27.385718,139.183199 27.1637055,138.868938 C26.9783014,138.605579 26.941693,138.248162 27.098755,137.964885 C27.2369224,137.713698 27.7706971,137.616321 27.8143911,137.439273 C27.8356476,137.354069 27.6254443,137.172594 27.5923786,137.092923 C27.5085334,136.887104 27.5356945,136.668007 27.5368754,136.450016 C27.5380564,136.051657 27.4731059,135.529365 27.6856711,135.16531 C28.0493937,134.539001 28.4213827,134.865434 28.4213827,134.865434 C29.175989,135.522726 31.3075452,134.756992 32.1731577,134.576624 C33.4556342,134.308839 34.6944167,134.238019 35.9733504,133.879497 C38.2820442,133.232164 40.532873,132.409996 42.7211132,131.468321 C44.7109593,130.61185 46.7692985,129.579437 48.5831879,128.42973 C49.3271659,127.958339 50.0286309,127.896372 50.4821033,128.138707 C50.9804505,128.405386 51.1800256,129.040546 50.8068556,129.903657 C50.1065715,131.515902 49.8302368,134.005643 48.5430367,135.453013" id="Fill-36" fill="#160403"></path>
                <path d="M72,125 C72.5853597,125.287473 78.6978898,129.640316 82.9512585,141.688162 C83.4004024,142.94897 80.6822225,146.708758 77.4056806,145.882556 C75.7232315,145.461532 72,125 72,125" id="Fill-38" fill="#160403"></path>
                <path d="M49.7054073,124 C49.3242311,125.08933 42.1047768,137.634237 44.4776845,147.164458 C45.0030895,149.273829 47.9082703,155.817763 58.3763074,155.998371 C61.3181177,156.050623 64.5735684,154.837479 67.0884156,153.528919 C72.7224974,150.600563 76.4793151,149.203403 75.9504761,142.077887 C75.600206,137.280971 73.8236731,132.633994 72.3665041,128.150587 C72.1272673,127.415659 71.4851056,125.460771 70.5934052,124.224909 C57.4170712,131.344745 49.7054073,124 49.7054073,124" id="Fill-40" fill="#160403"></path>
                <path d="M69,133 C67.1101765,135.000347 59.2047941,140.500043 55.4843463,138.094084 C54.9913984,137.774129 52.5164126,135.965251 51,134.147554 C51.5931314,136.440144 52.1065714,139.978542 56.4326735,142.635175 C57.7339194,143.432542 59.4837139,143.207062 65.2066915,139.024976 C66.7470116,137.756494 69,133 69,133" id="Fill-42" fill="#FEFEFE"></path>
                <path d="M79.1540946,143.56543 C79.4591223,144.090172 80.01874,144.102799 80.3802098,143.79974 C80.6996482,143.651016 80.9566401,143.3676 80.9962696,142.93546 C81.0395019,142.483677 80.6996482,142.131511 80.3561919,142.036103 C79.5816137,141.814421 78.6208966,142.649237 79.1540946,143.56543" id="Fill-44" fill="#FEFEFE"></path>
                <path d="M78.0151946,145.438828 C77.9531946,145.642828 78.0871946,145.840828 78.3031946,145.827828 C78.4981946,145.811828 78.6911946,145.675828 78.8021946,145.513828 C78.8161946,145.489828 78.8281946,145.467828 78.8381946,145.438828 C78.8661946,145.391828 78.8871946,145.333828 78.8831946,145.277828 C78.8721946,145.050828 78.6461946,144.953828 78.4481946,145.020828 C78.2611946,145.080828 78.0771946,145.251828 78.0151946,145.438828" id="Fill-46" fill="#FEFEFE"></path>
                <path d="M80.0808376,145.645518 L80.0808376,145.650518 C80.0878376,145.662518 80.0938376,145.670518 80.1078376,145.682518 C80.1298376,145.731518 80.1848376,145.771518 80.2438376,145.768518 C80.4198376,145.864518 80.6858376,145.655518 80.6858376,145.457518 C80.6858376,145.415518 80.7048376,145.390518 80.6878376,145.354518 C80.6918376,145.339518 80.6688376,145.201518 80.6398376,145.174518 C80.6188376,145.130518 80.5938376,145.065518 80.5418376,145.060518 C80.4288376,144.995518 80.3138376,144.965518 80.1968376,145.060518 C80.0498376,145.178518 79.9048376,145.504518 80.0808376,145.645518" id="Fill-48" fill="#FEFEFE"></path>
                <path d="M80.023465,144.587395 C80.072465,144.708395 80.221465,144.752395 80.353465,144.739395 C80.382465,144.745395 80.417465,144.736395 80.459465,144.724395 C80.471465,144.714395 80.486465,144.708395 80.505465,144.694395 C80.505465,144.694395 80.507465,144.694395 80.511465,144.691395 L80.515465,144.689395 C80.526465,144.684395 80.533465,144.679395 80.540465,144.667395 C80.554465,144.659395 80.569465,144.648395 80.585465,144.641395 C80.616465,144.621395 80.647465,144.597395 80.676465,144.574395 C80.736465,144.517395 80.765465,144.439395 80.765465,144.355395 C80.787465,144.272395 80.782465,144.183395 80.730465,144.111395 C80.660465,144.012395 80.567465,143.987395 80.475465,144.005395 C80.211465,143.998395 79.913465,144.341395 80.023465,144.587395" id="Fill-50" fill="#FEFEFE"></path>
                <path d="M32.0681809,137.999815 C31.4278306,138.010582 31.03666,137.549997 31.03666,137.101376 C30.9475678,136.753246 31.0102108,136.40392 31.3429145,136.155085 C31.690931,135.888305 32.2115637,135.998367 32.534523,136.238828 C33.2305559,136.76521 33.2013225,137.986655 32.0681809,137.999815" id="Fill-52" fill="#FEFEFE"></path>
                <path d="M31.5687599,138.86506 C31.4427599,139.03706 31.1927599,139.04106 31.0827599,138.85306 C30.9727599,138.67706 30.9837599,138.43806 31.0497599,138.25606 C31.0617599,138.22706 31.0777599,138.20606 31.0917599,138.18206 C31.1127599,138.12906 31.1467599,138.07806 31.1997599,138.04706 C31.3867599,137.92406 31.6057599,138.05906 31.6687599,138.25706 C31.7187599,138.45206 31.6917599,138.70306 31.5687599,138.86506" id="Fill-54" fill="#FEFEFE"></path>
                <path d="M30.3279285,137.744053 L30.3259285,137.744053 C30.3099285,137.747053 30.2999285,137.749053 30.2849285,137.743053 C30.2239285,137.759053 30.1569285,137.735053 30.1329285,137.678053 C29.9429285,137.591053 29.9689285,137.241053 30.1329285,137.132053 C30.1639285,137.098053 30.2069285,137.089053 30.2409285,137.082053 C30.2479285,137.075053 30.2589285,137.060053 30.2649285,137.054053 C30.3029285,137.003053 30.3509285,136.990053 30.3959285,137.007053 C30.4479285,136.990053 30.4909285,137.004053 30.5279285,137.050053 C30.6539285,137.056053 30.7589285,137.147053 30.7459285,137.309053 C30.7299285,137.498053 30.5479285,137.811053 30.3279285,137.744053" id="Fill-56" fill="#FEFEFE"></path>
                <path d="M30.3793557,136.870237 C30.2453557,136.892237 30.1253557,136.797237 30.0543557,136.684237 C30.0413557,136.661237 30.0223557,136.630237 30.0143557,136.585237 C30.0053557,136.567237 30.0083557,136.548237 30.0053557,136.529237 C30.0053557,136.526237 30.0043557,136.523237 30.0033557,136.519237 L30.0073557,136.514237 C30.0053557,136.505237 30.0033557,136.496237 30.0073557,136.483237 C30.0083557,136.465237 30.0043557,136.447237 30.0063557,136.427237 C29.9993557,136.392237 29.9973557,136.350237 30.0043557,136.314237 C30.0163557,136.233237 30.0673557,136.160237 30.1353557,136.111237 C30.1933557,136.043237 30.2713557,135.996237 30.3633557,136.000237 C30.4873557,135.999237 30.5583557,136.061237 30.5963557,136.143237 C30.7603557,136.367237 30.6483557,136.815237 30.3793557,136.870237" id="Fill-58" fill="#FEFEFE"></path>
                <path d="M78.9709045,62.7622669 C79.1020504,63.2955362 78.7776985,63.8405258 78.2425764,63.9694481 C77.7051123,64.1042305 77.1629645,63.7807528 77.0294768,63.2416233 C76.8971599,62.7060099 77.2226828,62.1645363 77.7578049,62.030926 C78.2952689,61.8949716 78.8350748,62.2196213 78.9709045,62.7622669" id="Fill-60" fill="#FEFEFE"></path>
                <path d="M27.9708382,63.7617264 C28.1019796,64.2948882 27.7788095,64.8409396 27.2425345,64.9698359 C26.7050886,65.1034193 26.1629591,64.7811786 26.0294758,64.2433297 C25.8971634,63.7066526 26.2226753,63.1629447 26.7577794,63.0305331 C27.2952253,62.8957779 27.835013,63.2191903 27.9708382,63.7617264" id="Fill-62" fill="#FEFEFE"></path>
                <path d="M49.583034,15.1625987 C49.583034,15.1625987 42.0935485,16.6010361 40.4732617,19.8832035 C38.8541724,23.165371 41.0229377,24.0579518 52.7409766,24.8685371 C68.4061444,25.9532219 81.1037803,20.0706221 81.9684123,16.5998648 C83.1719513,11.7586093 49.583034,15.1625987 49.583034,15.1625987" id="Fill-64" fill="#009A53"></path>
                <path d="M49.583034,15.1626967 C49.583034,15.1626967 42.0935485,16.6000838 40.4732617,19.8825278 C38.8541724,23.1661432 41.0229377,24.0587993 52.7409766,24.8682814 C68.4061444,25.9542291 81.1037803,20.0699622 81.9684123,16.6000838 C83.1719513,11.7584204 49.583034,15.1626967 49.583034,15.1626967" id="Fill-66" fill="#8EC31F"></path>
                <path d="M49,16.358088 C49,16.358088 51.5162291,3.26768034 60.3852577,1.59380127 C68.7983329,0.0040971611 71.9911379,1.78620116 75.7179628,4.80447448 C80.028589,8.29412752 80.4687028,13.1462123 80.9970657,16.5396654 C81.2086371,17.8996921 69.9353878,18.2965169 61.3412889,17.7854547 C55.6130211,17.4451474 52.8037599,16.9485152 49,16.358088" id="Fill-68" fill="#009D96"></path>
                <path d="M66.3222142,2 C65.1696231,2 64.7715745,1.92687895 64.4107064,1.71551342 C63.881433,1.40474897 63.6091415,0.564999436 65.2232066,0.111420436 C67.5994689,-0.556951642 69.5055091,2 66.3222142,2" id="Fill-70" fill="#8EC31F"></path>
                <path d="M65.2105263,7.31152155 C65.5287638,7.21301671 65.9461444,6.96306069 66.2692778,7.21301671 C66.498164,7.56024626 67.126071,7.67722076 66.9534884,8.15989446 C67.2766218,8.56622691 67.6389229,9.03043096 68.0563035,9.34195251 C68.1517748,9.36042216 68.1909425,9.30008795 68.2239902,9.24221636 L68.1126071,9.18557608 C68.244798,9.06860158 68.5667075,9.26314864 68.7784578,9.14617414 C68.9106487,9.14617414 69.0979192,9.18557608 69.1933905,9.32225154 C69.2913097,9.47616535 69.3133415,9.6707124 69.4418605,9.82462621 L69.5201958,9.78522427 C69.6107711,9.95883905 69.6536108,10.1127529 69.7662179,10.267898 C70.4492044,10.4993843 70.7747858,11.3305189 71.380661,11.6789798 C72.121175,12.239226 72.8984088,12.8019349 73.7760098,13.1306948 C73.7343941,13.2452067 73.8665851,13.2452067 73.9265606,13.2883026 L73.9265606,13.3030783 C73.8115055,13.2452067 73.6572827,13.1885664 73.5458996,13.226737 C73.6572827,13.4003518 73.9473684,13.3227792 74,13.516095 L73.6988984,13.516095 C73.6988984,13.5751979 73.7760098,13.5751979 73.8115055,13.5948989 C73.6572827,13.535796 73.5067319,13.6527704 73.4112607,13.4594547 C72.7833537,13.1885664 72.2203182,12.8019349 71.6634027,12.4522427 L71.6474908,12.473175 C72.0820073,12.8979771 72.6903305,13.2070361 73.1835985,13.496394 C73.3561812,13.5948989 73.6022032,13.6527704 73.6988984,13.8239226 C73.6413709,13.8473175 73.5458996,13.8473175 73.5250918,13.9211961 L73.3941248,13.8473175 C73.3561812,13.8633245 73.3941248,13.9027265 73.374541,13.9211961 L73.4687882,14 C72.8261934,13.7266491 72.0991432,13.3227792 71.5128519,12.8376429 C71.2264382,12.6443272 70.9412485,12.4904134 70.6560588,12.2798593 C70.620563,12.2798593 70.5630355,12.258927 70.5422277,12.3167986 C70.8678091,12.5692172 71.2093023,12.7243624 71.5312118,12.9546174 C70.9412485,12.6689534 70.2386781,12.239226 69.7662179,11.6592788 C69.5581395,11.4462621 69.253366,11.0005277 68.8922889,11.0793316 C68.7600979,11.1556728 68.5507956,11.1359719 68.3977968,11.2172383 C68.2839657,11.2172383 68.1909425,11.0793316 68.0746634,11.1790677 C67.9791922,11.3908531 67.6731946,11.2172383 67.619339,11.4462621 C67.4283966,11.5238347 67.0869033,11.4659631 67.0330477,11.6986807 L67.0465116,11.794723 C66.6658507,11.969569 66.1554468,11.9092348 65.8922889,12.2798593 C65.8164015,12.3562005 65.6609547,12.258927 65.5862913,12.3562005 C65.6083231,12.3167986 65.5679315,12.2798593 65.5287638,12.2798593 C65.4357405,12.239226 65.376989,12.3352682 65.2986536,12.3562005 C65.2435741,12.258927 65.376989,12.239226 65.3574051,12.1801231 C65.1872705,12.1050132 65.1101591,12.3352682 64.9804162,12.4153034 C64.997552,12.258927 65.1689106,12.239226 65.2264382,12.1050132 C65.1334149,12.0471416 65.0526316,12.1444151 64.9804162,12.1604222 C65.0159119,12.1444151 65.0930233,12.0077397 64.9804162,12.0077397 C65.0734394,11.8525945 65.2839657,11.9092348 65.3390453,11.7368514 L65.1872705,11.7368514 C65.3390453,11.6211082 65.5079559,11.4881266 65.6413709,11.3699208 C65.5862913,11.3699208 65.4724602,11.2172383 65.376989,11.3502199 C65.376989,11.3305189 65.4173807,11.3120493 65.3941248,11.2935796 C65.3219094,11.2172383 65.2264382,11.3502199 65.1334149,11.3502199 C65.1334149,11.3699208 65.1505508,11.2935796 65.0930233,11.2738786 L65.0367197,11.2738786 C65.0930233,11.235708 65.1689106,11.1359719 65.2435741,11.0793316 L65.2105263,11.0411609 C65.4883721,10.8687775 65.7772338,10.6729991 66.0599755,10.5387863 L66.1162791,10.4809147 C66.0440636,10.3836412 65.8922889,10.3836412 65.8164015,10.4809147 C66.0599755,10.4612137 65.8323133,10.192788 66.0832313,10.1509235 C66.1162791,9.94036939 66.3072215,9.78522427 66.4589963,9.68795075 C66.2141983,9.45769569 66.1162791,9.03043096 65.8323133,8.8937555 C65.8164015,8.72260334 65.6413709,8.8937555 65.625459,8.72260334 C65.2839657,8.70167106 64.8812729,8.87651715 64.6536108,8.56622691 C64.4847001,8.51081794 64.2582619,8.52805629 64.0844553,8.54652595 C63.9339045,8.68320141 63.876377,8.87651715 63.7809058,9.03043096 C63.630355,9.14617414 63.5532436,9.34195251 63.4394125,9.51433597 C63.2705018,9.74705365 63.0587515,10.0376429 62.7576499,10.1324538 L62.7576499,10.0930519 C62.5483476,10.3836412 62.0893513,10.267898 61.8249694,10.5757256 L61.8066095,10.4993843 C61.7111383,10.4809147 61.6340269,10.5387863 61.6144431,10.6163588 L61.6144431,10.6557608 C61.4834761,10.6163588 61.3892289,10.7739666 61.3329253,10.8478452 C61.0085679,11.1963061 60.4749082,11.1963061 60.1346389,11.4881266 C60.0954712,11.505365 60.1554468,11.4881266 60.1346389,11.4659631 C59.5067319,11.6026385 59.2031824,12.0865435 58.7858017,12.5495163 C58.6731946,12.7416007 58.4822521,12.8573439 58.3317013,13.0137203 C58.369645,13.1664028 58.1395349,13.226737 58.0660955,13.3030783 C58.1395349,13.1664028 58.3072215,13.0518909 58.3317013,12.8979771 C58.1787026,12.9743184 58.1395349,13.1467018 57.9657283,13.226737 C57.875153,13.1467018 58.0660955,13.0925242 58.004896,13.0137203 L57.7796818,13.1885664 L57.9865361,12.8979771 C57.875153,12.9164468 57.7588739,13.1097625 57.629131,13.1306948 C57.5899633,13.1885664 57.5312118,13.1885664 57.4589963,13.1885664 L57.4589963,13.1664028 C57.5312118,13.1097625 57.6621787,12.9743184 57.7796818,12.8573439 C57.6474908,12.7797713 57.4932681,12.9546174 57.3990208,12.9361478 C57.3623011,12.9164468 57.378213,12.8216359 57.2864137,12.8573439 C57.378213,12.7797713 57.4736842,12.7243624 57.5128519,12.6086192 C57.4381885,12.5876869 57.3427173,12.6443272 57.2668299,12.6849604 C57.2864137,12.5876869 57.4736842,12.528584 57.4173807,12.3746702 C57.1725826,12.3352682 57.2093023,12.5876869 57,12.6443272 C57.2093023,12.3562005 57.5128519,12.1801231 57.7209302,11.8722955 L57.7025704,11.8525945 C58.0991432,11.4093228 58.5948592,11.1359719 59.0917993,10.8478452 C59.4871481,10.6163588 60.0220318,10.4993843 60.3047736,10.1127529 C60.4186047,9.95883905 60.5324357,9.82462621 60.6095471,9.6707124 C60.6682987,9.68795075 60.6829865,9.63131047 60.7013464,9.59190853 C60.9889841,9.41829376 61.2949816,9.30008795 61.6340269,9.30008795 C61.7882497,9.14617414 62.0722154,9.24221636 62.1848225,9.03043096 C62.5838433,8.54652595 62.7380661,7.94934037 63.0771114,7.46543536 C63.1933905,7.31152155 63.3280294,7.05540897 63.5532436,7 C64.124847,7.05540897 64.6719706,7.15514512 65.2105263,7.31152155" id="Fill-72" fill="#FEFEFE"></path>
                <path d="M46.12114,83.437444 C48.7542645,86.7150049 51.1488729,92.1301055 55.8837739,82.7791574 C56.1789673,82.1990581 55.8707854,81.8295601 55.41973,82.079255 C52.773617,83.555986 49.4036899,83.8737795 46.6359572,82.7791574 C46.2226865,82.6139552 45.7810773,83.0162415 46.12114,83.437444" id="Fill-74" fill="#150609"></path>
            </g>
        </g>
    </g>
</svg>