<?xml version="1.0" encoding="utf-8"?>
<!-- Generator: Adobe Illustrator 22.0.1, SVG Export Plug-In . SVG Version: 6.00 Build 0)  -->
<svg version="1.1" xmlns="http://www.w3.org/2000/svg" xmlns:xlink="http://www.w3.org/1999/xlink" x="0px" y="0px"
	 viewBox="0 0 134.1 112.3" style="enable-background:new 0 0 134.1 112.3;" xml:space="preserve">
<style type="text/css">
	.st0{fill:#FCFAEB;}
	.st1{fill:#D3E2D3;}
	.st2{fill:none;stroke:#AB7E67;stroke-linecap:round;stroke-miterlimit:10;}
	.st3{fill:#99B999;}
	.st4{fill:none;stroke:#99B999;stroke-miterlimit:10;}
	.st5{fill:none;stroke:#99B999;stroke-linecap:round;stroke-miterlimit:10;}
	.st6{fill:none;stroke:#AB7E67;stroke-width:2;stroke-linecap:round;stroke-miterlimit:10;}
	.st7{fill:none;stroke:#99B999;stroke-width:0.7087;stroke-miterlimit:10;}
	.st8{fill:#FF9A32;}
	.st9{fill:none;stroke:#54293A;stroke-width:0.25;stroke-miterlimit:10;}
	.st10{fill:#54293A;}
	.st11{fill:#FC6463;}
	.st12{fill:#CD603F;}
	.st13{fill:#FCD9D2;}
	.st14{fill:#E0D0BD;}
	.st15{fill:#002664;}
	.st16{fill:none;}
	.st17{fill:#001C44;}
	.st18{fill:none;stroke:#002664;stroke-linecap:round;stroke-miterlimit:10;}
	.st19{fill:#FFA350;}
	.st20{fill:#603145;}
	.st21{fill:#B7D7B7;}
	.st22{fill:none;stroke:#99B999;stroke-width:2;stroke-miterlimit:10;}
	.st23{fill:none;stroke:#99B999;stroke-width:4;stroke-linecap:round;stroke-miterlimit:10;}
	.st24{fill:none;stroke:#99B999;stroke-width:2;stroke-linecap:round;stroke-miterlimit:10;}
	.st25{fill:#FF8080;}
	.st26{fill:none;stroke:#FCD9D2;stroke-width:0.5;stroke-linecap:round;stroke-miterlimit:10;}
	.st27{fill:#442332;}
	.st28{fill:#663449;}
	.st29{fill:none;stroke:#663449;stroke-width:0.5;stroke-miterlimit:10;}
	.st30{fill:none;stroke:#663449;stroke-width:0.5;stroke-linecap:round;stroke-miterlimit:10;}
	.st31{fill:none;stroke:#663449;stroke-width:0.5;stroke-linecap:round;stroke-miterlimit:10;stroke-dasharray:1.0166,2.0333;}
	.st32{fill:none;stroke:#663449;stroke-width:0.5;stroke-linecap:round;stroke-miterlimit:10;stroke-dasharray:0.93,1.8601;}
	.st33{fill:#FFBD7A;}
	.st34{fill:#FDABAB;}
	.st35{fill:#FFF1E2;}
	.st36{fill:#FC7574;}
	.st37{fill:#FFC78E;}
</style>
<g id="BACKGROUND">
	<rect x="-592.1" y="-281.7" class="st0" width="500" height="500"/>
</g>
<g id="OBJECTS">
	<path class="st1" d="M-466.7,64c48.7-11.8,130.3-46.4,105.4-89.8c-7.6-13.3-24.1-17.8-38.6-22.7c-50-16.6-41-35.6-83-38.2
		c-36.8-2.3-85.6,15.1-94.7,52.9c-8.8,36.7-10.8,125.1,26.5,122.5c11.7-0.8,24.1-9.7,35.3-13.2C-499.8,70.6-483.1,68-466.7,64z"/>
	<path class="st1" d="M-404.3-70.4c7.2,10.3,20.9,13.6,33.4,15c65.9,6.9,33.4,32,99.4,41.5c61,8.8,66.6-24.2,103.3-46.9
		c10.5-6.5,23.6-10.9,19.9-41.9c-4.4-37.3-52.2-43.5-81.6-39.3c-32.8,4.7-46,18.1-103.1,14c-11-0.8-21.2-2.8-32.1-0.2
		C-387.8-122.9-423.4-97.7-404.3-70.4z"/>
	<path class="st1" d="M-234.7,24c-6.8,1.8-13.6,4.2-19.1,8c-6.5,4.5-11,10.8-17.6,15.2c-10.9,7.3-25.8,8.2-39.7,9.7
		c-13.9,1.6-28.8,4.6-36.7,14.5c-2,2.5-3.4,5.4-3.4,8.6c0.1,10.1,16,25.2,49.6,30.6c37.6,6,63.1-0.1,98.1,15.8
		c15.1,6.8,47.5,23.5,79.6-9.3c34.1-34.8,15-61.2-0.9-75.9c-8.8-8.2-19.7-11.2-32.3-14.9C-184.9,18.3-208.4,17-234.7,24z"/>
	<path class="st1" d="M-497.4,116.2c-3.7,3.8-7.2,8.8-6.3,14.1c1.1,6.5,8.7,10.2,15.3,9.8c6.6-0.4,12.6-3.8,18.6-6.6
		c11.2-5.1,23.4-8.1,35.6-8.8c4-0.2,8.2-0.3,12-1.6c3.8-1.4,7.3-4.4,7.9-8.4c0.5-3.6-1.6-7.3-4.4-9.5c-10.1-8-28.3-8.3-40.6-6.8
		C-473.7,100-487.1,105.7-497.4,116.2z"/>
	<path class="st1" d="M-169.7-10.5c-4.1,0.7-8.4,1.9-12.3,0.6c-9.9-3.2-14-23.9,11.4-31.3c31.1-9.1,45.2,10.6,55.5,15.1
		c11.6,5.1,4.3,12.8,0.7,14.3C-121.9-8.7-155.3-13-169.7-10.5z"/>
	<path class="st1" d="M-498.6-108.2c1.4,0.8,3,1.8,3.2,3.4c0.4,2.4-2.2,4.3-4.6,5c-5.3,1.6-11,1.2-16.5,2
		c-5.4,0.8-10.7,2.8-15.2,5.8c-2.9,1.9-5.5,4.3-8.5,6c-3,1.7-6.6,2.8-9.9,2c-15-3.8,3.1-21.2,10.3-23.9
		C-525.9-113-512.3-115.7-498.6-108.2z"/>
	<g>
		<line class="st2" x1="-456.3" y1="81.5" x2="-456.3" y2="111.5"/>
		<line class="st2" x1="-462.6" y1="111.5" x2="-450" y2="111.5"/>
		<path class="st3" d="M-447,50.7c0.1-0.7,0-1.5-0.1-2.2c-0.6-4.1-4-7.4-8.2-7.9c-5.7-0.6-10.4,3.8-10.4,9.3c0,0.2,0,0.5,0,0.7
			c0.2,3.1-0.5,6.2-2.4,8.6c-2.3,2.9-3.6,6.6-3.3,10.6c0.5,7.1,6.2,13,13.3,13.8c9.1,1,16.8-6.1,16.8-15c0-3.5-1.2-6.7-3.2-9.3
			C-446.3,56.8-447.2,53.8-447,50.7z"/>
	</g>
	<g>
		<line class="st2" x1="-464.8" y1="15.5" x2="-464.8" y2="37.3"/>
		<line class="st2" x1="-469.4" y1="37.3" x2="-460.3" y2="37.3"/>
		<path class="st3" d="M-449.6,0.5c-1-1.5-1-3.2-1-2.9c0-3.2-2.3-3.5-2.3-5.8c0.1-3.7-6.6-6.4-5.8-5.3c-1.9-2.7-5.5-3.3-8.1-1.4
			c-1.7,1.2-11.9-1.3-11.4,7.3c-9,4.6-0.6,6.2-2.5,11c-2.1,5.2,2.7,6,2.7,8.2c0,5.9,4.8,8.9,11.8,10c1.4,0.2,2.2-0.7,3.7-0.2
			c2.3,0.7,11.7-0.9,12-10.2c0-0.8-0.7-2.7,0.8-4.7C-448.3,4.8-448.3,2.4-449.6,0.5z M-461.6-4.5c0,0,0.1,0.1,0.1,0.1
			c-0.1,0-0.1,0-0.2-0.1C-461.7-4.5-461.7-4.5-461.6-4.5z"/>
	</g>
	<g>
		<line class="st4" x1="-286.5" y1="-96.7" x2="-289.6" y2="-92.1"/>
		<line class="st4" x1="-291.8" y1="-94.4" x2="-289.6" y2="-92.1"/>
	</g>
	<g>
		<line class="st4" x1="-430.3" y1="-9.9" x2="-433.4" y2="-5.3"/>
		<line class="st4" x1="-435.5" y1="-7.6" x2="-433.4" y2="-5.3"/>
	</g>
	<g>
		<line class="st4" x1="-300.9" y1="-67.8" x2="-304.1" y2="-63.2"/>
		<line class="st4" x1="-306.2" y1="-65.5" x2="-304.1" y2="-63.2"/>
	</g>
	<g>
		<line class="st4" x1="-503.1" y1="100.3" x2="-506.3" y2="104.9"/>
		<line class="st4" x1="-508.4" y1="102.6" x2="-506.3" y2="104.9"/>
	</g>
	<g>
		<line class="st4" x1="-451.6" y1="164.3" x2="-455.4" y2="169.9"/>
		<line class="st4" x1="-458" y1="167.1" x2="-455.4" y2="169.9"/>
	</g>
	<g>
		<line class="st4" x1="-439.6" y1="-37.2" x2="-442.7" y2="-32.6"/>
		<line class="st4" x1="-444.8" y1="-34.9" x2="-442.7" y2="-32.6"/>
	</g>
	<g>
		<line class="st4" x1="-557.4" y1="18.3" x2="-560.5" y2="22.9"/>
		<line class="st4" x1="-562.7" y1="20.5" x2="-560.5" y2="22.9"/>
	</g>
	<g>
		<line class="st4" x1="-146.3" y1="113.1" x2="-150.2" y2="118.8"/>
		<line class="st4" x1="-152.8" y1="115.9" x2="-150.2" y2="118.8"/>
	</g>
	<g>
		<line class="st4" x1="-506.3" y1="21.7" x2="-509.5" y2="26.3"/>
		<line class="st4" x1="-511.6" y1="24" x2="-509.5" y2="26.3"/>
	</g>
	<g>
		<line class="st4" x1="-175.9" y1="-80.1" x2="-179.1" y2="-75.5"/>
		<line class="st4" x1="-181.2" y1="-77.8" x2="-179.1" y2="-75.5"/>
	</g>
	<g>
		<line class="st4" x1="-508.6" y1="-44.6" x2="-511.7" y2="-40"/>
		<line class="st4" x1="-513.8" y1="-42.3" x2="-511.7" y2="-40"/>
	</g>
	<g>
		<line class="st4" x1="-272.7" y1="81.9" x2="-275.8" y2="86.5"/>
		<line class="st4" x1="-278" y1="84.2" x2="-275.8" y2="86.5"/>
	</g>
	<g>
		<line class="st4" x1="-241.8" y1="41.1" x2="-244.9" y2="45.7"/>
		<line class="st4" x1="-247.1" y1="43.4" x2="-244.9" y2="45.7"/>
	</g>
	<g>
		<line class="st4" x1="-382.8" y1="-89.2" x2="-386" y2="-84.6"/>
		<line class="st4" x1="-388.1" y1="-86.9" x2="-386" y2="-84.6"/>
	</g>
	<g>
		<line class="st4" x1="-135.7" y1="71.2" x2="-138.8" y2="75.8"/>
		<line class="st4" x1="-141" y1="73.5" x2="-138.8" y2="75.8"/>
	</g>
	<g>
		<line class="st4" x1="-310.4" y1="75.4" x2="-313.6" y2="80"/>
		<line class="st4" x1="-315.7" y1="77.7" x2="-313.6" y2="80"/>
	</g>
	<g>
		<line class="st4" x1="-154.8" y1="59.2" x2="-157.9" y2="63.8"/>
		<line class="st4" x1="-160.1" y1="61.5" x2="-157.9" y2="63.8"/>
	</g>
	<g>
		<line class="st4" x1="-227.1" y1="-86.6" x2="-230.2" y2="-82"/>
		<line class="st4" x1="-232.3" y1="-84.3" x2="-230.2" y2="-82"/>
	</g>
	<g>
		<line class="st5" x1="-517" y1="-107.4" x2="-520.1" y2="-102.8"/>
		<line class="st5" x1="-522.3" y1="-105.1" x2="-520.1" y2="-102.8"/>
	</g>
	<g>
		<line class="st4" x1="-510.1" y1="42" x2="-513.3" y2="46.6"/>
		<line class="st4" x1="-515.4" y1="44.3" x2="-513.3" y2="46.6"/>
	</g>
	<g>
		<line class="st4" x1="-401.5" y1="1.2" x2="-404.7" y2="5.8"/>
		<line class="st4" x1="-406.8" y1="3.5" x2="-404.7" y2="5.8"/>
	</g>
	<g>
		<line class="st4" x1="-374.1" y1="-21.5" x2="-377.2" y2="-16.9"/>
		<line class="st4" x1="-379.4" y1="-19.2" x2="-377.2" y2="-16.9"/>
	</g>
	<g>
		<line class="st4" x1="-486.8" y1="78.3" x2="-492" y2="86"/>
		<line class="st4" x1="-495.6" y1="82.1" x2="-492" y2="86"/>
	</g>
	<g>
		<line class="st4" x1="-368.9" y1="-116.5" x2="-372" y2="-111.9"/>
		<line class="st4" x1="-374.2" y1="-114.2" x2="-372" y2="-111.9"/>
	</g>
	<g>
		<line class="st4" x1="-285.9" y1="-59.8" x2="-289" y2="-55.2"/>
		<line class="st4" x1="-291.2" y1="-57.6" x2="-289" y2="-55.2"/>
	</g>
	<g>
		<line class="st6" x1="-138.4" y1="28.8" x2="-138.4" y2="42.7"/>
		<line class="st6" x1="-141.3" y1="42.7" x2="-135.5" y2="42.7"/>
		<path class="st3" d="M-120.4,34.1l-11.2-19.4c-0.1-0.2,0-0.4,0.2-0.4h3c1.1,0,1.7-1.2,1.2-2.1l-10.2-17.7c-0.4-0.7-1.5-0.7-1.9,0
			l-10.2,17.7c-0.5,0.9,0.1,2.1,1.2,2.1h3c0.2,0,0.3,0.2,0.2,0.4l-11.2,19.4c-0.4,0.7,0.1,1.7,1,1.7h34
			C-120.5,35.8-120,34.8-120.4,34.1z"/>
	</g>
	<g>
		<line class="st6" x1="-177.8" y1="21.4" x2="-177.8" y2="31.4"/>
		<line class="st6" x1="-179.9" y1="31.4" x2="-175.7" y2="31.4"/>
		<path class="st3" d="M-165,25.2l-8-13.9c-0.1-0.1,0-0.3,0.2-0.3h2.1c0.8,0,1.2-0.8,0.9-1.5L-177.1-3c-0.3-0.5-1.1-0.5-1.4,0
			l-7.3,12.6c-0.4,0.7,0.1,1.5,0.9,1.5h2.1c0.1,0,0.2,0.2,0.2,0.3l-8,13.9c-0.3,0.5,0.1,1.2,0.7,1.2h24.3
			C-165.1,26.4-164.7,25.7-165,25.2z"/>
	</g>
	<g>
		<line class="st6" x1="-161.5" y1="44.5" x2="-161.5" y2="52.9"/>
		<line class="st6" x1="-163.3" y1="52.9" x2="-159.8" y2="52.9"/>
		<path class="st3" d="M-150.6,47.7l-6.8-11.8c-0.1-0.1,0-0.2,0.1-0.2h1.8c0.6,0,1.1-0.7,0.7-1.3l-6.2-10.7c-0.3-0.5-0.9-0.5-1.2,0
			l-6.2,10.7c-0.3,0.6,0.1,1.3,0.7,1.3h1.8c0.1,0,0.2,0.1,0.1,0.2l-6.8,11.8c-0.3,0.5,0.1,1,0.6,1h20.6
			C-150.7,48.7-150.4,48.1-150.6,47.7z"/>
	</g>
	<path class="st7" d="M-401.1-110.4c-4.7,3.7-9.2,8-12,13.4c-2.9,5.5-4,12.3-2,18.2c2,5.8,6.7,10,11.7,12.8
		c18.4,10.3,40.7,4.4,61.3,7.2c18.9,2.6,36.2,12.5,53.4,21.3c17.2,8.8,35.8,16.8,54.8,15.1c18.6-1.7,35.5-12.5,50.2-25
		c15.8-13.5,31-31.4,31.7-53.2c0.3-8.6-1.8-17.4-5.9-24.7c-9-16-27-24.4-44.2-23.4c-8.4,0.5-16.6,2.9-24.7,5.1
		c-24.6,6.7-51.5,14-77,14.1c-21.4,0.2-41.7-2.7-63,2.8C-379.1-123.6-390.8-118.4-401.1-110.4z"/>
	<path class="st7" d="M-499.5-82.5c20.3-4.5,42-2.5,61.2,5.6c16.3,6.8,30.5,17.8,46.1,25.9c9.3,4.9,19.3,8.8,27.5,15.4
		c8.2,6.5,14.7,16.5,13.8,27c-0.4,4.3-2,8.5-4.1,12.3c-7.5,13.9-20.6,23.9-34.8,30.7c-14.2,6.8-29.6,10.7-44.7,15
		c-28.7,8.1-56.9,17.9-84.5,29.3c-9.8,4-19.9,8.3-30.4,7.6c-10.9-0.7-21.2-7.2-26.5-16.7c-3.3-5.8-4.8-12.6-5.1-19.3
		c-0.5-10.8,1.9-21.5,4.3-32.1c2.3-10.4,4.7-20.8,7-31.2c3.7-16.4,7.9-32.1,21.2-43.3C-533.8-68.7-518.4-78.3-499.5-82.5z"/>
	<path class="st7" d="M-298.3,57.9c-19.5,6.6-40.5,8-59.7,15.4c-1.5,0.6-3,1.2-4.1,2.3c-1.6,1.7-2.1,4.2-1.9,6.6
		c0.4,7,5.6,13,11.8,16.1c6.2,3.1,13.3,3.7,20.1,3.9c25.7,0.5,52.1-5.3,76.6,2.4c21.8,6.9,39.5,23.8,61.3,30.3
		c16.1,4.8,33.8,3.6,49-3.5c7.7-3.6,14.9-8.6,20.3-15.2c6.1-7.4,9.9-16.6,12.3-26c2.2-8.8,3.3-18,1.9-27
		c-3.1-19.7-18.4-35.9-36.5-43.5c-18.1-7.6-38.6-7.4-57.8-3.2c-16.9,3.6-34.7,9.4-50,17.6C-269.7,41.9-282.3,52.4-298.3,57.9z"/>
	<g>
		<path class="st3" d="M-469.6,122.9h2.3c-0.3-0.6-0.7-1.1-1.3-1.4C-468.8,122.1-469.2,122.6-469.6,122.9z"/>
		<path class="st3" d="M-475.1,119.5c-0.1,0-0.3,0-0.4,0c1,0.9,1.8,2,2.1,3.4h0.1c0.5-1,1.5-1.8,2.7-1.9c0.7-0.1,1.4,0.1,2,0.5
			c0.3-0.6,0.4-1.2,0.3-1.9c-0.2-2.1-2.1-3.7-4.2-3.5c0,0,0,0,0,0c0,0.1,0,0.2,0,0.2C-472.3,118-473.5,119.4-475.1,119.5z"/>
		<path class="st3" d="M-470.6,121c-1.2,0.1-2.2,0.9-2.7,1.9h3.7c0.5-0.4,0.8-0.9,1.1-1.4C-469.1,121.2-469.8,121-470.6,121z"/>
		<path class="st3" d="M-476,120.3c0-0.3,0-0.5,0-0.8c-0.6-0.1-1.2-0.4-1.6-0.9c-0.5,0.8-1.3,1.4-2.3,1.5c-0.5,0-0.9,0-1.3-0.2
			c0,1.2-0.7,2.3-1.7,2.8c0.1,0.1,0.1,0.2,0.1,0.3h8.2C-475.4,122.3-475.9,121.4-476,120.3z"/>
		<path class="st3" d="M-476,120.3c0.1,1.1,0.6,2,1.4,2.7h1.2c-0.3-1.4-1.1-2.6-2.1-3.4c-0.1,0-0.3,0-0.4-0.1
			C-476,119.7-476,120-476,120.3z"/>
		<path class="st3" d="M-485.5,122.6c-0.5-0.3-0.9-0.7-1.2-1.2c-0.7,0.3-1.2,0.9-1.5,1.6h2.6C-485.6,122.8-485.6,122.7-485.5,122.6z
			"/>
		<path class="st3" d="M-482.9,122.6c-0.3,0.1-0.6,0.3-1,0.3c-0.6,0-1.1-0.1-1.6-0.3c0,0.1-0.1,0.2-0.1,0.3h2.9
			C-482.8,122.8-482.8,122.7-482.9,122.6z"/>
		<path class="st3" d="M-484.9,121.2c0.6-1,1.4-1.8,2.4-2.3c-0.3-0.4-0.5-0.9-0.5-1.5c0-0.1,0-0.1,0-0.2c-0.4-0.2-0.9-0.2-1.3-0.2
			c-1.6,0.1-2.8,1.6-2.7,3.2c0,0.4,0.2,0.8,0.4,1.2c0.3-0.1,0.6-0.3,1-0.3C-485.5,121.1-485.2,121.1-484.9,121.2z"/>
		<path class="st3" d="M-482.9,122.6c1-0.5,1.7-1.6,1.7-2.8c-0.5-0.2-1-0.6-1.3-1c-1,0.5-1.8,1.3-2.4,2.3
			C-484.1,121.3-483.3,121.9-482.9,122.6z"/>
		<path class="st3" d="M-485.5,122.6c0.1-0.5,0.4-1,0.6-1.4c-0.3-0.1-0.5-0.1-0.8-0.1c-0.4,0-0.7,0.1-1,0.3
			C-486.5,121.9-486.1,122.3-485.5,122.6z"/>
		<path class="st3" d="M-482.9,122.6c-0.4-0.8-1.2-1.3-2-1.5c-0.3,0.4-0.5,0.9-0.6,1.4c0.5,0.3,1,0.4,1.6,0.3
			C-483.5,122.9-483.2,122.8-482.9,122.6z"/>
		<path class="st3" d="M-477.5,118.4c0.6,0.2,1.1,0.5,1.6,0.8c0.3-1.7,1.7-3,3.5-3.1c-0.3-1.5-1.6-2.6-3.2-2.5
			c-1,0.1-1.9,0.7-2.3,1.5c0.4,0.5,0.7,1.1,0.8,1.7C-477.1,117.4-477.3,118-477.5,118.4z"/>
		<path class="st3" d="M-475.9,119.2c0.1,0.1,0.3,0.2,0.4,0.3c0.1,0,0.3,0,0.4,0c1.6-0.1,2.8-1.6,2.7-3.2c0-0.1,0-0.2,0-0.2
			C-474.2,116.2-475.6,117.6-475.9,119.2z"/>
		<path class="st3" d="M-476,119.5c0-0.1,0-0.2,0-0.2c-0.5-0.3-1-0.6-1.6-0.8c0,0,0,0.1-0.1,0.1C-477.1,119-476.6,119.3-476,119.5z"
			/>
		<path class="st3" d="M-475.5,119.5c-0.1-0.1-0.3-0.2-0.4-0.3c0,0.1,0,0.2,0,0.2C-475.8,119.5-475.7,119.5-475.5,119.5z"/>
		<path class="st3" d="M-481.6,118.4c0.5-0.2,1-0.3,1.6-0.3c0.8-0.1,1.6,0,2.3,0.2c-0.3-0.4-0.5-0.9-0.6-1.5
			c-0.1-0.6,0.1-1.2,0.4-1.7c-0.6-0.7-1.5-1-2.4-1c-1.6,0.1-2.7,1.5-2.7,3C-482.5,117.5-482,117.9-481.6,118.4z"/>
		<path class="st3" d="M-481.2,119.9c0.4,0.2,0.9,0.2,1.3,0.2c1-0.1,1.9-0.7,2.3-1.5c-0.1-0.1-0.1-0.1-0.2-0.2
			c-0.7-0.2-1.5-0.3-2.3-0.2c-0.6,0-1.1,0.2-1.6,0.3c0.2,0.4,0.4,0.8,0.4,1.3C-481.2,119.8-481.2,119.8-481.2,119.9z"/>
		<path class="st3" d="M-482.5,118.8c0.3-0.2,0.6-0.3,0.9-0.4c-0.3-0.6-0.8-1-1.5-1.2c0,0.1,0,0.1,0,0.2
			C-483,117.9-482.8,118.4-482.5,118.8z"/>
		<path class="st3" d="M-481.2,119.9c0-0.1,0-0.1,0-0.2c0-0.5-0.2-0.9-0.4-1.3c-0.3,0.1-0.6,0.2-0.9,0.4
			C-482.2,119.3-481.8,119.7-481.2,119.9z"/>
		<path class="st3" d="M-477.7,118.3c0.1,0,0.2,0.1,0.3,0.1c0.2-0.5,0.3-1,0.3-1.5c-0.1-0.7-0.3-1.3-0.8-1.7
			c-0.3,0.5-0.4,1.1-0.4,1.7C-478.3,117.4-478,117.9-477.7,118.3z"/>
		<path class="st3" d="M-477.5,118.4c-0.1,0-0.2-0.1-0.3-0.1c0.1,0.1,0.1,0.2,0.2,0.2C-477.5,118.5-477.5,118.5-477.5,118.4z"/>
	</g>
	<text transform="matrix(1 0 0 1 -454.464 -198.3325)" class="st8" style="font-family:'IntroHeadR-Base'; font-size:40px;">LEISURE TIME</text>
	<g>
		<path class="st9" d="M-207.4,53.4c0,0,1.5-12.8-8.1-15.3c-6.8-1.8-13.2-1.1-15.6-10.1c-2.4-9,5.3-25.6,3.3-27"/>
		<g>
			<g>
				<path class="st10" d="M-214.1,22.9c0.1,0,0.1-0.1,0.1-0.1c0-0.1,0-0.2-0.1-0.2c-1-0.2-1-2.1-1-4.5c0-1.8,0-3.9-0.4-5.9
					c-0.6-3.3-3.1-3.6-5.6-3.9c-1.3-0.1-2.6-0.3-3.6-0.9c-2.8-1.6-2.2-8.1-2.2-8.2c0-0.1,0-0.2-0.1-0.2c-0.1,0-0.2,0-0.2,0.1
					c0,0.3-0.7,6.7,2.3,8.4c1.1,0.6,2.4,0.8,3.7,0.9c2.4,0.3,4.7,0.6,5.3,3.6c0.4,2,0.4,4.1,0.4,5.9
					C-215.4,20.8-215.4,22.7-214.1,22.9C-214.1,22.9-214.1,22.9-214.1,22.9z"/>
			</g>
			<g>
				<polygon class="st11" points="-226.9,-42 -212.4,-27.5 -226.9,-27.5 				"/>
			</g>
			<g>
				<polygon class="st12" points="-212.4,-27.5 -226.9,0.2 -226.9,-27.5 				"/>
			</g>
			<g>
				<polygon class="st8" points="-226.9,0.2 -241.4,-27.5 -226.9,-27.5 				"/>
			</g>
			<g>
				<polygon class="st12" points="-226.9,-27.5 -241.4,-27.5 -226.9,-42 				"/>
			</g>
			<g>
				<path class="st11" d="M-226.9,1.5c0,0-2.7-1.8-2.9-1.4c-0.2,0.4-0.5,2.6,0,2.5S-226.9,1.5-226.9,1.5z"/>
			</g>
			<g>
				<path class="st11" d="M-226.9,1.5c0,0,2.7-1.8,2.9-1.4c0.2,0.4,0.5,2.6,0,2.5C-224.5,2.6-226.9,1.5-226.9,1.5z"/>
			</g>
			<g>
				<path class="st11" d="M-226.2,5.6c0,0-3.2-0.6-3.2-0.1c0,0.5,0.5,2.6,1,2.3C-228,7.5-226.2,5.6-226.2,5.6z"/>
			</g>
			<g>
				<path class="st11" d="M-226.2,5.6c0,0,1.8-2.7,2.2-2.4c0.4,0.3,1.5,2.2,1,2.3C-223.6,5.6-226.2,5.6-226.2,5.6z"/>
			</g>
			<g>
				<path class="st11" d="M-223.6,8.1c0,0-3.2,0.2-3.2,0.6c0.1,0.4,1.1,2.4,1.5,2C-224.9,10.4-223.6,8.1-223.6,8.1z"/>
			</g>
			<g>
				<path class="st11" d="M-223.6,8.1c0,0,1.2-3,1.6-2.8c0.4,0.2,2,1.8,1.5,2C-221.1,7.6-223.6,8.1-223.6,8.1z"/>
			</g>
			<g>
				<path class="st11" d="M-219,8.8c0,0-2.8,1.6-2.6,2c0.3,0.4,2.1,1.7,2.3,1.2C-219.1,11.5-219,8.8-219,8.8z"/>
			</g>
			<g>
				<path class="st11" d="M-219,8.8c0,0-0.3-3.2,0.1-3.2c0.5,0,2.6,0.7,2.3,1.2C-216.9,7.2-219,8.8-219,8.8z"/>
			</g>
			<g>
				<path class="st11" d="M-215.7,12.2c0,0-3.2-0.4-3.2,0c0,0.5,0.6,2.6,1.1,2.3C-217.4,14.2-215.7,12.2-215.7,12.2z"/>
			</g>
			<g>
				<path class="st11" d="M-215.7,12.2c0,0,1.7-2.8,2.1-2.5c0.4,0.3,1.6,2.1,1.1,2.3C-213.1,12.2-215.7,12.2-215.7,12.2z"/>
			</g>
		</g>
	</g>
	<g>
		<path class="st10" d="M-461.3-49.7c-0.9-4.5-1.9-9-1.9-9l-9.1,3.4l0.8,1.4l-5.5-0.2l2.7,5.7c2.7,3.8,2.2,8.9-1.1,12.1l-2.7,2.6
			l2,2.2l3.2-3.2c3.3-3.2,5.2-7.4,5.5-11.8l0.8,1.4c1.5,2.7,1.8,6,0.9,9l-1.6,5.1h3.2c0.4-1,0.9-2.1,1.4-3.3
			C-460.8-39.1-460.3-44.5-461.3-49.7z"/>
		<polygon class="st13" points="-479.1,-32.8 -477.1,-30.6 -476.2,-31.5 -478.2,-33.7 		"/>
		<path class="st13" d="M-467.9-29.4l2.6,1c0,0,0.4-1.1,1.1-2.6h-3.2L-467.9-29.4z"/>
		<path class="st13" d="M-469.3-74.7l-0.1-1.3c0-0.1,0.1-0.3,0.2-0.3c0.7-0.3,1.1-1,1.1-1.7l-0.1-1.3l-0.1-1.1c0,0,0.7,0.1,0.7-0.1
			c0.1-0.2-0.8-0.7-0.8-0.7l-0.1-1.8c0-0.2-0.1-0.5-0.2-0.7c-1.4-0.3-3.1-0.3-2.8,1.6c0.1,0.9,0.2,1.9,0.3,2.8
			c-0.2,0.2-0.4,0.6-0.6,1.1c-0.4,0.9-0.9,1.5-1.4,2c0.4,0.1,0.8,0.2,1.2,0.3c0.2,0,0.3,0.1,0.3,0.3l0,1c0,0.2-0.1,0.3-0.3,0.3
			l-0.7,0l-1.4,1.6l4.5,1.6l2.8,0l-0.6-3.5l-1.7,0.1C-469.2-74.4-469.3-74.6-469.3-74.7z"/>
		<path class="st13" d="M-495.7-76.8c0.3-0.4,0.7-0.4,0.9-0.3l0,0l0,0c0.1,0,1.2,0.8,1.2,0.8l-0.2-0.1c-0.1-0.1,1.1,0.6,1.1,0.6
			l3.7,2.3c1.4,0.8,3.1,1,4.6,0.5l3.8-0.7c0.4-0.1,0.8,0.2,0.9,0.6l0.7,3.3l-5-0.1c-2.1,0-4.2-0.7-6-1.9
			C-490-71.8-496.4-75.7-495.7-76.8z"/>
		<path class="st13" d="M-445.6-73.7c-0.2-0.5-0.7-0.5-0.9-0.4l0,0l0,0c-0.1,0-1.3,0.6-1.3,0.6l0.2,0c0.1-0.1,0.1-0.3-0.1-0.4
			c-0.1-0.1-0.3-0.1-0.4,0.1c0,0-0.7,0.8-0.7,0.8l-4,1.9c-1.5,0.7-3.2,0.7-4.6,0l-4.1-1.9l-1.7,1.6c-0.7,0.7-0.4,1.9,0.5,2.2
			l4.2,1.4c2.2,0.6,4.3-0.2,6.2-1.2C-452.4-69.2-445.1-72.5-445.6-73.7z"/>
		
			<rect x="-468.6" y="-27.7" transform="matrix(0.9997 -2.537884e-02 2.537884e-02 0.9997 0.5422 -11.8146)" class="st10" width="6.9" height="1"/>
		<path class="st12" d="M-461.7-28.2c-0.1-1.1-2.2-1.3-2.6-1.3l-3.7,0.1c-0.4,0-0.7,0.4-0.7,0.9l0,1.2l6.9-0.2L-461.7-28.2z"/>
		<path class="st0" d="M-477.9-68.9c0-0.1-0.1-0.2-0.3-0.2l-1.2,0.9c-1.5,1.2-2.3-0.7-2.5-1.4l-0.2-1c-1.1-4.1,0.6-3.3,2.6-3.5
			c2.9-0.3,7-0.2,7-0.2c0.3,0,0.7,2.2,1.7,2.6c1.8,0.8,2.5-0.4,2.5-2.9c0,0,0.5-0.1,1.7-0.1c1.2-0.1,2.4,0.2,3.6,0.6l3.1,1.2
			c0.4,0.1,0.7,0.5,0.5,1l-1.2,4.1c-0.2,0.5-0.8,0.6-1.1,0.2l-1.2-1c-0.2-0.2-0.5,0-0.4,0.3l1.6,7.4c0.3,1.2,1,7.3,0.4,8.4
			l-14.3,0.4c-1.3,0-2.1,0-2-0.8L-477.9-68.9z"/>
		<path class="st8" d="M-471-81.5c-0.3-1.9,2.3-0.3,3-1c2.2-1.8-7.1-4.9-7.2,0.5c0.1,3.8,0,3.7,0.9,5.6C-473-75-470.2-76.2-471-81.5
			z"/>
		<polygon class="st10" points="-481.1,-31.9 -480.9,-32 -481.4,-31.5 -476.6,-26.4 -476.3,-26.7 -476.3,-26.7 		"/>
		<path class="st12" d="M-479.1-32.8c-0.3-0.3-0.8-0.2-1.1,0.1l-0.7,0.7l0.2-0.2l4.8,5.1l-0.3,0.3l0.8-0.8c0.3-0.3,0.4-0.9,0.1-1.2
			l-1.8-1.9l-0.2,0.2L-479.1-32.8z"/>
		<polygon class="st12" points="-477.3,-30.4 -477.1,-30.6 -479.1,-32.8 		"/>
		<polygon class="st12" points="-480.7,-32.2 -480.9,-32 -481.1,-31.9 -476.3,-26.7 -476.3,-26.7 -476,-27.1 		"/>
	</g>
	<g>
		<g>
			<g>
				<line class="st12" x1="-499.2" y1="-83.7" x2="-494.7" y2="-75.5"/>
			</g>
			<g>
				
					<rect x="-497.3" y="-84.2" transform="matrix(0.875 -0.4842 0.4842 0.875 -23.6023 -250.5725)" class="st14" width="0.7" height="9.3"/>
			</g>
		</g>
		<g>
			
				<rect x="-500.3" y="-94.7" transform="matrix(0.8749 -0.4842 0.4842 0.8749 -19.0206 -253.3987)" class="st14" width="0.3" height="9.6"/>
		</g>
		<g>
			
				<rect x="-507.8" y="-91.4" transform="matrix(0.8751 -0.4839 0.4839 0.8751 -18.7481 -255.065)" class="st14" width="8.3" height="0.3"/>
		</g>
		<g>
			
				<rect x="-507.2" y="-90.4" transform="matrix(0.8751 -0.4839 0.4839 0.8751 -19.1446 -254.6895)" class="st14" width="8.3" height="0.3"/>
		</g>
		<g>
			
				<rect x="-506.7" y="-89.5" transform="matrix(0.8748 -0.4845 0.4845 0.8748 -19.6596 -254.6601)" class="st14" width="8.3" height="0.3"/>
		</g>
		<g>
			
				<rect x="-506.2" y="-88.5" transform="matrix(0.8751 -0.4839 0.4839 0.8751 -19.9378 -253.9387)" class="st14" width="8.3" height="0.3"/>
		</g>
		<g>
			
				<rect x="-505.6" y="-87.5" transform="matrix(0.8748 -0.4845 0.4845 0.8748 -20.4509 -253.9007)" class="st14" width="8.3" height="0.3"/>
		</g>
		<g>
			
				<rect x="-505.1" y="-86.6" transform="matrix(0.8751 -0.4839 0.4839 0.8751 -20.7309 -253.1879)" class="st14" width="8.3" height="0.3"/>
		</g>
		<g>
			
				<rect x="-503.9" y="-85.6" transform="matrix(0.8751 -0.4839 0.4839 0.8751 -21.1191 -252.8036)" class="st14" width="7" height="0.3"/>
		</g>
		<g>
			
				<rect x="-507.5" y="-92.3" transform="matrix(0.8761 -0.4821 0.4821 0.8761 -18.0246 -254.4644)" class="st14" width="6.7" height="0.3"/>
		</g>
		<g>
			
				<rect x="-501.4" y="-94.6" transform="matrix(0.875 -0.4842 0.4842 0.875 -19.4478 -253.8534)" class="st14" width="0.3" height="10.7"/>
		</g>
		<g>
			
				<rect x="-502.6" y="-94.1" transform="matrix(0.8652 -0.5015 0.5015 0.8652 -23.3043 -263.8885)" class="st14" width="0.3" height="10.9"/>
		</g>
		<g>
			
				<rect x="-503.6" y="-93.4" transform="matrix(0.8749 -0.4842 0.4842 0.8749 -20.3597 -254.7754)" class="st14" width="0.3" height="10.8"/>
		</g>
		<g>
			
				<rect x="-504.7" y="-92.2" transform="matrix(0.8749 -0.4842 0.4842 0.8749 -20.7701 -255.2383)" class="st14" width="0.3" height="9.6"/>
		</g>
		<g>
			<path class="st10" d="M-500.9-82.9c-0.7,0.3-1.4,0.3-2.1,0.1c-0.8-0.2-1.5-0.8-2-1.6l-2.4-4.4c-0.9-1.6-0.3-3.6,1.3-4.5l2.1-1.2
				c1.6-0.9,3.6-0.3,4.5,1.3l2.4,4.4c0.4,0.8,0.5,1.7,0.3,2.5c-0.2,0.8-0.8,1.6-1.6,2l-2.1,1.2C-500.6-83-500.7-82.9-500.9-82.9z
				 M-503.4-93.9c-0.1,0-0.2,0.1-0.3,0.1l-2.1,1.2c-0.6,0.3-1.1,0.9-1.2,1.6c-0.2,0.7-0.1,1.4,0.2,2l2.4,4.4
				c0.3,0.6,0.9,1.1,1.6,1.2c0.7,0.2,1.4,0.1,2-0.2l2.1-1.2c0.6-0.3,1.1-0.9,1.2-1.6c0.2-0.7,0.1-1.4-0.2-2l-2.4-4.4
				C-500.8-93.9-502.1-94.4-503.4-93.9z"/>
		</g>
		<g>
			<path class="st10" d="M-497.8-80.7c-0.5,0.2-1.2,0-1.5-0.5l-0.9-1.6c-0.3-0.6-0.1-1.3,0.5-1.6c0.6-0.3,1.3-0.1,1.6,0.5l0.9,1.6
				c0.3,0.6,0.1,1.3-0.5,1.6C-497.7-80.8-497.7-80.8-497.8-80.7z"/>
		</g>
		<g>
			<path class="st10" d="M-493.7-73.4c-0.3,0.1-0.7,0-0.8-0.3l-0.9-1.6c-0.2-0.3-0.1-0.7,0.3-0.9c0.3-0.2,0.7-0.1,0.9,0.3l0.9,1.6
				C-493.1-74.1-493.2-73.6-493.7-73.4C-493.6-73.5-493.6-73.4-493.7-73.4z"/>
		</g>
	</g>
	<g>
		<path class="st13" d="M-502.2-83.6c-0.1,0-0.1,0-0.2,0l-1.4-0.6c-0.2-0.1-0.3-0.3-0.2-0.6c0.1-0.2,0.3-0.3,0.6-0.2l1.4,0.6
			c0.2,0.1,0.3,0.3,0.2,0.6C-501.9-83.7-502-83.6-502.2-83.6z"/>
	</g>
	<g>
		<g>
			<path class="st13" d="M-193.3,107.5c0,0,0.3,0.6,0.6,1.2c0.9,1.4,1.1-0.4,0.2-1.8L-193.3,107.5z"/>
			<g>
				<path class="st15" d="M-192.6,105l-0.2-1l-0.2-1.1l-0.3-2.1c-0.2-1.4-0.4-2.8-0.5-4.2c-0.3-2.8-0.4-5.6-0.5-8.5
					c0-1.4,0-2.8,0-4.2c0-0.7,0-1.4,0.1-2.1c0-0.3,0-0.7,0.1-1l0-0.5c0-0.2,0-0.3,0-0.5l-5.1,0.1l-1.2,0c0,0.2,0,0.4,0.1,0.6
					l0.1,0.6c0,0.4,0.1,0.8,0.1,1.1c0.1,0.7,0.2,1.5,0.3,2.2c0.2,1.5,0.5,2.9,0.8,4.4c0.3,1.4,0.6,2.8,0.9,4.2
					c0.4,1.5,0.7,2.9,1.2,4.3c0.4,1.4,0.8,2.8,1.3,4.2l0.7,2l0.4,1l0.4,1c0.2,0.7,0.5,1.3,0.8,2l1.2,0
					C-192.3,106.7-192.5,105.8-192.6,105z"/>
				<path class="st16" d="M-194.3,105.3l-0.4-1l-0.4-1l-0.7-2c-0.4-1.4-0.9-2.8-1.3-4.2c-0.4-1.4-0.8-2.9-1.2-4.3c0,1.3,0,2.6,0,3.8
					c0,1.4,0.1,2.8,0.2,4.3l0.2,2.1l0.1,1.1l0.1,1.1c0.1,0.8,0.2,1.5,0.3,2.3l3.9-0.1C-193.8,106.6-194.1,105.9-194.3,105.3z"/>
				<path class="st17" d="M-197.6,104.3l-0.1-1.1l-0.2-2.1c-0.1-1.4-0.1-2.8-0.2-4.3c0-1.3,0-2.6,0-3.8c-0.3-1.4-0.7-2.8-0.9-4.2
					c-0.3-1.4-0.6-2.9-0.8-4.4c-0.1-0.7-0.2-1.5-0.3-2.2c-0.1-0.4-0.1-0.7-0.1-1.1l-0.1-0.6c0-0.2,0-0.4-0.1-0.6l1.2,0l-4.2-0.3
					c0,0.2,0,0.4,0,0.6l0,0.6c0,0.4,0,0.8,0.1,1.1c0,0.8,0.1,1.5,0.2,2.2c0.1,1.5,0.3,3,0.5,4.4c0.4,2.9,0.8,5.8,1.4,8.7
					c0.3,1.4,0.6,2.8,1,4.3l0.6,2.1l0.3,1l0.3,1c0.2,0.7,0.4,1.3,0.6,2l1.2,0c-0.1-0.8-0.2-1.5-0.3-2.3L-197.6,104.3z"/>
				<path class="st13" d="M-193.5,60.8c0,0-0.9,1.1-1.4,3c-0.3,1,2.7,1.3,2.7,1.3s-5,1.8-6.6-0.1c-1.6-1.9,0.1-2.8,0.1-2.8
					s0.4,0.4,1.7,0.1c0.9-0.2,0.4-2.8,0.4-2.8L-193.5,60.8z"/>
				<path class="st8" d="M-194.9,63.7c0,0,2.6,1.1,2.8,1.7c0.1,0.7-4,5.4-1.3,15.7c-0.1,1.2-9.8,0.1-10.1-1.7
					c-1-6.1,0.2-17.7,3.4-17.7c0.9,0,1.7,0.5,1.7,0.5s-0.5,1.2,0.6,2C-196.8,65.1-194.9,63.7-194.9,63.7z"/>
				<path class="st13" d="M-194.6,54.2c0,0-0.8,1.3-1.7,2.7c-0.4,0.6-1.5,2.6-1.5,3.2c0,0.6,2.9,2.4,5,0.5c1.7-1.5,2.6-2.4,2.1-3.7
					C-191.3,55.7-193.4,52.9-194.6,54.2z"/>
				<path class="st10" d="M-188.2,55.3c0.5-5-7.7-6-7.1-1.5c0.1,0.9,0.8,0.7,1.9,1.5c1.7,1,0.1,2.2,0.7,2.5c0.6,0.4-0.1,1.2-0.2,1.4
					c-0.1,0.4-0.4,1-0.8,1.8c-0.7,1.4,2.9-0.2,4.2-0.6C-186.3,59.4-188.2,55.7-188.2,55.3z"/>
			</g>
			<path class="st13" d="M-198.5,107c0,0-0.1,2,0.8,2.1c0.9,0.1,0.4-1.7,0.4-1.7L-198.5,107z"/>
			<line class="st18" x1="-199" y1="107.2" x2="-197" y2="107.4"/>
			<line class="st18" x1="-193.5" y1="107.7" x2="-191.9" y2="107.5"/>
			<path class="st15" d="M-198.5,108.1l-1.6,0.3c0,0-0.1,0-0.1,0.1l0,0c-0.1,0.1-0.1,0.4,0.1,0.4l1.7,0.2l1.3,0.1
				c0.1,0,0.2-0.1,0.2-0.2l0-0.5c0-0.1-0.1-0.2-0.2-0.2L-198.5,108.1C-198.4,108.1-198.4,108.1-198.5,108.1z"/>
			<path class="st15" d="M-193,108.4l-0.8,0.4c0,0-0.1,0-0.1,0.1l0,0c-0.1,0.1-0.1,0.4,0.1,0.4l1,0.1l1.3,0.1c0.1,0,0.2-0.1,0.2-0.2
				l-0.1-0.5c0-0.1-0.1-0.2-0.2-0.3L-193,108.4C-193,108.4-193,108.4-193,108.4z"/>
			<path class="st13" d="M-205,53.2c0,0-1.8,0.2-1.9,0.9c-0.1,0.4,0.2,2.9,1.4,5c0.9,1.6,3.8,3.6,3.8,3.6s0.9-1-2-7
				C-204.8,53.2-205,53.2-205,53.2z"/>
			<path class="st13" d="M-206.6,54.8c0,0-1.6-2.4-0.7-8.5c0.5-1.2,0.5,0.1,0.5,0.1s2.3,6.4,2.1,7.4
				C-204.9,54.6-206.6,54.8-206.6,54.8z"/>
			<path class="st13" d="M-207.2,47.1c0,0-0.4-0.8-0.3-1.3c0.1-0.9,0.2-2.1,0.2-2.1c1.3-0.1,0.5,2.4,0.5,2.4L-207.2,47.1z"/>
			<g>
				<path class="st13" d="M-191,76.8c0,0,2.3,0.1,2.6-0.6c0.2-0.4,0.4-2.9-0.4-5c-0.7-1.7-4-4.7-4-4.7s-0.9,1.5,1,7.8
					C-191,76.8-191,76.8-191,76.8z"/>
				<path class="st13" d="M-188.4,76.2c0,0-1.1,3.8-7,6.6c-1.4,0.2-0.3-0.6-0.3-0.6s4.1-5.5,5-5.8
					C-189.7,75.9-188.4,76.2-188.4,76.2z"/>
				<path class="st19" d="M-192.7,65.1c1.7,0.1,3.8,2.9,4.4,6.3c-2.5,0.6-3.1,0.8-3.8,0.9c-0.6,0.2-1.4-1.7-1.8-3.2
					C-194.2,67.3-194,65-192.7,65.1z"/>
			</g>
			<path class="st19" d="M-200,61.8c0,0-0.3-1.5-2.3-4.1c-0.4-1-4.8,2-4,2.6c0.7,0.6,3.6,4.9,3.6,4.9l0.5-0.8
				c0.5-0.8,1.1-1.5,1.8-2.2L-200,61.8z"/>
		</g>
		<path class="st13" d="M-195.7,82.1c0,0-1.7,0.9-1.4,1.5c0.3,0.6,1.8,0.3,2.2-0.8C-194,80.3-195.7,82.1-195.7,82.1z"/>
	</g>
	<g>
		<path class="st20" d="M85.6,42.3c-3.5-0.7-6.5,3.2-7.2,6.6c-0.4,1.9-1,2.3-1.4,4.2c-0.4,1.9-0.8,3.8-1.3,5.7l-1.3,5.7L73,70.2
			l-0.2,0.7l0,0.1c0.2,2.3,0.3,4.6,0.4,6.9c0.1,2.1,0.3,4.1,0.3,6.2l2.7-0.7c0.2-1.8,0.3-3.5,0.5-5.3c0.3-2,0.6-4.1,0.9-6.1L77.6,72
			l0.2-0.8c0,0.2-0.1,0.5-0.1,0.7l2.9-4.9l3-5c1-1.7,2.1-3.3,3.1-5c1-1.7,2.1-3.3,3.2-5c0.4-0.7,0.8-1.5,0.9-2.3
			C91.3,46.3,89.1,42.9,85.6,42.3z"/>
		<g>
			<g>
				<polygon class="st21" points="24.5,86.1 23.9,86.1 24.5,63.4 25.1,63.4 				"/>
			</g>
			<g>
				<polygon class="st21" points="23.9,108.6 23.3,108.6 23.9,85.9 24.5,86 				"/>
			</g>
			<g>
				
					<rect x="35.2" y="75" transform="matrix(2.637728e-02 -0.9997 0.9997 2.637728e-02 -51.7416 119.4817)" class="st21" width="0.5" height="22.6"/>
			</g>
			<g>
				
					<rect x="12.7" y="74.4" transform="matrix(2.638652e-02 -0.9997 0.9997 2.638652e-02 -73.0812 96.3814)" class="st21" width="0.5" height="22.6"/>
			</g>
			<g>
				<polygon class="st21" points="39.6,102.6 24,86.1 24.4,85.8 39.9,102.2 				"/>
			</g>
			<g>
				<polygon class="st21" points="24.1,86.2 8.5,69.8 8.8,69.4 24.4,85.9 				"/>
			</g>
			<g>
				
					<rect x="4.7" y="93.5" transform="matrix(0.7246 -0.6892 0.6892 0.7246 -60.2014 36.8659)" class="st21" width="22.6" height="0.5"/>
			</g>
			<g>
				
					<rect x="21.1" y="78" transform="matrix(0.7248 -0.689 0.689 0.7248 -45.0017 43.8423)" class="st21" width="22.6" height="0.5"/>
			</g>
			<g>
				
					<rect x="2.3" y="89.6" transform="matrix(0.9388 -0.3444 0.3444 0.9388 -30.1138 10.1861)" class="st21" width="22.6" height="0.5"/>
			</g>
			<g>
				
					<rect x="23.5" y="81.9" transform="matrix(0.94 -0.3412 0.3412 0.94 -25.9389 16.7975)" class="st21" width="22.6" height="0.5"/>
			</g>
			<g>
				
					<rect x="13.7" y="69.9" transform="matrix(0.4225 -0.9064 0.9064 0.4225 -65.5601 59.6007)" class="st21" width="0.5" height="22.6"/>
			</g>
			<g>
				
					<rect x="34.2" y="79.4" transform="matrix(0.4225 -0.9064 0.9064 0.4225 -62.3915 83.6127)" class="st21" width="0.5" height="22.6"/>
			</g>
			<g>
				<polygon class="st21" points="24,86.1 16.3,64.9 16.8,64.7 24.5,86 				"/>
			</g>
			<g>
				<polygon class="st21" points="31.7,107.3 23.9,86 24.4,85.9 32.1,107.2 				"/>
			</g>
			<g>
				
					<rect x="17.1" y="75.3" transform="matrix(0.3715 -0.9284 0.9284 0.3715 -52.2995 73.8221)" class="st21" width="22.6" height="0.5"/>
			</g>
			<g>
				<polygon class="st21" points="16.1,107.1 15.6,106.9 24,85.9 24.5,86 				"/>
			</g>
		</g>
		<g>
			<path class="st13" d="M74.1,88c0,0.2,0.1,0.4,0.3,0.6l1.4-0.3l-1.4,0.3c0.2,0.3,0.6,0.5,0.9,0.5c0.6,0,1.2-0.6,1.1-1.2
				c-0.1-1.6-0.1-3.2-0.1-4.8l-2.7,1C73.8,85.4,73.9,86.7,74.1,88z"/>
			<path class="st10" d="M72.6,88.5c0,0-0.8-0.2-1.5,0c-0.7,0.2-0.3,1.5-0.3,1.5s4.8-0.7,5.1-0.7c0.3-0.1,1-0.2,1-1.1
				c-0.1-0.9-0.9-1-1.3-0.6c-0.4,0.4-0.2,0.9-0.2,0.9L72.6,88.5z"/>
		</g>
		<g>
			<path class="st3" d="M23.6,110.3C10.2,109.9-0.3,98.8,0,85.4c0.4-13.3,11.5-23.9,24.8-23.6c13.3,0.4,23.9,11.5,23.6,24.8
				C48,100,36.9,110.6,23.6,110.3z M24.8,65C13.1,64.7,3.4,73.9,3.1,85.5c-0.3,11.6,8.9,21.3,20.5,21.6c11.6,0.3,21.3-8.9,21.6-20.5
				S36.4,65.3,24.8,65z"/>
		</g>
		<g>
			<path class="st21" d="M21.6,86c0-1.4,1.2-2.5,2.6-2.5c1.4,0,2.5,1.2,2.5,2.6c0,1.4-1.2,2.5-2.6,2.5C22.7,88.6,21.6,87.4,21.6,86z
				"/>
		</g>
		<g>
			<path class="st3" d="M24.6,87.8l-2-0.9c2.6-3,9.7-11.3,10.9-13.4c1.1-2.1,6.5-17.3,9.1-25.1l3.8-11.1l2,0.7L44.6,49
				c-0.3,0.9-7.8,22.7-9.3,25.4C33.9,77.2,25,87.4,24.6,87.8z"/>
		</g>
		<g>
			<path class="st3" d="M64,88c-2.2-0.1-5.9-0.9-9.5-5c-3.8-4.3-6.9-13.7-9-19.9c-0.8-2.5-1.5-4.6-2-5.5c-1.1-2.2-0.7-2.6-2.5-3.1
				l0.5-2c0.8,0.2,2.1,0.7,3.8,4.1c0.5,1,1.2,3,2.1,5.8c2,6,5,15.1,8.6,19.1c4.7,5.4,9.3,4.2,9.5,4.2l0.6,2C66.1,87.8,65.3,88,64,88
				z"/>
		</g>
		<g>
			<path class="st3" d="M69.3,79.4c-0.1-0.2-8.5-18.9-14.2-24.5c-5.7-5.5-11.9-6.7-12-6.7l0.5-2c0.5,0.1,6.9,1.3,13,7.3
				c6,5.9,14.3,24.4,14.6,25.2L69.3,79.4z"/>
		</g>
		<line class="st22" x1="83.1" y1="53.5" x2="65.9" y2="86.8"/>
		<path class="st5" d="M65.6,69.3c0,0-12.6-13.2-21.1-12.1"/>
		<g>
			<path class="st21" d="M65.3,95.1c-4.6-0.1-8.2-3.9-8.1-8.5c0.1-4.6,3.9-8.2,8.5-8.1c4.6,0.1,8.2,3.9,8.1,8.5
				C73.7,91.6,69.9,95.3,65.3,95.1z M65.7,80.6c-3.4-0.1-6.3,2.6-6.4,6.1c-0.1,3.4,2.6,6.3,6.1,6.4c3.4,0.1,6.3-2.6,6.4-6.1
				C71.8,83.6,69.1,80.7,65.7,80.6z"/>
		</g>
		<g>
			<g>
				<path class="st21" d="M65.2,98.5c-6.4-0.2-11.5-5.6-11.4-12c0.2-6.4,5.5-11.5,12-11.4c0.4,0,44.6,3.5,44.4,13
					C109.9,98.3,65.7,98.5,65.2,98.5z M65.8,77.2c-5.3-0.1-9.7,4.1-9.9,9.4c-0.1,5.3,4.1,9.7,9.4,9.9c10.6,0.3,42.7-2.2,42.9-8.4
					C108.3,82.5,74.7,77.5,65.8,77.2z"/>
			</g>
		</g>
		<g>
			<path class="st3" d="M104.4,112.3c-13.3-0.4-23.9-11.5-23.6-24.8c0.4-13.3,11.5-23.9,24.8-23.6c13.3,0.4,23.9,11.5,23.6,24.8
				C128.9,102.1,117.8,112.7,104.4,112.3z M105.6,67C94,66.7,84.3,75.9,84,87.6c-0.3,11.6,8.9,21.3,20.5,21.6
				c11.6,0.3,21.3-8.9,21.6-20.5C126.5,77,117.2,67.3,105.6,67z"/>
		</g>
		<g>
			<path class="st21" d="M78.4,87.2C78.4,87.2,78.4,87.2,78.4,87.2c-0.6-0.1-1.1-0.6-1-1.1c1.6-15.5,12.7-26,28.2-26.6
				c6.8-0.3,14.9,3.2,20.5,8.7c3.8,3.8,8.2,10.2,7.9,19.4c0,0.6-0.5,1-1.1,1c0,0,0,0,0,0c-0.6,0-1-0.5-1-1.1
				c0.3-8.5-3.8-14.4-7.3-17.9c-5.2-5.2-12.7-8.4-19-8.2C91,62.1,81,71.6,79.5,86.2C79.5,86.8,79,87.2,78.4,87.2z"/>
		</g>
		<g>
			<path class="st21" d="M102.5,88c0-1.4,1.2-2.5,2.6-2.5c1.4,0,2.5,1.2,2.5,2.6c0,1.4-1.2,2.5-2.6,2.5
				C103.6,90.7,102.4,89.5,102.5,88z"/>
		</g>
		<g>
			<polygon class="st3" points="105.3,88.1 104.8,88.1 105.4,65.5 105.9,65.5 			"/>
		</g>
		<g>
			<polygon class="st3" points="104.7,110.6 104.2,110.6 104.8,88 105.3,88 			"/>
		</g>
		<g>
			
				<rect x="116.1" y="77" transform="matrix(2.646085e-02 -0.9996 0.9996 2.646085e-02 24.9184 202.2968)" class="st3" width="0.5" height="22.6"/>
		</g>
		<g>
			
				<rect x="93.5" y="76.4" transform="matrix(2.637728e-02 -0.9997 0.9997 2.637728e-02 3.5904 179.2044)" class="st3" width="0.5" height="22.6"/>
		</g>
		<g>
			
				<rect x="112.6" y="84.9" transform="matrix(0.7255 -0.6882 0.6882 0.7255 -35.2628 104.0543)" class="st3" width="0.5" height="22.6"/>
		</g>
		<g>
			
				<rect x="97" y="68.6" transform="matrix(0.7256 -0.6881 0.6881 0.7256 -28.269 88.8749)" class="st3" width="0.5" height="22.7"/>
		</g>
		<g>
			
				<rect x="85.6" y="95.6" transform="matrix(0.7248 -0.689 0.689 0.7248 -39.3486 93.115)" class="st3" width="22.6" height="0.5"/>
		</g>
		<g>
			
				<rect x="101.9" y="80" transform="matrix(0.7255 -0.6882 0.6882 0.7255 -24.1849 99.9659)" class="st3" width="22.6" height="0.5"/>
		</g>
		<g>
			
				<rect x="83.1" y="91.7" transform="matrix(0.9393 -0.3431 0.3431 0.9393 -25.8009 37.9908)" class="st3" width="22.6" height="0.5"/>
		</g>
		<g>
			
				<rect x="104.3" y="83.9" transform="matrix(0.9399 -0.3415 0.3415 0.9399 -21.8034 44.5557)" class="st3" width="22.6" height="0.5"/>
		</g>
		<g>
			
				<rect x="94.6" y="72" transform="matrix(0.4225 -0.9064 0.9064 0.4225 -20.7244 134.0719)" class="st3" width="0.5" height="22.6"/>
		</g>
		<g>
			
				<rect x="115" y="81.5" transform="matrix(0.4225 -0.9064 0.9064 0.4225 -17.5575 158.0783)" class="st3" width="0.5" height="22.6"/>
		</g>
		<g>
			
				<rect x="101" y="66.1" transform="matrix(0.9403 -0.3405 0.3405 0.9403 -20.3265 39.091)" class="st3" width="0.5" height="22.6"/>
		</g>
		<g>
			<polygon class="st3" points="112.5,109.4 104.8,88.1 105.3,87.9 113,109.2 			"/>
		</g>
		<g>
			<polygon class="st3" points="105.3,88.2 104.8,88 113.2,67 113.7,67.2 			"/>
		</g>
		<g>
			<path class="st3" d="M65.6,97.6l-4.8-0.1c-0.6,0-1-0.5-1-1.1c0-0.6,0.5-1,1.1-1l2.9,0.1l1.1-8.8c0.1-0.6,0.6-1,1.2-0.9
				c0.6,0.1,1,0.6,0.9,1.2L65.6,97.6z"/>
		</g>
		<path class="st22" d="M45,35.2c-0.4,6.4,9.3,4.5,9.3,4.5"/>
		<g>
			<path class="st21" d="M52.7,41.8c-1.1,0-2-0.9-2-2c0-1.1,0.9-2.1,2-2.1l4.7-0.1c1.1,0,2.1,0.9,2.1,2c0,1.1-0.9,2.1-2,2.1
				L52.7,41.8C52.7,41.8,52.7,41.8,52.7,41.8z"/>
		</g>
		<path class="st23" d="M87.8,55.3c-0.8-0.5-11-2-11-2"/>
		<g>
			<polygon class="st3" points="96.9,109.1 96.4,108.9 104.8,88.1 78.9,61.3 79.3,61 105.4,87.9 105.3,88.1 			"/>
		</g>
		<g>
			<g>
				<g>
					<path class="st21" d="M23.5,55.6c-1.1-0.4-2.1-1.3-2.6-2.4c-0.5-1.1-0.6-2.4-0.2-3.6l3.6-10.4l17.7,6.2l-3.6,10.4
						C38,57,37.2,58,36,58.5c-1.1,0.5-2.4,0.6-3.6,0.2L23.5,55.6C23.6,55.6,23.5,55.6,23.5,55.6z M25,40.6L21.7,50
						c-0.3,0.9-0.3,1.9,0.2,2.8c0.4,0.9,1.2,1.6,2.1,1.9l8.8,3.1c0.9,0.3,1.9,0.3,2.8-0.2c0.9-0.4,1.6-1.2,1.9-2.1l3.3-9.4L25,40.6z
						"/>
				</g>
			</g>
			<g>
				<g>
					
						<rect x="31.3" y="37.4" transform="matrix(0.3431 -0.9393 0.9393 0.3431 -22.5416 60.2865)" class="st21" width="1" height="17.8"/>
				</g>
			</g>
			<g>
				<g>
					
						<rect x="31" y="39.1" transform="matrix(0.3489 -0.9371 0.9371 0.3489 -24.6666 60.589)" class="st21" width="0.5" height="17.8"/>
				</g>
			</g>
			<g>
				<g>
					<polygon class="st21" points="39,52.9 22.3,46.6 22.5,46.1 39.2,52.4 					"/>
				</g>
			</g>
			<g>
				<g>
					<polygon class="st21" points="38.4,54.3 21.7,48.1 21.9,47.6 38.6,53.8 					"/>
				</g>
			</g>
			<g>
				<g>
					
						<rect x="29.4" y="43.5" transform="matrix(0.3489 -0.9371 0.9371 0.3489 -29.8188 61.9074)" class="st21" width="0.5" height="17.8"/>
				</g>
			</g>
			<g>
				<g>
					
						<rect x="28.8" y="45" transform="matrix(0.349 -0.9371 0.9371 0.349 -31.5373 62.341)" class="st21" width="0.5" height="17.8"/>
				</g>
			</g>
			<g>
				<g>
					
						<rect x="28.2" y="47.4" transform="matrix(0.349 -0.9371 0.9371 0.349 -33.2896 62.6453)" class="st21" width="0.5" height="15.8"/>
				</g>
			</g>
			<g>
				<g>
					
						<rect x="31.1" y="53.2" transform="matrix(0.3465 -0.9381 0.9381 0.3465 -26.3384 69.1224)" class="st21" width="10.6" height="0.5"/>
				</g>
			</g>
			<g>
				<g>
					<polygon class="st21" points="32.6,57.7 32.1,57.5 35.8,47.6 36.3,47.7 					"/>
				</g>
			</g>
			<g>
				<g>
					<polygon class="st21" points="30.3,56.9 29.9,56.7 33.6,46.7 34,46.9 					"/>
				</g>
			</g>
			<g>
				<g>
					<polygon class="st21" points="28.1,56 27.6,55.8 31.3,45.9 31.8,46.1 					"/>
				</g>
			</g>
			<g>
				<g>
					
						<rect x="22.1" y="49.9" transform="matrix(0.3498 -0.9368 0.9368 0.3498 -29.0978 58.3148)" class="st21" width="10.6" height="0.5"/>
				</g>
			</g>
			<g>
				<g>
					<polygon class="st21" points="23.6,54.4 23.1,54.2 26.8,44.2 27.3,44.4 					"/>
				</g>
			</g>
			<g>
				<g>
					<polygon class="st21" points="21.4,53.5 20.9,53.3 24.6,43.4 25.1,43.6 					"/>
				</g>
			</g>
		</g>
		<g>
			
				<rect x="41.6" y="44.8" transform="matrix(0.3264 -0.9452 0.9452 0.3264 -15.4778 71.7689)" class="st21" width="2.1" height="3.9"/>
		</g>
		<path class="st24" d="M45,35.2c0,0,0.3-3,6.3-2.7"/>
		<path class="st10" d="M70.4,72.1l0.3-0.3c0.1-0.3,0.1-0.5,0.2-0.8L70.4,72.1z"/>
		<path class="st10" d="M78.8,45.9c-2.8,5.7-5.7,11.2-8.6,16.7c-2.7,4.9-4.3,10.3-4.8,15.8c-0.4,3.9-0.8,8.3-1.2,11.9l2.8-0.4
			c0.6-2.9,1.4-6.9,2.1-10.5c1-5,5.9-13.7,9.5-17.3c5.8-5.9,10.4-6.8,11.9-10.7C93.8,43.4,82.5,38.1,78.8,45.9z"/>
		<path class="st11" d="M83.7,22.9c-2.8,0.5-2.6-1-3.5-2.6c-2.9,1.5-5.3,3.5-2.3,9.1l-1.2,19.1c0.4,1.4,2.8-0.4,7.1-1.2
			c6-1.1,7.6,2.3,7.8,0.4l-3.2-16.8c-0.4-2.3-0.7-4.5-0.8-6.8c-0.2-2.8-0.3-3-1-3.6C85.6,20.9,84.9,22.7,83.7,22.9z"/>
		<g>
			<path class="st13" d="M61.2,95.4c-0.3,0-0.5-0.2-0.5-0.5c0-0.3,0.2-0.5,0.5-0.5l4.2,0.1c0,0,0,0,0,0c0.3,0,0.5,0.2,0.5,0.5
				c0,0.3-0.2,0.5-0.5,0.5L61.2,95.4C61.2,95.4,61.2,95.4,61.2,95.4z"/>
		</g>
		<g>
			<path class="st13" d="M63.8,94.3c0,0.2,0,0.4,0.1,0.6l1.4,0l-1.4,0c0.2,0.3,0.4,0.6,0.8,0.7c0.6,0.1,1.2-0.3,1.4-0.9
				c0.3-1.6,0.6-3.1,0.9-4.7l-2.8,0.4C64,91.6,63.9,92.9,63.8,94.3z"/>
			<path class="st10" d="M62.2,94.4c0,0-0.7-0.4-1.5-0.4c-0.8,0-0.6,1.4-0.6,1.4s4.8,0.4,5.2,0.4c0.3,0,1.1,0.1,1.2-0.9
				c0.1-0.9-0.6-1.2-1.1-0.8c-0.5,0.3-0.4,0.9-0.4,0.9L62.2,94.4z"/>
		</g>
		<path class="st10" d="M77.6,72l0.1-0.1c0-0.2,0.1-0.5,0.1-0.7L77.6,72z"/>
		<path class="st24" d="M71.3,90.5"/>
		<path class="st3" d="M22.3,86.1c0-1,0.9-1.8,1.9-1.8c1,0,1.9,0.9,1.8,1.9c0,1-0.9,1.9-1.9,1.8C23.1,88,22.3,87.1,22.3,86.1z"/>
		<path class="st21" d="M104.3,88c0-0.4,0.4-0.8,0.8-0.8c0.4,0,0.8,0.4,0.8,0.8c0,0.4-0.4,0.8-0.8,0.8
			C104.6,88.9,104.2,88.5,104.3,88z"/>
		<g>
			<path class="st21" d="M51.5,34.5c-1.1,0-1.9-0.9-2-2c0-1.1,0.8-2.1,2-2.1l4.7-0.2c1.1,0,2.1,0.8,2.1,2c0,1.1-0.8,2.1-2,2.1
				l-4.7,0.2C51.6,34.5,51.5,34.5,51.5,34.5z"/>
		</g>
		<path class="st13" d="M82.2,15.3c0,0,0,3.6-1.5,5c-1.5,1.5,5.5,1.1,5.5,1.1l0.1-7.3L82.2,15.3z"/>
		<g>
			<path class="st13" d="M82.7,15.6L82.7,15.6c-2.8,0.6-5.6-1.2-6.2-4.1l-0.6-2.9c-0.6-2.8,1.2-5.6,4.1-6.2l0,0
				c2.8-0.6,5.6,1.2,6.2,4.1l0.6,2.9C87.3,12.2,85.5,15,82.7,15.6z"/>
			<path class="st12" d="M82.2,0.2c0,0-7-0.8-8,4c-0.7,3.3,2.1,3.7,6.1,3.5c4-0.2,3.3,1.8,4.4-1.4C85.8,3,82.2,0.2,82.2,0.2z"/>
			<path class="st12" d="M80,3.6c-0.4,1.4-0.3,2.8,0.3,4.1c0.2,0.4,0.5,0.8,0.7,1.2c1.1,1.8,0,3.2,0.8,4.1c2.9,3,0,8.2,4.1,9.6
				c4.1,1.4,13.1,5.8,14.6,1.3c1.5-4.5,4.5-3.9,4.9-7.2c0.5-3.3,3.2-5.1-0.7-8.4c-4-3.3-6.5,2.1-9.4-1C92.5,4,94,1.6,88.7,0.6
				c-5.2-1-8.3-0.9-8.6,1.8C80.1,2.9,80.1,3.3,80,3.6z"/>
		</g>
		<path class="st13" d="M79.1,22c-2.2,2.3-5,3.8-7.9,4.5l-15.3,3.5C55.3,30,55,30.6,55,31.3c0.1,0.7,0.6,1.3,1.3,1.3
			c0,0,13.3,0.4,26.9-7.3l0.5-2.4C83.8,20.5,79.1,22,79.1,22z"/>
		<path class="st25" d="M84.2,19.7c-0.4-0.6-1-1-1.6-1.1c-0.8-0.2-1.6-0.1-2.3,0.4l-10.6,3.9l-2.9,1.1c-1.3,0.5-1.8,2.1-1,3.2
			l3.4,4.6c0.7,1,2.2,1.2,3.1,0.4l10.9-8.5c0.1,0,0.1-0.1,0.2-0.1C84.8,22.7,85.1,20.9,84.2,19.7z"/>
		<path class="st13" d="M74.9,27.6c-1.9,2.6-4.3,4.5-7.1,5.6L53.1,39c-0.5,0.2-0.8,0.9-0.6,1.5c0.2,0.7,0.8,1.2,1.5,1.1
			c0,0,13.2-1.7,25.5-11.3l2.2-3.1c0.4-0.5,0.5-1.2,0.5-2l0,0c-0.3-2.4-2.9-3.5-4.2-1.7L74.9,27.6z"/>
		<path class="st25" d="M84.1,19.9c-0.6-0.5-1.3-0.7-2-0.7c-0.8,0-1.7,0.3-2.3,1l-9.6,6.9l-2.6,1.9c-1.2,0.9-1.2,2.6-0.1,3.5
			l4.7,3.7c1,0.8,2.5,0.6,3.3-0.4l8.6-11.7c0.1-0.1,0.1-0.1,0.2-0.2C85.5,22.8,85.4,20.9,84.1,19.9z"/>
	</g>
	<g>
		<line class="st2" x1="-255.7" y1="-77.4" x2="-255.7" y2="-50.5"/>
		<line class="st2" x1="-260.9" y1="-50.5" x2="-250.5" y2="-50.5"/>
		<path class="st3" d="M-248.8-102c0.6-1.3,0.9-2.7,0.8-4.3c-0.2-4.2-3.3-7.6-7.2-7.8c-4.5-0.3-8.2,3.6-8.2,8.4
			c0,1.3,0.3,2.6,0.8,3.7c0.3,0.8,0.1,1.7-0.5,2.2c-3.2,2.6-5.2,6.9-5,11.6c0.4,6.7,5.3,12.2,11.5,12.7c7.2,0.6,13.3-5.7,13.3-13.5
			c0-4.4-2-8.4-5-10.9C-249-100.3-249.2-101.2-248.8-102z"/>
	</g>
	<path class="st3" d="M-309-78.3c-1.3-0.9-3.7,0.1-4.1,0c-0.1,0-0.1-0.3-0.1-0.4c0.4-4-3.6-5-5.3-3.5c-0.8,0.7-0.4-3-4.1-2.6
		c-0.8,0.1-1.5,0.4-2.1,0.9c-0.5,0.4-1.1,0.5-1.7,0.2c-0.6-0.3-1.3-0.5-2-0.4c-1.2,0.1-2.3,0.9-2.8,1.9c-0.4,0.8-1.3,1.4-2.2,1.5
		c-0.2,0-0.5,0.1-0.7,0.2c-1.3,0.5-2.1,1.6-2.3,3c0,0.5,0,0.9,0.1,1.3c0.1,0.4,0,0.8-0.3,1.1c-0.5,0.4-0.9,0.9-1.1,1.5h3.1h3.4h9.8
		h1.4h0.1h4.4h2.8c0,0,3.7,0,3.7,0C-308-73.8-306.9-76.8-309-78.3z"/>
	<g>
		<path class="st3" d="M-510.1-5.6c-0.3-0.6-0.2-1.3,0-1.9c0.4-1.2,0-2.5-1-3.3c-1-0.7-2.3-0.8-3.3-0.2c-0.6,0.4-1.3,0.4-2,0.2
			c-1-0.3-2-0.5-3.1-0.5c-6,0-10.9,4.9-10.9,10.9h21.8C-508.7-2-509.5-4.2-510.1-5.6z"/>
		<line class="st6" x1="-531.4" y1="-0.3" x2="-507.6" y2="-0.3"/>
	</g>
	<g>
		<path class="st3" d="M-188.8-62.5c-0.3-0.6-0.2-1.3,0-1.9c0.4-1.2,0-2.5-1-3.3c-1-0.7-2.3-0.8-3.3-0.2c-0.6,0.4-1.3,0.4-2,0.2
			c-1-0.3-2-0.5-3.1-0.5c-6,0-10.9,4.9-10.9,10.9h21.8C-187.4-58.9-188.3-61.2-188.8-62.5z"/>
		<line class="st6" x1="-210.1" y1="-57.3" x2="-186.3" y2="-57.3"/>
	</g>
	<g>
		<g>
			<g>
				<path class="st12" d="M-201.3-106.5c-15.6,0-28.3-12.7-28.3-28.3c0-15.6,12.7-28.3,28.3-28.3c15.6,0,28.3,12.7,28.3,28.3
					C-173-119.2-185.7-106.5-201.3-106.5z M-201.3-162.5c-15.2,0-27.7,12.4-27.7,27.7c0,15.2,12.4,27.7,27.7,27.7
					c15.2,0,27.7-12.4,27.7-27.7C-173.6-150.1-186-162.5-201.3-162.5z"/>
			</g>
			<g>
				<path class="st12" d="M-201.3-108.2c-14.7,0-26.6-12-26.6-26.6c0-14.7,12-26.6,26.6-26.6c14.7,0,26.6,12,26.6,26.6
					C-174.6-120.1-186.6-108.2-201.3-108.2z M-201.3-160.8c-14.3,0-26,11.7-26,26c0,14.3,11.7,26,26,26c14.3,0,26-11.7,26-26
					C-175.3-149.2-186.9-160.8-201.3-160.8z"/>
			</g>
			<g>
				<path class="st8" d="M-201.3-128.6c-2.6,0-4.7-2.1-4.7-4.7c0-2.6,2.1-4.7,4.7-4.7c2.6,0,4.7,2.1,4.7,4.7
					C-196.6-130.7-198.7-128.6-201.3-128.6z M-201.3-137.3c-2.2,0-4,1.8-4,4c0,2.2,1.8,4,4,4c2.2,0,4-1.8,4-4
					C-197.2-135.5-199-137.3-201.3-137.3z"/>
			</g>
			<g>
				<path class="st12" d="M-207.9-161.7c-0.1,0-0.2-0.1-0.3-0.2l-2.6-5c-0.1-0.2,0-0.4,0.1-0.4c0.2-0.1,0.4,0,0.4,0.1l2.6,5
					c0.1,0.2,0,0.4-0.1,0.4C-207.8-161.7-207.8-161.7-207.9-161.7z"/>
			</g>
			<g>
				<path class="st12" d="M-232.6-130.2c-0.1,0-0.1,0-0.2-0.1c-0.1-0.1-0.2-0.3-0.1-0.5l3.3-4.6c0.1-0.1,0.3-0.2,0.5-0.1
					c0.1,0.1,0.2,0.3,0.1,0.5l-3.3,4.6C-232.4-130.3-232.5-130.2-232.6-130.2z"/>
			</g>
			<g>
				<path class="st12" d="M-222.6-108.3c0,0-0.1,0-0.1,0c-0.2-0.1-0.3-0.2-0.2-0.4l1.9-5.3c0.1-0.2,0.2-0.3,0.4-0.2
					c0.2,0.1,0.3,0.2,0.2,0.4l-1.9,5.3C-222.3-108.4-222.4-108.3-222.6-108.3z"/>
			</g>
			<g>
				<path class="st12" d="M-225.4-154c-0.1,0-0.3-0.1-0.3-0.2c-0.1-0.2,0-0.4,0.2-0.4l6.4-2.2c0.2-0.1,0.4,0,0.4,0.2
					c0.1,0.2,0,0.4-0.2,0.4l-6.4,2.2C-225.4-154-225.4-154-225.4-154z"/>
			</g>
			<g>
				<path class="st1" d="M-208.1-169.4l-3-3.2c-0.2-0.3-0.6-0.3-1-0.2l-2.2,1.1c-0.3,0.2-0.5,0.5-0.4,0.9l1,4.3
					c0.1,0.5,0.7,0.8,1.2,0.5l4.3-2.2C-207.9-168.3-207.8-169-208.1-169.4z"/>
			</g>
			<g>
				<path class="st12" d="M-193.4-161.3c-0.1,0-0.1,0-0.2-0.1c-0.1-0.1-0.2-0.3-0.1-0.5l3.2-4.6c0.1-0.1,0.3-0.2,0.5-0.1
					c0.1,0.1,0.2,0.3,0.1,0.5l-3.2,4.6C-193.2-161.4-193.3-161.3-193.4-161.3z"/>
			</g>
			<g>
				<path class="st1" d="M-187-165.3l1.4-4.2c0.1-0.3,0-0.7-0.3-0.9l-2.1-1.4c-0.3-0.2-0.7-0.2-1,0.1l-3.3,2.9
					c-0.4,0.3-0.4,1,0.1,1.3l3.9,2.8C-187.8-164.6-187.2-164.8-187-165.3z"/>
			</g>
			<g>
				<path class="st3" d="M-225.4-110.2l-0.4,4.4c0,0.4,0.2,0.7,0.5,0.8l2.4,0.9c0.3,0.1,0.7,0,0.9-0.3l2.5-3.6
					c0.3-0.4,0.1-1-0.4-1.2l-4.5-1.7C-224.8-111.1-225.4-110.8-225.4-110.2z"/>
			</g>
			<g>
				<path class="st1" d="M-224.9-150.6l-4.4,0.4c-0.4,0-0.7-0.2-0.8-0.5l-0.9-2.3c-0.1-0.3,0-0.7,0.3-0.9l3.6-2.5
					c0.4-0.3,1-0.1,1.2,0.4l1.7,4.5C-224-151.2-224.3-150.6-224.9-150.6z"/>
			</g>
			<g>
				<path class="st3" d="M-235.5-131.6l-1.4,4.2c-0.1,0.3,0,0.7,0.3,0.9l2.1,1.4c0.3,0.2,0.7,0.2,1-0.1l3.3-2.9
					c0.4-0.3,0.4-1-0.1-1.3l-4-2.7C-234.7-132.3-235.3-132.1-235.5-131.6z"/>
			</g>
			<g>
				<path class="st12" d="M-170-130.2c-0.1,0-0.2,0-0.3-0.1l-3.3-4.6c-0.1-0.1-0.1-0.3,0.1-0.5c0.1-0.1,0.3-0.1,0.5,0.1l3.3,4.6
					c0.1,0.1,0.1,0.3-0.1,0.5C-169.8-130.2-169.9-130.2-170-130.2z"/>
			</g>
			<g>
				<path class="st12" d="M-180-108.3c-0.1,0-0.3-0.1-0.3-0.2l-1.9-5.3c-0.1-0.2,0-0.4,0.2-0.4c0.2-0.1,0.4,0,0.4,0.2l1.9,5.3
					c0.1,0.2,0,0.4-0.2,0.4C-179.9-108.3-180-108.3-180-108.3z"/>
			</g>
			<g>
				<path class="st12" d="M-177.1-154c0,0-0.1,0-0.1,0l-6.4-2.2c-0.2-0.1-0.3-0.2-0.2-0.4c0.1-0.2,0.2-0.3,0.4-0.2l6.4,2.2
					c0.2,0.1,0.3,0.2,0.2,0.4C-176.9-154.1-177-154-177.1-154z"/>
			</g>
			<g>
				<path class="st3" d="M-177.1-110.2l0.4,4.4c0,0.4-0.2,0.7-0.5,0.8l-2.4,0.9c-0.3,0.1-0.7,0-0.9-0.3l-2.5-3.6
					c-0.3-0.4-0.1-1,0.4-1.2l4.5-1.7C-177.7-111.1-177.2-110.8-177.1-110.2z"/>
			</g>
			<g>
				<path class="st1" d="M-177.7-150.6l4.4,0.4c0.4,0,0.7-0.2,0.8-0.5l0.9-2.3c0.1-0.3,0-0.7-0.3-0.9l-3.6-2.5
					c-0.4-0.3-1-0.1-1.2,0.4l-1.7,4.5C-178.6-151.2-178.2-150.6-177.7-150.6z"/>
			</g>
			<g>
				<path class="st3" d="M-167.1-131.6l1.4,4.2c0.1,0.3,0,0.7-0.3,0.9l-2.1,1.4c-0.3,0.2-0.7,0.2-1-0.1l-3.3-2.9
					c-0.4-0.3-0.4-1,0.1-1.3l4-2.7C-167.9-132.3-167.3-132.1-167.1-131.6z"/>
			</g>
			<g>
				<polygon class="st12" points="-200.9,-132 -216,-158.6 -215.4,-158.9 -201.6,-134.5 -201.6,-162.8 -200.9,-162.8 				"/>
			</g>
			<g>
				<polygon class="st12" points="-174.3,-127.1 -202.3,-133.2 -175.2,-144.9 -174.9,-144.3 -200.2,-133.4 -174.2,-127.8 				"/>
			</g>
			<g>
				<polygon class="st12" points="-227.2,-124.3 -227.4,-125 -202.2,-133.7 -228.4,-141.8 -228.2,-142.5 -200.1,-133.7 				"/>
			</g>
			<g>
				<path class="st12" d="M-201.3-100.9c-0.2,0-0.3-0.1-0.3-0.3v-5.6c0-0.2,0.1-0.3,0.3-0.3c0.2,0,0.3,0.1,0.3,0.3v5.6
					C-200.9-101.1-201.1-100.9-201.3-100.9z"/>
			</g>
			<g>
				
					<rect x="-208.7" y="-146.4" transform="matrix(0.4942 -0.8694 0.8694 0.4942 28.8092 -242.5525)" class="st12" width="29.3" height="0.6"/>
			</g>
			<g>
				<polygon class="st12" points="-200.9,-106.5 -201.6,-106.5 -201.6,-134.9 -186.5,-111.2 -187.1,-110.9 -200.9,-132.7 				"/>
			</g>
			<g>
				
					<rect x="-222" y="-122.7" transform="matrix(0.5364 -0.844 0.844 0.5364 6.6468 -232.7182)" class="st12" width="26.9" height="0.6"/>
			</g>
			<g>
				<path class="st11" d="M-215.7-90c0,0-0.1,0-0.1,0c-0.2-0.1-0.3-0.2-0.2-0.4l14.5-43.4c0.1-0.2,0.2-0.3,0.4-0.2
					c0.2,0.1,0.3,0.2,0.2,0.4l-14.5,43.4C-215.5-90.1-215.6-90-215.7-90z"/>
			</g>
			<g>
				<path class="st11" d="M-187.8-90c-0.1,0-0.3-0.1-0.3-0.2l-13.5-43.4c-0.1-0.2,0-0.4,0.2-0.4c0.2-0.1,0.4,0,0.4,0.2l13.5,43.4
					C-187.4-90.3-187.5-90.1-187.8-90C-187.7-90-187.7-90-187.8-90z"/>
			</g>
			<g>
				<path class="st8" d="M-199.8-133.3c0,0.8-0.6,1.4-1.4,1.4c-0.8,0-1.4-0.6-1.4-1.4c0-0.8,0.6-1.4,1.4-1.4
					C-200.5-134.7-199.8-134.1-199.8-133.3z"/>
			</g>
			<g>
				<path class="st3" d="M-204.5-102.5l0.9,4.3c0.1,0.4,0.4,0.6,0.7,0.6l2.5,0.2c0.4,0,0.7-0.2,0.8-0.6l1.4-4.2
					c0.2-0.5-0.2-1-0.7-1.1l-4.8-0.3C-204.1-103.6-204.6-103.1-204.5-102.5z"/>
			</g>
		</g>
		<g>
			<rect x="-219.8" y="-90.5" class="st12" width="36.6" height="0.6"/>
		</g>
	</g>
	<g>
		<g>
			<path class="st12" d="M-298.4,25.6c0.1-1-0.6-1.9-1.6-2.1c-0.9-0.2-1.8-0.3-2.1-0.4l-2.7-0.4c-0.4,0-0.7,0.4-0.8,0.9l0,1.4
				L-298.4,25.6L-298.4,25.6z"/>
			<g>
				<path class="st14" d="M-299,26.4L-305,26c-0.3,0-0.5-0.3-0.5-0.6V25l7.1,0.5l0,0.4C-298.5,26.2-298.7,26.4-299,26.4z"/>
				<line class="st26" x1="-301" y1="23.6" x2="-301.4" y2="24.5"/>
				<line class="st26" x1="-300.3" y1="23.6" x2="-300.7" y2="24.5"/>
				<line class="st26" x1="-299.5" y1="23.6" x2="-299.9" y2="24.5"/>
			</g>
		</g>
		<g>
			<path class="st12" d="M-326.1,24c0.9-0.4,1.4-1.4,1.2-2.4c-0.2-0.9-0.5-1.8-0.6-2l-0.9-2.6c-0.1-0.4-0.6-0.5-1.1-0.3l-1.3,0.6
				L-326.1,24L-326.1,24z"/>
			<g>
				<path class="st14" d="M-327.1,23.8l-2.3-5.5c-0.1-0.3,0-0.6,0.3-0.7l0.4-0.2l2.7,6.5l-0.4,0.2C-326.7,24.2-327,24-327.1,23.8z"
					/>
				<line class="st26" x1="-325.5" y1="20.7" x2="-326.5" y2="20.8"/>
				<line class="st26" x1="-325.2" y1="21.4" x2="-326.2" y2="21.5"/>
				<line class="st26" x1="-324.9" y1="22.1" x2="-325.8" y2="22.2"/>
			</g>
		</g>
		<path class="st27" d="M-314.6,13.2c1.7-0.6,2-0.8,2.4-3.3c0.4-2.5-1.6-4.2-1.1-6.2c0.4-2-1.5-3.1-2.5-4.2
			c-0.2-0.3-0.5-0.5-0.7-0.6l1.3,7.4c0.5,2.6-0.8,5.2-3.2,6.5l-4.8,2.5c0.6,0.5,1.2,0.8,1.4,0.9C-321,16.5-316.4,13.8-314.6,13.2z"
			/>
		<path class="st10" d="M-310.2,1.5l-1.3-1.8l2-1l1.1-2.4L-317-3l0.3,1.9c0.2,0.1,0.5,0.3,0.7,0.6c1,1.1,3,2.2,2.5,4.2
			c-0.4,2,1,3.2,0.6,5.7c-0.4,2.5-0.6,2.7-2.3,3.4c-1.7,0.6-5.9,3.8-6.8,3.5c-0.3-0.1-0.8-0.5-1.4-0.9l-0.6,0.3l2.1,2.8l6.2-2.8
			c3.6-1.3,6.6-4.1,6.6-7.5l0.1-3.4C-309.1,3.6-309.5,2.4-310.2,1.5z"/>
		<path class="st27" d="M-302.1,14.4c0.2-2.3,0.6-1.2,1.7-3c1.2-1.7-1.3-4.8-2.9-7.1c-3.5-5.2-6.5-4.4-6.1-3l3.7,5.2
			c2,2.8,2.8,6.4,2.1,9.8l-0.6,2.8c0.3-0.2,0.6-0.4,0.8-0.6C-301.8,17-302.3,16.7-302.1,14.4z"/>
		<path class="st10" d="M-303.6-7.5l-6.8,3.5l0.3,4.3l0.6,0.6c0.9-0.6,4,0.3,5.7,3.3c1.4,2.5,4.5,5.5,3.4,7.2
			c-1.2,1.7-1.5,0.6-1.7,3c-0.2,2.3,0.3,2.6-1.3,4.1c-0.2,0.2-0.5,0.4-0.8,0.6l-0.3,1.5l3.6-0.6l2.4-6.9c0.4-1.3,0.5-2.7,0.1-4
			L-303.6-7.5z"/>
		<polygon class="st13" points="-304.4,20.5 -304.9,22.8 -302.1,23.6 -300.9,19.9 		"/>
		<polygon class="st13" points="-326.7,17.1 -325.7,19.8 -321.9,18.5 -324,15.6 		"/>
		<polygon class="st10" points="-311.5,-0.3 -309,4.7 -309.5,-1.3 		"/>
		<path class="st13" d="M-289.8-16.5l-0.7,0l0.4-0.2c0.1-0.1,0.2-0.3,0.1-0.4c-0.1-0.1-0.3-0.2-0.4-0.1l-1.2,0.7l-3.1,0
			c-2.8,0-5.4-1-7.6-2.8l-2.8-2.3l-2.4,2.9c0,0,0.9,0.9,2.2,1.9c2.6,2.2,6.1,3.2,9.5,2.8l6.1-0.7c0,0,0.7-0.2,0.7-1
			C-289-16.2-289.8-16.5-289.8-16.5z"/>
		<polygon class="st13" points="-314,-22.3 -309.2,-23 -307.9,-19.6 -315.6,-20.4 		"/>
		<path class="st8" d="M-306.2-22.7l4,2.7c0.2,0.1,0.2,0.3,0,0.4l-2.9,2.4c-0.2,0.1-0.4,0-0.4-0.2l-1.1-5.2
			C-306.7-22.7-306.4-22.8-306.2-22.7z"/>
		<path class="st13" d="M-309-27.7l-0.3-3.7c0-0.2-0.1-0.5-0.2-0.7c-1.4-0.3-3.2-0.3-2.9,1.7c0.3,2.2,0.5,4.8,0.4,6.1l1,0
			c1.1,0,2-0.9,1.9-2L-309-27.7z"/>
		<path class="st13" d="M-308.9-28.6L-308.9-28.6c0.3-0.2,0.3-0.6,0-0.8l-0.3-0.2l-0.1,0.7C-309.4-28.7-309.1-28.5-308.9-28.6z"/>
		<g>
			
				<rect x="-312.5" y="-24.5" transform="matrix(0.9987 -5.110928e-02 5.110928e-02 0.9987 0.7913 -15.9419)" class="st13" width="2.3" height="2.2"/>
		</g>
		<path class="st10" d="M-309.1-34.2c-2.1-1.2-6.5-0.9-7.5,1.9c-0.8,2.1-0.6,3.9-0.1,4.7c0.2,0.4,1,0.8,1.7,1.1
			c0.7,0.3,1.2,0.9,1.4,1.6c0.1,0.4,0.5,0.7,1.1,0.6l0.5,0c0.8,0,0.3-2.4-0.2-4.5c0.1-0.1,0.1-0.2,0.1-0.3c0.3-0.9,0.1-1.5,0.8-1.9
			c0.7-0.4,0.8-1.1,1.3-1c0.4,0,0.1,0.3,0.5,0.4C-308.9-31.7-307.3-33.2-309.1-34.2z"/>
		<path class="st13" d="M-320.6-2.3l0-0.7l0.2,0.4c0.1,0.1,0.3,0.2,0.4,0.1c0.1-0.1,0.2-0.3,0.1-0.4l-0.7-1.2l-0.1-4.3
			c0-2.3,0.8-4.5,2.2-6.2l2.4-2.8l-2.8-2.6c0,0-0.1,0-0.2,0.1c-3.3,2.8-4.9,7.2-4.3,11.5l0.9,6.2c0,0,0.2,0.6,1,0.6
			C-320.9-1.5-320.6-2.3-320.6-2.3z"/>
		<path class="st8" d="M-317.5-21.4l-3.7,2.7c-0.3,0.2-0.4,0.7-0.2,1l2.4,3.3c0.3,0.4,0.9,0.4,1.1,0l1.9-2.7L-317.5-21.4z"/>
		<g>
			<path class="st28" d="M-316.3,0.9l-0.1-0.2c1.4-0.8,1-2.5,1-2.6l0.2-0.1C-315.2-1.9-314.7,0-316.3,0.9z"/>
		</g>
		<path class="st13" d="M-302,23c0,0.7-0.7,1.3-1.5,1.3c-0.8,0-1.5-0.6-1.5-1.3c0-0.7,0.9-2.2,1.7-2.2C-302.4,20.8-302,22.3-302,23z
			"/>
		<path class="st13" d="M-325.7,19.8c-0.6,0.3-1.5,0-1.8-0.8c-0.4-0.7-0.1-1.6,0.5-1.9c0.6-0.3,2.4-0.2,2.7,0.6
			C-323.9,18.4-325,19.5-325.7,19.8z"/>
		<path class="st29" d="M-305.1-5.2c0,0,0.5,2.2,2.7,1.2"/>
		<g>
			<path class="st28" d="M-309.7,0l-0.1-0.2c0,0,0.1-0.1,0.9-0.5c0.5-0.3,0-2-0.5-3.1l0.2-0.1c0.1,0.3,1.2,2.9,0.4,3.3
				C-309.6-0.1-309.7,0-309.7,0z"/>
		</g>
		<g>
			<g>
				<line class="st30" x1="-308.5" y1="0.9" x2="-308.2" y2="1.3"/>
				<path class="st31" d="M-307,2.9l2.4,3.3c1.9,2.6,2.6,5.8,2,8.9l-0.8,3.7"/>
				<line class="st30" x1="-303.7" y1="19.9" x2="-303.8" y2="20.4"/>
			</g>
		</g>
		<g>
			<g>
				<line class="st30" x1="-315.4" y1="1.4" x2="-315.3" y2="1.8"/>
				<path class="st32" d="M-314.9,3.7l0.5,2.2c0.6,3-0.9,6.1-3.6,7.6l-4,2.1"/>
				<line class="st30" x1="-322.9" y1="16" x2="-323.4" y2="16.2"/>
			</g>
		</g>
		<path class="st28" d="M-300.3,20.8h-4.3c-0.4,0-0.8-0.4-0.7-0.9l0.2-0.9c0.1-0.3,0.4-0.5,0.7-0.5l4.4,0.2c0.4,0,0.6,0.4,0.5,0.7
			l-0.3,1C-299.9,20.6-300.1,20.8-300.3,20.8z"/>
		<polygon class="st28" points="-322.9,19.8 -326,15.2 -323.7,14.4 -320.7,19.1 		"/>
		<path class="st8" d="M-306.1-22.3l-2.2-0.5l-0.9-0.2c0.6,1,0.4,2.1-0.3,2.4c-1.9,0.8-3.7-0.4-4.5-1.5c0-0.1,0-0.2,0-0.2l-3.5,1
			l0.4,16.6l0.1,2.4c0,0.5,0.5,0.8,0.9,0.7l13.1-4.2L-306.1-22.3z"/>
	</g>
	<g>
		<g>
			<g>
				<g>
					<line class="st33" x1="-371.7" y1="-107.4" x2="-374.1" y2="-98.8"/>
				</g>
				<g>
					
						<rect x="-377.4" y="-103.4" transform="matrix(0.2711 -0.9626 0.9626 0.2711 -172.5486 -434.0841)" class="st34" width="9" height="0.7"/>
				</g>
			</g>
			<g>
				
					<rect x="-372.7" y="-112.5" transform="matrix(0.2711 -0.9626 0.9626 0.2711 -160.1739 -436.1299)" class="st34" width="9.3" height="0.3"/>
			</g>
			<g>
				
					<rect x="-369.7" y="-119.6" transform="matrix(0.2707 -0.9627 0.9627 0.2707 -158.2243 -440.0932)" class="st34" width="0.3" height="8"/>
			</g>
			<g>
				
					<rect x="-370" y="-118.6" transform="matrix(0.2721 -0.9623 0.9623 0.2721 -158.9331 -439.317)" class="st34" width="0.3" height="8"/>
			</g>
			<g>
				
					<rect x="-370.3" y="-117.6" transform="matrix(0.2718 -0.9624 0.9624 0.2718 -160.2161 -438.9141)" class="st34" width="0.3" height="8"/>
			</g>
			<g>
				
					<rect x="-370.6" y="-116.6" transform="matrix(0.2717 -0.9624 0.9624 0.2717 -161.4305 -438.4664)" class="st34" width="0.3" height="8"/>
			</g>
			<g>
				
					<rect x="-370.9" y="-115.6" transform="matrix(0.272 -0.9623 0.9623 0.272 -162.5213 -437.94)" class="st34" width="0.3" height="8"/>
			</g>
			<g>
				
					<rect x="-371.2" y="-114.6" transform="matrix(0.2706 -0.9627 0.9627 0.2706 -164.1814 -437.7744)" class="st34" width="0.3" height="8"/>
			</g>
			<g>
				<polygon class="st34" points="-374.6,-110.3 -374.5,-110.6 -367.9,-108.8 -368,-108.4 				"/>
			</g>
			<g>
				
					<rect x="-369.4" y="-119.9" transform="matrix(0.2703 -0.9628 0.9628 0.2703 -157.1706 -440.6472)" class="st34" width="0.3" height="6.5"/>
			</g>
			<g>
				
					<rect x="-374.4" y="-112.8" transform="matrix(0.271 -0.9626 0.9626 0.271 -160.7243 -437.5399)" class="st34" width="10.4" height="0.3"/>
			</g>
			<g>
				
					<rect x="-375.8" y="-113.2" transform="matrix(0.2519 -0.9678 0.9678 0.2519 -167.8082 -443.1203)" class="st34" width="10.6" height="0.3"/>
			</g>
			<g>
				
					<rect x="-376.8" y="-113.4" transform="matrix(0.271 -0.9626 0.9626 0.271 -161.8831 -440.2726)" class="st34" width="10.4" height="0.3"/>
			</g>
			<g>
				
					<rect x="-377.4" y="-113.8" transform="matrix(0.271 -0.9626 0.9626 0.271 -162.3637 -441.6828)" class="st34" width="9.3" height="0.3"/>
			</g>
			<g>
				<path class="st8" d="M-373.3-108c-0.6-0.3-1.2-0.7-1.5-1.4c-0.4-0.7-0.5-1.6-0.3-2.4l1.3-4.7c0.5-1.7,2.2-2.7,3.9-2.2l2.2,0.6
					c1.7,0.5,2.7,2.2,2.2,3.9l-1.3,4.7c-0.2,0.8-0.8,1.5-1.5,1.9c-0.7,0.4-1.6,0.5-2.4,0.3l-2.2-0.6
					C-373.1-107.9-373.2-108-373.3-108z M-367.5-117.3c-0.1,0-0.2-0.1-0.3-0.1l-2.2-0.6c-0.6-0.2-1.3-0.1-1.9,0.2
					c-0.6,0.3-1,0.9-1.2,1.5l-1.3,4.7c-0.2,0.6-0.1,1.3,0.2,1.9c0.3,0.6,0.9,1,1.5,1.2l2.2,0.6c0.6,0.2,1.3,0.1,1.9-0.2
					c0.6-0.3,1-0.9,1.2-1.5l1.3-4.7C-365.8-115.5-366.4-116.8-367.5-117.3z"/>
			</g>
			<g>
				<path class="st8" d="M-372.7-104.5c-0.5-0.2-0.8-0.8-0.6-1.4l0.5-1.7c0.2-0.6,0.8-1,1.4-0.8c0.6,0.2,1,0.8,0.8,1.4l-0.5,1.7
					c-0.2,0.6-0.8,1-1.4,0.8C-372.6-104.4-372.6-104.4-372.7-104.5z"/>
			</g>
			<g>
				<path class="st8" d="M-374.8-96.6c-0.3-0.1-0.5-0.5-0.4-0.8l0.5-1.7c0.1-0.3,0.5-0.6,0.8-0.5c0.3,0.1,0.5,0.5,0.5,0.8l-0.5,1.7
					C-374-96.7-374.4-96.5-374.8-96.6C-374.7-96.6-374.8-96.6-374.8-96.6z"/>
			</g>
		</g>
		<g>
			<g>
				<g>
					<g>
						<line class="st34" x1="-347.6" y1="-119.8" x2="-346.5" y2="-118.4"/>
					</g>
					<g>
						<path class="st10" d="M-346.5-118.3c0,0-0.1,0-0.1,0l-1.1-1.4c0,0,0-0.1,0-0.1c0,0,0.1,0,0.1,0l1.1,1.4
							C-346.4-118.4-346.4-118.3-346.5-118.3z"/>
					</g>
				</g>
				<g>
					<g>
						<path class="st8" d="M-347.4-119.6L-347.4-119.6c-0.1,0.1-0.2,0-0.2,0l-0.4-0.5c-0.1-0.1,0-0.2,0-0.2l0,0c0.1-0.1,0.2,0,0.2,0
							l0.4,0.5C-347.3-119.7-347.4-119.6-347.4-119.6z"/>
					</g>
				</g>
			</g>
			<g>
				<g>
					<g>
						<line class="st34" x1="-348.2" y1="-119.5" x2="-346.8" y2="-118.3"/>
					</g>
					<g>
						<path class="st10" d="M-346.8-118.3c0,0-0.1,0-0.1,0l-1.4-1.2c0,0,0-0.1,0-0.1c0,0,0.1,0,0.1,0l1.4,1.2
							C-346.8-118.3-346.8-118.3-346.8-118.3z"/>
					</g>
				</g>
				<g>
					<g>
						<path class="st8" d="M-348-119.3L-348-119.3c-0.1,0.1-0.2,0.1-0.2,0l-0.5-0.4c-0.1-0.1-0.1-0.2,0-0.2l0,0
							c0.1-0.1,0.2-0.1,0.2,0l0.5,0.4C-347.9-119.5-347.9-119.4-348-119.3z"/>
					</g>
				</g>
			</g>
			<g>
				<g>
					<g>
						<line class="st34" x1="-349" y1="-117.7" x2="-347.2" y2="-117.3"/>
					</g>
					<g>
						<path class="st10" d="M-347.2-117.3C-347.2-117.3-347.2-117.3-347.2-117.3l-1.8-0.5c0,0-0.1,0-0.1,0.1c0,0,0,0.1,0.1,0.1
							L-347.2-117.3C-347.2-117.2-347.2-117.2-347.2-117.3z"/>
					</g>
				</g>
				<g>
					<g>
						<path class="st8" d="M-348.7-117.6L-348.7-117.6c0-0.1,0-0.2-0.1-0.2l-0.6-0.2c-0.1,0-0.2,0-0.2,0.1l0,0c0,0.1,0,0.2,0.1,0.2
							l0.6,0.2C-348.8-117.5-348.7-117.6-348.7-117.6z"/>
					</g>
				</g>
			</g>
			<g>
				<g>
					<g>
						<line class="st34" x1="-348.9" y1="-118.4" x2="-347.3" y2="-117.6"/>
					</g>
					<g>
						<path class="st10" d="M-347.2-117.6c0,0,0-0.1,0-0.1l-1.6-0.8c0,0-0.1,0-0.1,0c0,0,0,0.1,0,0.1l1.6,0.8
							C-347.3-117.5-347.3-117.5-347.2-117.6z"/>
					</g>
				</g>
				<g>
					<g>
						<path class="st8" d="M-348.7-118.3L-348.7-118.3c0-0.1,0-0.2-0.1-0.2l-0.6-0.3c-0.1,0-0.2,0-0.2,0.1l0,0c0,0.1,0,0.2,0.1,0.2
							l0.6,0.3C-348.8-118.1-348.7-118.2-348.7-118.3z"/>
					</g>
				</g>
			</g>
			<g>
				<g>
					<g>
						<line class="st34" x1="-348.6" y1="-119" x2="-347.1" y2="-118"/>
					</g>
					<g>
						<path class="st10" d="M-347.1-118c0,0-0.1,0-0.1,0l-1.5-1c0,0,0-0.1,0-0.1c0,0,0.1,0,0.1,0l1.5,1
							C-347.1-118.1-347.1-118-347.1-118z"/>
					</g>
				</g>
				<g>
					<g>
						<path class="st8" d="M-348.4-118.9L-348.4-118.9c-0.1,0.1-0.2,0.1-0.2,0.1l-0.5-0.4c-0.1-0.1-0.1-0.2,0-0.2l0,0
							c0.1-0.1,0.2-0.1,0.2,0l0.5,0.4C-348.4-119-348.3-118.9-348.4-118.9z"/>
					</g>
				</g>
			</g>
			<g>
				<path class="st11" d="M-346.8-118.6l-0.7,1.1c-0.1,0.1-0.1,0.3,0.1,0.4l0,0c0.1,0.1,0.3,0,0.4-0.1l0.7-1.1
					c0.1-0.1,0.1-0.3-0.1-0.4l0,0C-346.5-118.8-346.7-118.7-346.8-118.6z"/>
			</g>
			<g>
				<path class="st8" d="M-347.3-117.3l0.5,0.3c0.3,0.2,0.7,0.1,0.9-0.2c0.2-0.3,0.1-0.7-0.2-0.9l-0.5-0.3L-347.3-117.3z"/>
			</g>
			<g>
				<path class="st35" d="M-348-117.4C-348-117.4-348.1-117.4-348-117.4c-0.1,0-0.1,0-0.1,0l-0.1-0.6l0.4-0.5l0.2-0.5l0.6-0.1
					c0,0,0.1,0,0.1,0.1c0,0,0,0.1-0.1,0.1l-0.5,0.1l-0.2,0.4l-0.4,0.4L-348-117.4C-348-117.5-348-117.4-348-117.4z"/>
			</g>
		</g>
		<g>
			<path class="st35" d="M-336.3-102.2l-4.1,9c-0.7,1.6-2.2,2.6-3.9,2.9l-6.8,0.9l0.1,2.2l2.2,2.1l5.6-1.8c2.5-0.8,4.5-2.7,5.4-5.1
				l3.5-9.1L-336.3-102.2z"/>
			<path class="st35" d="M-336.3-102.2c0,0,0.7-0.7,1.3-0.4c0.9,0.5,0.8,1.4,0.8,1.4L-336.3-102.2z"/>
			<g>
				<line class="st35" x1="-337.1" y1="-101.9" x2="-337" y2="-100"/>
				<path class="st35" d="M-337-99.7c0.2,0,0.3-0.2,0.3-0.3l-0.1-1.9c0-0.2-0.2-0.3-0.3-0.3c-0.2,0-0.3,0.2-0.3,0.3l0.1,1.9
					C-337.3-99.8-337.2-99.7-337-99.7C-337-99.7-337-99.7-337-99.7z"/>
			</g>
		</g>
		<path class="st36" d="M-355.6-90.6c0,0-0.3,2.2,3.2,6.6c1.4,2.5,3.7,0.9,3.9,0.1l1.8-4.9c0.1-0.4-0.1-0.8-0.5-1l-0.4-0.3
			c-1.1-0.8-4.5-2.1-6-1.3C-353.6-91.4-355.2-91.1-355.6-90.6z"/>
		<g>
			<path class="st35" d="M-352.9-76.4l-5.3-1.9c-0.4-0.1-0.8,0.1-0.9,0.5l-3.7,12c-1.2,4-1.2,8.2,0.2,12.1l2.5,7.4
				c0.1,0.2,0.3,0.4,0.5,0.5l0,0c0.5,0.1,1-0.3,0.9-0.8l-1-8.7c-0.3-2.5,0.2-5,1.2-7.2l6-12.9C-352.3-75.8-352.5-76.2-352.9-76.4z"
				/>
			<path class="st35" d="M-351.5-65.2l-2-11.3c-0.1-0.5-0.6-0.9-1.1-0.8l-3.2,0.7c-0.5,0.1-0.9,0.6-0.7,1.2c0,0,0.6,7.2,2.4,12.6
				c1,3.1,3.5,5.5,6.7,6.4l9.8,2.6c0.5,0.1,1-0.1,1.2-0.6l0,0c0.2-0.5-0.1-1-0.5-1.2l-7.6-3.4C-349.2-60.1-351-62.4-351.5-65.2z"/>
			<g>
				<path class="st35" d="M-360.1-45.9l-0.5-0.6c-0.5,0.2-1.3,0.6-2,0.9c0.2,0.4,0.5,0.7,0.6,0.7C-361.8-45-360.1-45.9-360.1-45.9z"
					/>
				<path class="st37" d="M-358.8-47.2c-0.2,0.2-0.4,0.7-0.7,0.7c-0.3,0-0.5-0.1-0.7-0.2l0,0c0,0-0.2,0.1-0.4,0.2l0.5,0.6
					c0,0-1.7,0.9-1.9,0.9c-0.1,0-0.3-0.3-0.6-0.7c-0.1,0.1-0.3,0.1-0.4,0.2c-0.3,0.1-0.4,0.3-0.4,0.6c-0.1,0.7,0.4,1.2,1.1,0.9
					c1.4-0.5,4.1-1.5,4.3-1.7C-357.1-46.1-358-47.5-358.8-47.2z"/>
			</g>
			<g>
				<path class="st35" d="M-338.7-53.2l-0.8-0.1c-0.2,0.5-0.6,1.3-0.8,2c0.5,0.1,0.8,0.2,0.9,0.1C-339.3-51.4-338.7-53.2-338.7-53.2
					z"/>
				<path class="st37" d="M-338.7-55.4c0,0.2,0.3,0.3,0.2,1c0,0.3-0.5,0.6-0.7,0.7l0,0c0,0-0.1,0.2-0.2,0.4l0.8,0.1
					c0,0-0.6,1.8-0.7,2c-0.1,0.1-0.4,0-0.9-0.1c-0.1,0.1-0.1,0.3-0.2,0.4c-0.1,0.3-0.1,0.5,0.1,0.7c0.4,0.6,1.1,0.5,1.5-0.2
					c0.6-1.4,1.9-3.4,1.9-4.2C-337-55.8-338-55.7-338.7-55.4z"/>
			</g>
		</g>
		<path class="st11" d="M-352.3-87.4c0.9-3.5-1-4.1-2.4-4.2l-1.6,0.2c-0.3,0-0.5,0.1-0.7,0.2l-3.9,4.2c-0.4,0.4-0.6,0.9-0.5,1.4
			l0.9,5.9c0,0,0,0,0,0.1l0,0c0,0,0.2,1.7-0.4,2.3l-0.7,0.9c-0.2,0.2-0.4,0.4-0.6,0.6c-1.2,1.3-2,3.2-2.9,8.1
			c-0.8,4.5,7.3,3.8,14.6,1.6c3.4-1,2.5-4.6,0.6-7.1c-1.2-1.5-3-3.4-3-5C-352.9-82.9-352.3-87.4-352.3-87.4z"/>
		<g>
			<path class="st35" d="M-355.2-91.5l0.2-2c0-0.4,0.3-0.6,0.7-0.6l0,0c0.4,0,0.6,0.3,0.6,0.7l-0.2,2c0,0.4-0.3,0.6-0.7,0.6l0,0
				C-354.9-90.8-355.2-91.1-355.2-91.5z"/>
		</g>
		<g>
			<path class="st35" d="M-374-98.6l4.2,7.2c1.3,2.3,3.8,3.7,6.4,3.8l5.3,0.1l0.2,2.2l-1.8,1.4l-3.5,0c-0.7,0-1.4-0.1-2.1-0.3
				c-3-1-5.5-3.1-6.9-5.9l-3.7-7.4L-374-98.6z"/>
			<path class="st35" d="M-374-98.6c0,0-0.8-0.6-1.3-0.3c-0.8,0.6-0.6,1.4-0.6,1.4L-374-98.6z"/>
			<g>
				<line class="st35" x1="-373.2" y1="-98.4" x2="-373.1" y2="-96.5"/>
				<path class="st35" d="M-373.1-96.2c-0.2,0-0.3-0.1-0.3-0.3l-0.1-1.9c0-0.2,0.1-0.3,0.3-0.3c0.2,0,0.3,0.1,0.3,0.3l0.1,1.9
					C-372.8-96.3-372.9-96.2-373.1-96.2C-373.1-96.2-373.1-96.2-373.1-96.2z"/>
			</g>
		</g>
		<path class="st36" d="M-359.1-91c2.2-0.5,3.1-0.6,3.6,0c0,0,0.3,2.3-3.3,6.9c-1.4,2.6-3.9,1-4.1,0.1l-1-3.6
			c-0.1-0.4,0.1-0.9,0.5-1.1l0.4-0.3C-361.8-89.9-360.5-90.5-359.1-91L-359.1-91z"/>
		<g>
			<path class="st35" d="M-352.7-100.5c-0.1-0.5-0.2-1-0.3-1.5c-1.3,0.1-2.3,1.1-2.5,2.4l-0.8,5.1c0,2.7,3.4,0.6,4.8,0.8
				C-349.1-100.7-352.1-96.6-352.7-100.5z"/>
			<path class="st35" d="M-355.7-98.3l-1,1.1c-0.2,0.1-0.3,0.4-0.1,0.5l0.9,0.3"/>
			<g>
				<path class="st12" d="M-355.4-100c0.5,0,1.7-0.6,1.9,0.5c0.2,1.7,1,0.7,1.7,1c0.6,0.3-0.9,0.6-1.3,0.9c-2.2,1.6-0.6,4.4-0.6,4.4
					s3-0.3,4.4-2.4c2.2-3.2,2-5.4,0.1-7c-1.1-0.9-3.6-1.2-5.4-0.1C-356.4-101.6-357.7-99.8-355.4-100z"/>
				<path class="st11" d="M-347.3-98.7L-347.3-98.7c-0.3,0-0.5-0.1-0.5-0.4l-0.2-1.3c0-0.2,0.1-0.4,0.4-0.5l0,0
					c0.2,0,0.4,0.1,0.5,0.4l0.2,1.3C-346.9-98.9-347-98.7-347.3-98.7z"/>
				<path class="st12" d="M-347.3-100.9c0,0,1.1-1.2,2.3-1c2.8,0.4,7.1,2.9,2.9,7.6c-4.2,4.7-6,5.3-5.7,7c0.3,1.8-1.9,0.9-2.3-0.3
					c-0.1-0.4-0.8-1-0.5-1.7c0.3-0.6-0.5-0.8-0.6-1.1c-0.1-0.7,1.8-2.3,1.3-2.8c-0.5-0.4,0.9-1.4,1.6-2.8c0.7-1.4,0.6-0.9,0.6-1.8
					C-347.6-98.6-347.3-100.9-347.3-100.9z"/>
			</g>
		</g>
	</g>
</g>
<g id="DESIGNED_BY_FREEPIK">
	<g id="XMLID_76_">
		<g id="XMLID_929_">
			<path id="XMLID_958_" class="st8" d="M-411,181.8c-0.2,0-0.4,0.1-0.6,0.3c-0.1,0.2-0.2,0.4-0.2,0.8v2.4c-0.3-0.3-0.6-0.6-0.9-0.7
				c-0.3-0.2-0.7-0.2-1.2-0.2c-0.8,0-1.5,0.3-2,0.8c-0.5,0.6-0.7,1.4-0.7,2.4c0,0.5,0.1,0.9,0.2,1.3c0.1,0.4,0.3,0.8,0.5,1.1
				c0.2,0.3,0.5,0.5,0.9,0.7c0.3,0.2,0.7,0.2,1.1,0.2c0.3,0,0.6,0,0.8-0.1c0.2-0.1,0.5-0.2,0.7-0.4c0.2-0.2,0.4-0.4,0.6-0.6v0.2
				c0,0.3,0.1,0.5,0.2,0.7c0.1,0.2,0.3,0.2,0.5,0.2c0.2,0,0.4-0.1,0.6-0.2c0.1-0.2,0.2-0.4,0.2-0.7v-7.1c0-0.3-0.1-0.5-0.2-0.7
				C-410.6,181.9-410.8,181.8-411,181.8z M-412.1,188.7c-0.1,0.3-0.3,0.5-0.6,0.7c-0.2,0.1-0.5,0.2-0.8,0.2c-0.3,0-0.5-0.1-0.8-0.2
				c-0.2-0.2-0.4-0.4-0.6-0.7c-0.1-0.3-0.2-0.7-0.2-1.1c0-0.4,0.1-0.8,0.2-1.1c0.1-0.3,0.3-0.6,0.5-0.7c0.2-0.2,0.5-0.3,0.8-0.3
				c0.3,0,0.5,0.1,0.8,0.2c0.2,0.2,0.4,0.4,0.6,0.7c0.1,0.3,0.2,0.7,0.2,1.1C-411.9,188-412,188.4-412.1,188.7z"/>
			<path id="XMLID_954_" class="st8" d="M-403.7,187.8c0.2-0.1,0.4-0.4,0.4-0.8c0-0.4-0.1-0.9-0.3-1.3c-0.2-0.4-0.6-0.8-1-1
				c-0.5-0.3-1-0.4-1.6-0.4c-0.5,0-0.9,0.1-1.3,0.2c-0.4,0.2-0.7,0.4-1,0.7c-0.3,0.3-0.5,0.6-0.6,1.1c-0.1,0.4-0.2,0.9-0.2,1.3
				c0,1,0.3,1.8,0.9,2.4c0.6,0.6,1.4,0.9,2.4,0.9c0.5,0,0.9-0.1,1.2-0.2c0.4-0.1,0.6-0.3,0.9-0.4c0.2-0.2,0.4-0.4,0.5-0.6
				c0.1-0.2,0.2-0.4,0.2-0.5c0-0.2-0.1-0.3-0.2-0.4c-0.1-0.1-0.2-0.1-0.4-0.1c-0.2,0-0.3,0-0.4,0.1c-0.2,0.2-0.4,0.3-0.5,0.5
				s-0.3,0.2-0.4,0.3c-0.2,0.1-0.3,0.2-0.5,0.2c-0.2,0-0.3,0.1-0.5,0.1c-0.3,0-0.6-0.1-0.8-0.2c-0.2-0.1-0.4-0.4-0.6-0.6
				c-0.1-0.3-0.2-0.6-0.2-1h3.2C-404.2,187.9-403.9,187.9-403.7,187.8z M-407.8,187c0.1-0.5,0.2-1,0.5-1.2c0.3-0.3,0.6-0.4,1-0.4
				c0.4,0,0.8,0.1,1,0.4c0.3,0.3,0.4,0.7,0.4,1.2H-407.8z"/>
			<path id="XMLID_952_" class="st8" d="M-398.2,187.3c-0.3-0.2-0.7-0.3-1.2-0.4c-0.4-0.1-0.8-0.2-1-0.3c-0.2-0.1-0.4-0.2-0.6-0.3
				c-0.1-0.1-0.2-0.2-0.2-0.4c0-0.2,0.1-0.3,0.3-0.5c0.2-0.1,0.4-0.2,0.7-0.2c0.3,0,0.5,0,0.7,0.1c0.2,0.1,0.3,0.2,0.4,0.4
				c0.2,0.2,0.3,0.3,0.4,0.4c0.1,0.1,0.3,0.1,0.4,0.1c0.2,0,0.4-0.1,0.5-0.2c0.1-0.1,0.2-0.3,0.2-0.5c0-0.2-0.1-0.3-0.2-0.5
				c-0.1-0.2-0.3-0.3-0.5-0.5c-0.2-0.1-0.5-0.3-0.8-0.4c-0.3-0.1-0.7-0.1-1.1-0.1c-0.5,0-1,0.1-1.4,0.3c-0.4,0.2-0.7,0.4-0.9,0.7
				c-0.2,0.3-0.3,0.6-0.3,0.9c0,0.4,0.1,0.7,0.3,0.9c0.2,0.2,0.5,0.5,0.8,0.6c0.4,0.2,0.8,0.3,1.4,0.4c0.5,0.1,0.8,0.2,1.1,0.4
				c0.2,0.1,0.3,0.3,0.3,0.6c0,0.2-0.1,0.4-0.3,0.5c-0.2,0.1-0.5,0.2-0.8,0.2c-0.4,0-0.7-0.1-0.9-0.2c-0.2-0.1-0.4-0.4-0.6-0.6
				c-0.1-0.2-0.2-0.3-0.3-0.4c-0.1-0.1-0.2-0.1-0.4-0.1c-0.2,0-0.4,0.1-0.5,0.2c-0.1,0.1-0.2,0.3-0.2,0.5c0,0.3,0.1,0.5,0.3,0.8
				c0.2,0.3,0.5,0.5,0.9,0.7c0.4,0.2,0.9,0.3,1.5,0.3c0.6,0,1.1-0.1,1.6-0.2c0.4-0.2,0.7-0.4,1-0.7c0.2-0.3,0.3-0.7,0.3-1.1
				c0-0.3-0.1-0.6-0.2-0.8C-397.7,187.7-397.9,187.5-398.2,187.3z"/>
			<path id="XMLID_950_" class="st8" d="M-395.6,184.3c-0.2,0-0.4,0.1-0.6,0.2c-0.1,0.2-0.2,0.4-0.2,0.7v4.6c0,0.3,0.1,0.6,0.2,0.7
				c0.1,0.2,0.3,0.3,0.6,0.3s0.4-0.1,0.6-0.2c0.2-0.2,0.2-0.4,0.2-0.7v-4.7c0-0.3-0.1-0.5-0.2-0.7
				C-395.2,184.3-395.4,184.3-395.6,184.3z"/>
			<path id="XMLID_949_" class="st8" d="M-395.6,181.9c-0.2,0-0.4,0.1-0.6,0.2c-0.2,0.1-0.2,0.3-0.2,0.6c0,0.3,0.1,0.4,0.2,0.6
				c0.2,0.1,0.4,0.2,0.6,0.2c0.2,0,0.4-0.1,0.6-0.2c0.2-0.1,0.2-0.3,0.2-0.6c0-0.3-0.1-0.5-0.2-0.6
				C-395.2,182-395.4,181.9-395.6,181.9z"/>
			<path id="XMLID_945_" class="st8" d="M-388.5,184.3c-0.2,0-0.4,0.1-0.5,0.2c-0.1,0.2-0.2,0.4-0.2,0.7v0.2
				c-0.3-0.4-0.6-0.7-0.9-0.8c-0.3-0.2-0.7-0.3-1.2-0.3c-0.4,0-0.7,0.1-1.1,0.2c-0.3,0.1-0.6,0.3-0.8,0.6c-0.2,0.3-0.4,0.6-0.6,1
				c-0.1,0.4-0.2,0.8-0.2,1.3c0,0.7,0.1,1.2,0.3,1.7c0.2,0.5,0.5,0.9,0.9,1.2c0.4,0.3,0.9,0.4,1.4,0.4c0.5,0,0.8-0.1,1.2-0.3
				c0.3-0.2,0.6-0.4,0.9-0.8c0,0.5,0,0.9,0,1.2c0,0.2-0.1,0.5-0.2,0.7c-0.1,0.2-0.3,0.4-0.5,0.5c-0.2,0.1-0.6,0.2-1,0.2
				c-0.2,0-0.4,0-0.5-0.1c-0.2,0-0.3-0.1-0.4-0.2c-0.1-0.1-0.2-0.2-0.3-0.3c-0.1-0.1-0.2-0.2-0.3-0.3c-0.2-0.2-0.4-0.3-0.6-0.3
				c-0.2,0-0.4,0.1-0.5,0.2c-0.1,0.1-0.2,0.3-0.2,0.5c0,0.3,0.1,0.5,0.4,0.8c0.2,0.2,0.6,0.4,1,0.6c0.4,0.2,0.9,0.2,1.5,0.2
				c0.6,0,1.1-0.1,1.5-0.2c0.4-0.1,0.7-0.3,1-0.6c0.3-0.3,0.4-0.6,0.6-1c0.1-0.4,0.2-0.9,0.2-1.4v-4.7c0-0.4-0.1-0.7-0.2-0.9
				C-388,184.4-388.2,184.3-388.5,184.3z M-389.5,188.6c-0.2,0.3-0.3,0.5-0.6,0.7c-0.2,0.1-0.5,0.2-0.8,0.2c-0.5,0-0.8-0.2-1.1-0.5
				c-0.3-0.3-0.4-0.8-0.4-1.5c0-0.6,0.1-1.2,0.4-1.5c0.3-0.4,0.6-0.5,1.1-0.5c0.5,0,0.9,0.2,1.1,0.6c0.3,0.4,0.4,0.9,0.4,1.5
				C-389.3,188-389.4,188.3-389.5,188.6z"/>
			<path id="XMLID_944_" class="st8" d="M-381.1,185.3c-0.2-0.3-0.4-0.6-0.8-0.8c-0.3-0.2-0.7-0.3-1.1-0.3c-0.4,0-0.8,0.1-1.2,0.3
				c-0.3,0.2-0.7,0.5-0.9,0.8v-0.2c0-0.2,0-0.4-0.1-0.5c-0.1-0.1-0.2-0.2-0.3-0.3c-0.1-0.1-0.2-0.1-0.4-0.1c-0.2,0-0.4,0.1-0.6,0.2
				c-0.1,0.2-0.2,0.4-0.2,0.7v4.7c0,0.3,0.1,0.6,0.2,0.7c0.2,0.2,0.3,0.3,0.6,0.3c0.2,0,0.4-0.1,0.6-0.2c0.2-0.2,0.2-0.4,0.2-0.7v-2
				c0-0.7,0-1.1,0.1-1.4c0.1-0.3,0.3-0.5,0.5-0.7c0.2-0.2,0.5-0.3,0.8-0.3c0.4,0,0.7,0.1,0.9,0.4c0.1,0.3,0.2,0.7,0.2,1.2v2.7
				c0,0.3,0.1,0.6,0.2,0.7c0.2,0.2,0.3,0.3,0.6,0.3c0.2,0,0.4-0.1,0.6-0.2c0.1-0.2,0.2-0.4,0.2-0.7v-3c0-0.4,0-0.6,0-0.9
				C-381,185.7-381,185.5-381.1,185.3z"/>
			<path id="XMLID_939_" class="st8" d="M-374.3,187.8c0.2-0.1,0.4-0.4,0.4-0.8c0-0.4-0.1-0.9-0.3-1.3c-0.2-0.4-0.6-0.8-1-1
				c-0.5-0.3-1-0.4-1.6-0.4c-0.5,0-0.9,0.1-1.3,0.2c-0.4,0.2-0.7,0.4-1,0.7c-0.3,0.3-0.5,0.6-0.6,1.1c-0.1,0.4-0.2,0.9-0.2,1.3
				c0,1,0.3,1.8,0.9,2.4c0.6,0.6,1.4,0.9,2.4,0.9c0.5,0,0.9-0.1,1.2-0.2c0.4-0.1,0.6-0.3,0.9-0.4c0.2-0.2,0.4-0.4,0.5-0.6
				c0.1-0.2,0.2-0.4,0.2-0.5c0-0.2-0.1-0.3-0.2-0.4c-0.1-0.1-0.2-0.1-0.4-0.1c-0.2,0-0.3,0-0.4,0.1c-0.2,0.2-0.4,0.3-0.5,0.5
				c-0.1,0.1-0.3,0.2-0.4,0.3c-0.2,0.1-0.3,0.2-0.5,0.2c-0.2,0-0.3,0.1-0.5,0.1c-0.3,0-0.6-0.1-0.8-0.2c-0.2-0.1-0.4-0.4-0.6-0.6
				c-0.1-0.3-0.2-0.6-0.2-1h3.2C-374.9,187.9-374.5,187.9-374.3,187.8z M-378.5,187c0.1-0.5,0.2-1,0.5-1.2c0.3-0.3,0.6-0.4,1-0.4
				c0.4,0,0.8,0.1,1,0.4c0.3,0.3,0.4,0.7,0.4,1.2H-378.5z"/>
			<path id="XMLID_936_" class="st8" d="M-367.9,181.8c-0.2,0-0.4,0.1-0.6,0.3c-0.1,0.2-0.2,0.4-0.2,0.8v2.4
				c-0.3-0.3-0.6-0.6-0.9-0.7c-0.3-0.2-0.7-0.2-1.2-0.2c-0.8,0-1.5,0.3-2,0.8c-0.5,0.6-0.7,1.4-0.7,2.4c0,0.5,0.1,0.9,0.2,1.3
				c0.1,0.4,0.3,0.8,0.5,1.1c0.2,0.3,0.5,0.5,0.9,0.7c0.3,0.2,0.7,0.2,1.1,0.2c0.3,0,0.6,0,0.8-0.1c0.2-0.1,0.5-0.2,0.7-0.4
				c0.2-0.2,0.4-0.4,0.6-0.6v0.2c0,0.3,0.1,0.5,0.2,0.7c0.1,0.2,0.3,0.2,0.5,0.2c0.2,0,0.4-0.1,0.6-0.2c0.1-0.2,0.2-0.4,0.2-0.7
				v-7.1c0-0.3-0.1-0.5-0.2-0.7C-367.5,181.9-367.7,181.8-367.9,181.8z M-369,188.7c-0.1,0.3-0.3,0.5-0.6,0.7
				c-0.2,0.1-0.5,0.2-0.8,0.2c-0.3,0-0.5-0.1-0.8-0.2c-0.2-0.2-0.4-0.4-0.6-0.7c-0.1-0.3-0.2-0.7-0.2-1.1c0-0.4,0.1-0.8,0.2-1.1
				c0.1-0.3,0.3-0.6,0.5-0.7c0.2-0.2,0.5-0.3,0.8-0.3c0.3,0,0.5,0.1,0.8,0.2c0.2,0.2,0.4,0.4,0.6,0.7c0.1,0.3,0.2,0.7,0.2,1.1
				C-368.8,188-368.8,188.4-369,188.7z"/>
			<path id="XMLID_933_" class="st8" d="M-358.5,184.6c-0.4-0.3-0.9-0.4-1.4-0.4c-0.5,0-0.9,0.1-1.2,0.3c-0.3,0.2-0.6,0.4-0.9,0.7
				v-2.5c0-0.3-0.1-0.5-0.2-0.7c-0.1-0.2-0.3-0.2-0.6-0.2c-0.2,0-0.4,0.1-0.6,0.3c-0.1,0.2-0.2,0.4-0.2,0.7v7.1
				c0,0.3,0.1,0.5,0.2,0.7c0.1,0.2,0.3,0.2,0.5,0.2c0.2,0,0.4-0.1,0.6-0.2c0.1-0.2,0.2-0.4,0.2-0.7v-0.2c0.2,0.2,0.3,0.4,0.4,0.5
				c0.1,0.1,0.2,0.2,0.4,0.3c0.2,0.1,0.3,0.2,0.6,0.2c0.2,0.1,0.5,0.1,0.7,0.1c0.4,0,0.8-0.1,1.1-0.2c0.3-0.2,0.6-0.4,0.9-0.7
				c0.2-0.3,0.4-0.7,0.5-1.1c0.1-0.4,0.2-0.9,0.2-1.3c0-0.7-0.1-1.2-0.3-1.7C-357.8,185.3-358.1,184.9-358.5,184.6z M-359.3,189.1
				c-0.3,0.4-0.6,0.5-1.1,0.5c-0.5,0-0.9-0.2-1.2-0.5c-0.3-0.3-0.4-0.8-0.4-1.5c0-0.4,0.1-0.8,0.2-1.1c0.1-0.3,0.3-0.6,0.6-0.7
				c0.2-0.2,0.5-0.3,0.8-0.3c0.3,0,0.6,0.1,0.8,0.3c0.2,0.2,0.4,0.4,0.5,0.7c0.1,0.3,0.2,0.7,0.2,1.1
				C-358.9,188.2-359,188.7-359.3,189.1z"/>
			<path id="XMLID_931_" class="st8" d="M-351.6,184.4c-0.1-0.1-0.2-0.1-0.4-0.1c-0.2,0-0.3,0-0.4,0.1c-0.1,0.1-0.2,0.2-0.3,0.3
				c-0.1,0.2-0.2,0.4-0.3,0.7l-1.3,3.7l-1.4-4c-0.1-0.3-0.2-0.5-0.3-0.6c-0.1-0.1-0.3-0.2-0.5-0.2c-0.1,0-0.3,0-0.4,0.1
				c-0.1,0.1-0.2,0.2-0.3,0.3c-0.1,0.1-0.1,0.2-0.1,0.4c0,0.1,0.1,0.3,0.2,0.6l2,5l-0.1,0.4c-0.1,0.3-0.2,0.5-0.3,0.6
				c-0.1,0.1-0.2,0.2-0.3,0.3c-0.1,0.1-0.3,0.1-0.4,0.1c-0.1,0-0.2,0-0.3,0c-0.1,0-0.2,0-0.3,0c-0.2,0-0.4,0.1-0.5,0.2
				c-0.1,0.1-0.2,0.2-0.2,0.4c0,0.3,0.1,0.5,0.4,0.6c0.2,0.1,0.6,0.2,1.1,0.2c0.5,0,0.9-0.1,1.2-0.2c0.3-0.1,0.5-0.4,0.7-0.6
				c0.2-0.3,0.4-0.7,0.5-1.1l2.1-5.5c0.1-0.1,0.1-0.3,0.1-0.4c0-0.1,0.1-0.2,0.1-0.3c0-0.1,0-0.2-0.1-0.3
				C-351.4,184.5-351.5,184.4-351.6,184.4z"/>
		</g>
		<g id="XMLID_365_">
			<g id="XMLID_380_">
				<path id="XMLID_928_" class="st8" d="M-329.2,181.8c-0.5,0-1,0.1-1.3,0.2c-0.3,0.1-0.5,0.4-0.7,0.7c-0.1,0.3-0.2,0.7-0.2,1.2
					v0.5h-0.4c-0.5,0-0.8,0.2-0.8,0.6c0,0.2,0.1,0.3,0.2,0.4c0.1,0.1,0.3,0.2,0.6,0.2h0.4v4.3c0,0.3,0.1,0.6,0.2,0.7
					c0.2,0.2,0.3,0.3,0.6,0.3c0.2,0,0.4-0.1,0.6-0.3c0.2-0.2,0.2-0.4,0.2-0.7v-4.3h0.4c0.3,0,0.5,0,0.7-0.1c0.2-0.1,0.2-0.2,0.2-0.5
					c0-0.4-0.3-0.6-0.9-0.6h-0.4V184c0-0.3,0-0.6,0.1-0.7c0.1-0.2,0.3-0.3,0.6-0.3c0.1,0,0.2,0,0.4,0c0.2,0,0.3,0,0.3,0
					c0.1,0,0.3-0.1,0.3-0.2c0.1-0.1,0.2-0.2,0.2-0.4C-327.8,182.1-328.2,181.8-329.2,181.8z"/>
				<path id="XMLID_926_" class="st8" d="M-324,184.5c-0.3-0.2-0.6-0.3-1-0.3c-0.3,0-0.6,0.1-0.8,0.3c-0.2,0.2-0.4,0.4-0.6,0.8
					c0-0.3-0.1-0.6-0.2-0.8c-0.1-0.2-0.3-0.3-0.6-0.3c-0.5,0-0.8,0.4-0.8,1.1v4.5c0,0.3,0.1,0.6,0.2,0.7c0.1,0.2,0.3,0.2,0.6,0.2
					c0.2,0,0.4-0.1,0.6-0.2c0.2-0.2,0.2-0.4,0.2-0.7v-1.4c0-0.5,0-0.9,0-1.2c0-0.3,0.1-0.6,0.2-0.9c0.1-0.2,0.2-0.4,0.4-0.6
					c0.1-0.1,0.3-0.2,0.6-0.2c0.2,0,0.4,0,0.6,0.1c0.2,0.1,0.4,0.1,0.4,0.1c0.2,0,0.3-0.1,0.4-0.2c0.1-0.1,0.2-0.3,0.2-0.5
					C-323.6,184.9-323.7,184.7-324,184.5z"/>
				<path id="XMLID_922_" class="st8" d="M-318,187.8c0.2-0.1,0.4-0.4,0.4-0.8c0-0.4-0.1-0.9-0.3-1.3c-0.2-0.4-0.6-0.8-1-1
					c-0.5-0.3-1-0.4-1.6-0.4c-0.5,0-0.9,0.1-1.3,0.2c-0.4,0.2-0.7,0.4-1,0.7c-0.3,0.3-0.5,0.6-0.6,1.1c-0.1,0.4-0.2,0.9-0.2,1.3
					c0,1,0.3,1.8,0.9,2.4c0.6,0.6,1.4,0.9,2.4,0.9c0.5,0,0.9-0.1,1.2-0.2c0.3-0.1,0.6-0.3,0.9-0.4c0.2-0.2,0.4-0.4,0.5-0.6
					c0.1-0.2,0.2-0.4,0.2-0.5c0-0.2,0-0.3-0.2-0.4c-0.1-0.1-0.2-0.1-0.4-0.1c-0.2,0-0.3,0-0.4,0.1c-0.2,0.2-0.4,0.3-0.5,0.4
					c-0.1,0.1-0.3,0.2-0.4,0.3c-0.2,0.1-0.3,0.2-0.5,0.2c-0.2,0-0.3,0.1-0.5,0.1c-0.3,0-0.6-0.1-0.8-0.2c-0.2-0.1-0.4-0.4-0.6-0.6
					c-0.1-0.3-0.2-0.6-0.2-1h3.2C-318.5,187.9-318.2,187.9-318,187.8z M-322.1,187c0.1-0.5,0.2-1,0.5-1.2c0.3-0.3,0.6-0.4,1-0.4
					c0.4,0,0.8,0.1,1,0.4c0.3,0.3,0.4,0.7,0.4,1.2H-322.1z"/>
				<path id="XMLID_919_" class="st8" d="M-311.2,187.8c0.2-0.1,0.4-0.4,0.4-0.8c0-0.4-0.1-0.9-0.3-1.3c-0.2-0.4-0.6-0.8-1-1
					c-0.5-0.3-1-0.4-1.6-0.4c-0.5,0-0.9,0.1-1.3,0.2c-0.4,0.2-0.7,0.4-1,0.7c-0.3,0.3-0.5,0.6-0.6,1.1c-0.1,0.4-0.2,0.9-0.2,1.3
					c0,1,0.3,1.8,0.9,2.4c0.6,0.6,1.4,0.9,2.4,0.9c0.5,0,0.9-0.1,1.2-0.2c0.3-0.1,0.6-0.3,0.9-0.4c0.2-0.2,0.4-0.4,0.5-0.6
					c0.1-0.2,0.2-0.4,0.2-0.5c0-0.2,0-0.3-0.2-0.4c-0.1-0.1-0.2-0.1-0.4-0.1c-0.2,0-0.3,0-0.4,0.1c-0.2,0.2-0.4,0.3-0.5,0.4
					c-0.1,0.1-0.3,0.2-0.4,0.3c-0.2,0.1-0.3,0.2-0.5,0.2c-0.2,0-0.3,0.1-0.5,0.1c-0.3,0-0.6-0.1-0.8-0.2c-0.2-0.1-0.4-0.4-0.6-0.6
					c-0.1-0.3-0.2-0.6-0.2-1h3.2C-311.8,187.9-311.4,187.9-311.2,187.8z M-315.4,187c0.1-0.5,0.2-1,0.5-1.2c0.3-0.3,0.6-0.4,1-0.4
					c0.4,0,0.8,0.1,1,0.4c0.3,0.3,0.4,0.7,0.4,1.2H-315.4z"/>
				<path id="XMLID_390_" class="st8" d="M-305.2,184.6c-0.4-0.3-0.9-0.4-1.4-0.4c-0.4,0-0.8,0.1-1.1,0.3c-0.3,0.2-0.6,0.5-1,0.8
					v-0.2c0-0.3-0.1-0.5-0.2-0.7c-0.1-0.2-0.3-0.2-0.6-0.2c-0.2,0-0.4,0.1-0.6,0.2c-0.1,0.2-0.2,0.4-0.2,0.7v7
					c0,0.4,0.1,0.6,0.1,0.8c0.1,0.2,0.3,0.3,0.6,0.3c0.5,0,0.8-0.4,0.8-1.1v-2.4c0.3,0.4,0.6,0.6,0.9,0.8c0.3,0.2,0.7,0.3,1.2,0.3
					c0.4,0,0.7-0.1,1.1-0.2c0.3-0.2,0.6-0.4,0.9-0.7c0.2-0.3,0.4-0.6,0.6-1c0.1-0.4,0.2-0.9,0.2-1.4c0-0.7-0.1-1.3-0.4-1.8
					C-304.5,185.3-304.8,184.9-305.2,184.6z M-305.7,188.7c-0.1,0.3-0.3,0.5-0.6,0.7c-0.2,0.2-0.5,0.2-0.7,0.2
					c-0.5,0-0.8-0.2-1.1-0.5c-0.3-0.4-0.5-0.9-0.5-1.5c0-0.7,0.2-1.2,0.5-1.6c0.3-0.3,0.7-0.5,1.1-0.5c0.3,0,0.5,0.1,0.8,0.2
					c0.2,0.2,0.4,0.4,0.5,0.7c0.1,0.3,0.2,0.7,0.2,1.1C-305.5,188-305.5,188.3-305.7,188.7z"/>
				<path id="XMLID_389_" class="st8" d="M-302.2,184.3c-0.2,0-0.4,0.1-0.6,0.2c-0.1,0.2-0.2,0.4-0.2,0.7v4.6c0,0.3,0.1,0.6,0.2,0.7
					c0.2,0.2,0.3,0.3,0.6,0.3c0.2,0,0.4-0.1,0.6-0.2c0.2-0.2,0.2-0.4,0.2-0.7v-4.7c0-0.3-0.1-0.5-0.2-0.7
					C-301.8,184.3-302,184.3-302.2,184.3z"/>
				<path id="XMLID_388_" class="st8" d="M-302.2,181.9c-0.2,0-0.4,0.1-0.6,0.2c-0.2,0.1-0.2,0.3-0.2,0.6c0,0.3,0.1,0.4,0.2,0.6
					c0.2,0.1,0.3,0.2,0.6,0.2c0.2,0,0.4-0.1,0.6-0.2c0.2-0.1,0.2-0.3,0.2-0.6c0-0.3-0.1-0.5-0.2-0.6
					C-301.8,182-302,181.9-302.2,181.9z"/>
				<path id="XMLID_387_" class="st8" d="M-294.9,189.3l-1.7-2.6l0.9-0.8c0.4-0.4,0.7-0.7,0.7-1c0-0.2-0.1-0.4-0.2-0.5
					c-0.1-0.1-0.3-0.2-0.5-0.2c-0.2,0-0.3,0-0.4,0.1c-0.1,0.1-0.3,0.3-0.5,0.5l-1.8,1.9v-3.9c0-0.3-0.1-0.6-0.2-0.8
					c-0.1-0.2-0.3-0.3-0.6-0.3c-0.3,0-0.5,0.1-0.6,0.3c-0.1,0.2-0.2,0.5-0.2,0.8v6.9c0,0.3,0.1,0.6,0.2,0.7c0.1,0.2,0.3,0.2,0.6,0.2
					c0.2,0,0.4-0.1,0.6-0.3c0.2-0.2,0.2-0.4,0.2-0.7v-1.3l0.9-0.8l1.4,2.4c0.2,0.3,0.3,0.5,0.4,0.6c0.1,0.1,0.3,0.2,0.5,0.2
					c0.2,0,0.4-0.1,0.6-0.2c0.1-0.2,0.2-0.4,0.2-0.6c0-0.1,0-0.2-0.1-0.3C-294.7,189.6-294.7,189.5-294.9,189.3z"/>
				<path id="XMLID_386_" class="st8" d="M-292.7,189.1c-0.3,0-0.5,0.1-0.6,0.3c-0.2,0.2-0.3,0.4-0.3,0.6c0,0.3,0.1,0.5,0.3,0.7
					c0.2,0.2,0.4,0.2,0.6,0.2c0.2,0,0.4-0.1,0.6-0.2c0.2-0.2,0.3-0.4,0.3-0.7c0-0.2-0.1-0.5-0.3-0.6
					C-292.2,189.1-292.4,189.1-292.7,189.1z"/>
				<path id="XMLID_385_" class="st8" d="M-285.3,188.1c-0.2,0-0.3,0.1-0.4,0.2c-0.1,0.1-0.2,0.2-0.3,0.4c-0.2,0.3-0.4,0.5-0.6,0.7
					c-0.2,0.1-0.5,0.2-0.8,0.2c-0.2,0-0.5,0-0.7-0.1c-0.2-0.1-0.4-0.2-0.5-0.4c-0.1-0.2-0.3-0.4-0.3-0.7c-0.1-0.3-0.1-0.5-0.1-0.8
					c0-0.6,0.1-1.2,0.4-1.5c0.3-0.4,0.7-0.6,1.2-0.6c0.3,0,0.6,0.1,0.8,0.2c0.2,0.1,0.4,0.4,0.6,0.7c0.1,0.2,0.2,0.3,0.3,0.3
					c0.1,0.1,0.2,0.1,0.3,0.1c0.2,0,0.4-0.1,0.5-0.2c0.1-0.1,0.2-0.3,0.2-0.5c0-0.2-0.1-0.4-0.2-0.6c-0.1-0.2-0.3-0.4-0.6-0.6
					c-0.2-0.2-0.5-0.4-0.9-0.5c-0.4-0.1-0.7-0.2-1.2-0.2c-0.7,0-1.3,0.1-1.7,0.4c-0.5,0.3-0.9,0.7-1.1,1.2c-0.3,0.5-0.4,1.1-0.4,1.8
					c0,1,0.3,1.8,0.8,2.3c0.6,0.6,1.3,0.9,2.3,0.9c0.5,0,0.9-0.1,1.3-0.2c0.4-0.1,0.7-0.3,0.9-0.5c0.2-0.2,0.4-0.4,0.6-0.7
					c0.1-0.2,0.2-0.4,0.2-0.6c0-0.2-0.1-0.3-0.2-0.5C-284.9,188.2-285.1,188.1-285.3,188.1z"/>
				<path id="XMLID_382_" class="st8" d="M-278.5,185.2c-0.3-0.3-0.6-0.5-1-0.7c-0.4-0.2-0.8-0.2-1.3-0.2c-0.5,0-0.9,0.1-1.3,0.2
					c-0.4,0.2-0.7,0.4-1,0.7c-0.3,0.3-0.5,0.6-0.6,1c-0.1,0.4-0.2,0.9-0.2,1.3c0,0.5,0.1,0.9,0.2,1.3c0.2,0.4,0.4,0.7,0.7,1
					c0.3,0.3,0.6,0.5,1,0.7c0.4,0.2,0.8,0.2,1.3,0.2c0.5,0,0.9-0.1,1.3-0.2c0.4-0.2,0.7-0.4,1-0.7c0.3-0.3,0.5-0.6,0.7-1
					c0.1-0.4,0.2-0.9,0.2-1.3c0-0.5-0.1-0.9-0.2-1.3C-278,185.8-278.2,185.5-278.5,185.2z M-279.7,189.1c-0.3,0.4-0.7,0.6-1.2,0.6
					c-0.3,0-0.6-0.1-0.8-0.3c-0.2-0.2-0.4-0.4-0.6-0.7c-0.1-0.3-0.2-0.7-0.2-1.1c0-0.4,0.1-0.8,0.2-1.1c0.1-0.3,0.3-0.6,0.6-0.7
					c0.2-0.2,0.5-0.2,0.8-0.2c0.5,0,0.9,0.2,1.2,0.6c0.3,0.4,0.4,0.9,0.4,1.5C-279.2,188.2-279.4,188.7-279.7,189.1z"/>
				<path id="XMLID_381_" class="st8" d="M-268.6,184.5c-0.3-0.2-0.7-0.3-1.1-0.3c-0.4,0-0.7,0.1-1,0.2c-0.3,0.2-0.6,0.4-0.9,0.7
					c-0.2-0.3-0.4-0.6-0.7-0.7c-0.3-0.2-0.6-0.2-1-0.2c-0.4,0-0.7,0.1-1.1,0.2c-0.3,0.2-0.6,0.4-0.9,0.7v-0.2c0-0.3-0.1-0.5-0.2-0.6
					c-0.2-0.1-0.3-0.2-0.6-0.2c-0.2,0-0.4,0.1-0.6,0.2c-0.1,0.2-0.2,0.4-0.2,0.7v4.6c0,0.3,0.1,0.6,0.2,0.8c0.2,0.2,0.4,0.3,0.6,0.3
					c0.2,0,0.4-0.1,0.6-0.3c0.1-0.2,0.2-0.4,0.2-0.8v-2.2c0-0.7,0.1-1.2,0.3-1.6c0.2-0.4,0.5-0.5,1-0.5c0.3,0,0.5,0.1,0.6,0.2
					c0.1,0.1,0.2,0.3,0.2,0.6c0,0.2,0,0.5,0,1v2.6c0,0.3,0.1,0.6,0.2,0.8c0.1,0.2,0.3,0.3,0.6,0.3c0.3,0,0.5-0.1,0.6-0.3
					c0.2-0.2,0.2-0.4,0.2-0.8v-2.2c0-0.7,0.1-1.2,0.2-1.5c0.1-0.2,0.3-0.4,0.5-0.5c0.2-0.1,0.4-0.2,0.6-0.2c0.3,0,0.5,0.1,0.6,0.2
					c0.1,0.1,0.2,0.3,0.2,0.5c0,0.2,0,0.5,0,0.8v2.7c0,0.3,0.1,0.6,0.2,0.8c0.2,0.2,0.4,0.3,0.6,0.3c0.3,0,0.5-0.1,0.6-0.3
					c0.2-0.2,0.2-0.4,0.2-0.8v-3.2c0-0.6-0.1-1.1-0.2-1.4C-268,185-268.2,184.7-268.6,184.5z"/>
			</g>
			<g id="XMLID_366_">
				<path id="XMLID_379_" class="st8" d="M-346.9,187.2C-346.9,187.2-346.9,187.2-346.9,187.2C-346.9,187.2-346.9,187.2-346.9,187.2
					z"/>
				<path id="XMLID_378_" class="st8" d="M-346.8,187.7C-346.8,187.7-346.8,187.7-346.8,187.7c0-0.1-0.1-0.3-0.1-0.4
					C-346.8,187.4-346.8,187.5-346.8,187.7z"/>
				<path id="XMLID_377_" class="st8" d="M-346.2,189.2C-346.2,189.2-346.2,189.2-346.2,189.2C-346.2,189.2-346.2,189.2-346.2,189.2
					z"/>
				<path id="XMLID_376_" class="st8" d="M-346.3,189.1C-346.3,189.1-346.3,189-346.3,189.1C-346.3,189-346.3,189.1-346.3,189.1z"/>
				<path id="XMLID_375_" class="st8" d="M-346.6,188.3c0.1,0.2,0.2,0.5,0.3,0.7C-346.4,188.7-346.5,188.5-346.6,188.3L-346.6,188.3
					z"/>
				<path id="XMLID_374_" class="st8" d="M-341.4,180.4l-0.1-0.3c0.3-0.1,0.5-0.3,0.5-0.6c0-0.4-0.3-0.7-0.7-0.7
					c-0.4,0-0.7,0.3-0.7,0.7c0,0.3,0.2,0.6,0.5,0.6l0.1,0.3c-1,0.1-1.8,0.5-1.8,0.5l0.1,0.4c0.6-0.2,1.2-0.3,1.6-0.4
					c0.5-0.1,0.8-0.1,1.1-0.1c0.3,0,0.5,0,0.8,0.1l0.1-0.5C-339.7,180.5-340.4,180.3-341.4,180.4z"/>
				<path id="XMLID_373_" class="st8" d="M-346.7,182.9c0,0-0.5,0.5-0.9,1.3c0,0,0-0.1-0.1-0.1c-0.1-0.1-0.3-0.2-0.5-0.2
					c0,0,0,0,0,0c-0.1,0-0.2,0-0.3-0.1c0.1-0.1,0.1-0.2,0.1-0.3c0-0.2-0.2-0.4-0.4-0.4c-0.2,0-0.4,0.2-0.4,0.4
					c0,0.2,0.2,0.4,0.4,0.4c0,0,0.1,0,0.1,0c0.1,0.1,0.3,0.2,0.5,0.2c0.1,0,0.2,0,0.3,0.1c0.1,0.1,0.1,0.2,0.1,0.3c0,0,0,0,0,0
					c-0.3,0.7-0.2,1.7-0.2,1.7l0.7,0c0-0.3,0.1-0.9,0.2-1.4c0.3-0.9,0.7-1.5,0.8-1.5l0,0c0,0,0-0.1,0.1-0.1l-0.2-0.1L-346.7,182.9z"
					/>
				<path id="XMLID_372_" class="st8" d="M-334.8,181.5c-0.2,0-0.4,0.2-0.4,0.4c0,0,0,0.1,0,0.1c-0.1,0.1-0.2,0.3-0.2,0.5
					c0,0.1,0,0.2-0.1,0.3c-0.1,0-0.1,0.1-0.2,0.1c-0.5-0.7-1.1-1.1-1.1-1.1l-0.5,0.5c0.4,0.3,0.7,0.7,1.1,1.2
					c0.2,0.4,0.5,0.8,0.7,1.3l0.6-0.3c0,0-0.3-0.7-0.7-1.4c0.1,0,0.1-0.1,0.2-0.1c0.1-0.1,0.2-0.3,0.2-0.5c0-0.1,0-0.2,0.1-0.3
					c0.1,0.1,0.2,0.1,0.3,0.1c0.2,0,0.4-0.2,0.4-0.4C-334.4,181.7-334.6,181.5-334.8,181.5z"/>
				<path id="XMLID_371_" class="st8" d="M-336.5,187.2c-0.9,0.4-2.3,1-4.2,1.3c-0.7,0.1-1.5,0.1-2.1,0.1c-0.9,0-1.6-0.1-2.2-0.1
					c-0.7-0.1-1.2-0.2-1.5-0.3c0.1,0.2,0.2,0.5,0.3,0.7c0,0,0,0,0,0c0,0,0,0.1,0,0.1c0,0,0,0.1,0,0.1c0,0,0,0,0,0
					c0.2,0.4,0.4,0.7,0.7,1c0.9,1,1.8,1.1,1.8,1.1l0,0l0,0c0,0,0.8,0.3,2.1,0.3c1.2,0,2.4-0.2,3.5-0.7c0.8-0.4,1.6-1.1,2-1.7
					c0.3-0.5,0.5-0.9,0.7-1.4c0.1-0.3,0.1-0.7,0.1-1.1C-335.6,186.8-336,187-336.5,187.2z"/>
				<path id="XMLID_367_" class="st8" d="M-339.8,181.4c-0.3,0-0.5-0.1-0.8-0.1c-0.3,0-0.6,0-1.1,0.1c-0.5,0-1,0.2-1.6,0.4
					c-0.8,0.3-1.6,0.7-2.2,1.3l0,0c-0.1,0.1-0.3,0.3-0.5,0.5c0,0-0.4,0.6-0.7,1.4c-0.2,0.6-0.2,1.5-0.2,1.5v0c0,0.2,0,0.4,0,0.6
					c0,0,0,0,0,0c0,0,0,0.1,0,0.1c0,0.1,0,0.3,0.1,0.4c0.4,0.1,3,0.7,6,0.3c1.8-0.3,3.2-0.8,4.1-1.2c0.7-0.3,1.2-0.6,1.3-0.8
					c-0.2-0.6-0.7-1.7-1.1-2.3C-337.8,181.9-339.1,181.5-339.8,181.4z M-343.4,186.6c-1,0-1.8-0.8-1.8-1.8c0-1,0.8-1.8,1.8-1.8
					c1,0,1.8,0.8,1.8,1.8C-341.7,185.8-342.5,186.6-343.4,186.6z M-338.3,185.3c-0.6,0-1.1-0.5-1.1-1.1c0-0.6,0.5-1.1,1.1-1.1
					c0.6,0,1.1,0.5,1.1,1.1C-337.2,184.8-337.7,185.3-338.3,185.3z"/>
			</g>
		</g>
	</g>
</g>
</svg>
