<?xml version="1.0" encoding="UTF-8"?>
<svg width="59px" height="60px" viewBox="0 0 59 60" version="1.1" xmlns="http://www.w3.org/2000/svg" xmlns:xlink="http://www.w3.org/1999/xlink">
    <!-- Generator: Sketch 52.3 (67297) - http://www.bohemiancoding.com/sketch -->
    <title>Group 38</title>
    <desc>Created with Sketch.</desc>
    <g id="web" stroke="none" stroke-width="1" fill="none" fill-rule="evenodd">
        <g id="Group-38" transform="translate(29.500000, 30.000000) scale(-1, 1) translate(-29.500000, -30.000000) ">
            <polygon id="Fill-4" fill="#D8A923" points="3.09740395 7.45539906 0.47027027 19.2394366 7.42702703 10.8751268"></polygon>
            <path d="M13.1881648,8.10700725 C12.8335633,11.3419415 9.96720099,13.6710942 6.78715277,13.3106301 C3.60483146,12.950166 1.31128703,10.0364145 1.66588855,6.80379087 C2.02049007,3.56885657 4.88685233,1.23970388 8.06917364,1.60016799 C11.2492219,1.95832143 13.5427663,4.87438363 13.1881648,8.10700725" id="Fill-6" fill="#FFFFFF"></path>
            <ellipse id="Oval" stroke="#979797" fill="#D8D8D8" fill-rule="nonzero" cx="4.52837838" cy="5.68779343" rx="1" ry="1"></ellipse>
            <path d="M30.271232,10.6395037 C29.3552624,5.99446932 27.133269,2.86534234 23.6731826,1.34510995 C16.6522093,-1.75374213 7.45745161,3.6200523 7.06958886,3.84927653 L6.26756757,4.32718743 L9.16010336,9.09115891 L9.96431597,8.61324802 C11.7787248,7.54497661 17.7807366,4.83321073 21.3788758,6.4183179 C23.0902928,7.17086537 24.1925242,8.90085955 24.7425443,11.7056126 C26.3224824,19.6916983 19.8602945,27.9999953 14.1584929,35.3308457 C10.5603536,39.9650676 7.45306898,43.9635167 6.53709931,47.6613792 L6.31358518,48.5653012 L11.78749,49.8779343 L12.0088129,48.9761748 C12.6377203,46.4222709 15.5390213,42.6854835 18.6287755,38.7151468 C24.7315877,30.8609732 32.3332595,21.0865061 30.271232,10.6395037" id="Fill-8" fill="#FFFFFF"></path>
            <path d="M11.5024047,39.541351 C11.5024047,39.541351 28.993898,25.4334102 51.6606024,31.2523011 C57.2870292,32.6959865 60.1426103,39.1881558 57.373883,44.4904987 C53.5650293,51.790602 45.5660128,60.2783242 29.0871069,59.2143236 C0.730424193,57.3821235 6.81654024,44.9628973 6.81654024,44.9628973 L11.5024047,39.541351 Z" id="Fill-10" fill="#FFFFFF"></path>
        </g>
    </g>
</svg>