<?xml version="1.0" encoding="UTF-8"?>
<svg width="207px" height="207px" viewBox="0 0 207 207" version="1.1" xmlns="http://www.w3.org/2000/svg" xmlns:xlink="http://www.w3.org/1999/xlink">
    <!-- Generator: Sketch 50.2 (55047) - http://www.bohemiancoding.com/sketch -->
    <title>Group 18 Copy 2</title>
    <desc>Created with Sketch.</desc>
    <defs>
        <circle id="path-1" cx="103.5" cy="103.5" r="103.5"></circle>
    </defs>
    <g id="web" stroke="none" stroke-width="1" fill="none" fill-rule="evenodd">
        <g id="Group-18-Copy-2">
            <mask id="mask-2" fill="white">
                <use xlink:href="#path-1"></use>
            </mask>
            <use id="Mask" fill="#FFF8D5" xlink:href="#path-1"></use>
            <path d="M104,74 L104,40 C104,33.268 109.481988,27.7566 116.181444,27.7566 C122.877518,27.7566 128.345979,33.268 128.345979,40 L128.345979,49.5098 C128.345979,55.5006 133.222614,60.4 139.178062,60.4 C145.123364,60.4 150,55.5006 150,49.5098 L150,6" id="Stroke-1" stroke="#38454F" stroke-width="1.6" stroke-linecap="round" mask="url(#mask-2)"></path>
            <g id="Group-17" mask="url(#mask-2)">
                <g transform="translate(28.000000, 71.000000)">
                    <path d="M118.802204,77.75325 C115.391574,77.82075 104.493313,77.027625 94.3500522,74.169 C82.4867043,70.804125 67.7707696,70.817625 55.9074217,74.169 C45.6886609,77.041125 36.1625304,77.82075 31.4552696,77.75325 C13.4994,77.517 0.00131304348,58.991625 0.00131304348,40.03425 C0.00131304348,19.28475 16.5161174,2.305125 36.6844652,2.305125 L113.569726,2.305125 C133.741357,2.31525 149.691552,19.28475 149.691552,40.03425 C149.691552,58.991625 136.754791,77.4495 118.802204,77.75325" id="Fill-3" stroke="none" fill="#CBD4D8" fill-rule="evenodd"></path>
                    <path d="M70.9112413,13.1139 L83.0667413,13.1139" id="Stroke-5" stroke="#AFB6BB" stroke-width="1.6" fill="none" stroke-linecap="round"></path>
                    <path d="M102.414765,40.1139 C102.414765,44.5824 98.8892435,48.20715 94.5430696,48.20715 C90.1804826,48.20715 86.6549609,44.5824 86.6549609,40.1139 C86.6549609,35.635275 90.1804826,32.00715 94.5430696,32.00715 C98.8892435,32.00715 102.414765,35.635275 102.414765,40.1139" id="Fill-7" stroke="none" fill="#43B05C" fill-rule="evenodd"></path>
                    <path d="M139.177357,40.1139 C139.177357,44.5824 135.651835,48.20715 131.305661,48.20715 C126.956204,48.20715 123.430683,44.5824 123.430683,40.1139 C123.430683,35.635275 126.956204,32.00715 131.305661,32.00715 C135.651835,32.00715 139.177357,35.635275 139.177357,40.1139" id="Fill-9" stroke="none" fill="#DD352E" fill-rule="evenodd"></path>
                    <path d="M120.802626,59.0061375 C120.802626,63.4881375 117.277104,67.1128875 112.9178,67.1128875 C108.568343,67.1128875 105.042822,63.4881375 105.042822,59.0061375 C105.042822,54.5376375 108.568343,50.9128875 112.9178,50.9128875 C117.277104,50.9128875 120.802626,54.5376375 120.802626,59.0061375" id="Fill-11" stroke="none" fill="#EBBA16" fill-rule="evenodd"></path>
                    <path d="M120.802626,21.2088375 C120.802626,25.6773375 117.277104,29.3155875 112.9178,29.3155875 C108.568343,29.3155875 105.042822,25.6773375 105.042822,21.2088375 C105.042822,16.7403375 108.568343,13.1155875 112.9178,13.1155875 C117.277104,13.1155875 120.802626,16.7403375 120.802626,21.2088375" id="Fill-13" stroke="none" fill="#366DB6" fill-rule="evenodd"></path>
                    <polygon id="Fill-15" stroke="none" fill="#38454F" fill-rule="evenodd" points="57.7808065 32.0061375 47.2633283 32.0061375 47.2633283 21.2095125 31.519937 21.2095125 31.519937 32.0061375 21.0024587 32.0061375 21.0024587 48.2095125 31.519937 48.2095125 31.519937 59.0061375 47.2633283 59.0061375 47.2633283 48.2095125 57.7808065 48.2095125"></polygon>
                </g>
            </g>
        </g>
    </g>
</svg>