<?xml version="1.0" encoding="UTF-8"?>
<svg width="207px" height="207px" viewBox="0 0 207 207" version="1.1" xmlns="http://www.w3.org/2000/svg" xmlns:xlink="http://www.w3.org/1999/xlink">
    <!-- Generator: Sketch 50.2 (55047) - http://www.bohemiancoding.com/sketch -->
    <title>Group 18</title>
    <desc>Created with Sketch.</desc>
    <defs>
        <circle id="path-1" cx="103.5" cy="103.5" r="103.5"></circle>
        <polygon id="path-3" points="0.125535714 0.0407266187 36.8208153 0.0407266187 36.8208153 36.9840288 0.125535714 36.9840288"></polygon>
        <polygon id="path-5" points="0.015971223 0.180043062 110.878086 0.180043062 110.878086 110.792871 0.015971223 110.792871"></polygon>
    </defs>
    <g id="web" stroke="none" stroke-width="1" fill="none" fill-rule="evenodd">
        <g id="Group-18">
            <mask id="mask-2" fill="white">
                <use xlink:href="#path-1"></use>
            </mask>
            <use id="Mask" fill="#FFF8D5" xlink:href="#path-1"></use>
            <g id="Group" mask="url(#mask-2)">
                <g transform="translate(44.000000, 57.000000)">
                    <g id="Group-3" stroke-width="1" fill="none" transform="translate(97.000000, 97.000000)">
                        <mask id="mask-4" fill="white">
                            <use xlink:href="#path-3"></use>
                        </mask>
                        <g id="Clip-2"></g>
                        <path d="M13.8861,0.0407266187 L33.9699643,20.2690791 C35.79565,22.1076331 36.8208143,24.6002086 36.8208143,27.1987266 C36.8231929,32.6111079 32.4677643,36.9976043 27.0943071,37 C27.0919286,37 27.0919286,37 27.08955,37 C24.5095929,37 22.0348214,35.9674604 20.2094,34.1286403 L0.125535714,13.9002878 L13.8861,0.0407266187" id="Fill-1" fill="#284974" mask="url(#mask-4)"></path>
                    </g>
                    <polyline id="Fill-4" fill="#DB314C" points="86 99.6371256 99.6371256 86 111 97.3628744 97.3628744 111 86 99.6371256"></polyline>
                    <path d="M107.202031,101.436605 C110.14567,101.440951 113.084447,101.629601 116,102 L110.717384,97 L106,101.465235 C106.400767,101.458589 106.799103,101.436605 107.202031,101.436605" id="Fill-5" fill="#2D3458"></path>
                    <path d="M111,97.2501621 L99.6365065,86 L86,99.5001945 L90.5455022,104 C95.7227024,102.611815 101.054684,101.862495 106.418356,101.772525 L111,97.2501621" id="Fill-6" fill="#B62933"></path>
                    <path d="M54.9998675,9 C80.4048957,9 101,29.8186962 101,55.499866 C101,81.1810359 80.4048957,102 54.9998675,102 C29.5948392,102 9,81.1810359 9,55.499866 C9,29.8186962 29.5948392,9 54.9998675,9" id="Fill-7" fill="#ECFBFF"></path>
                    <polygon id="Fill-8" fill="#FF8FA1" points="36.2426249 51 50 64.7573751 46.7571109 68 33 54.2428891"></polygon>
                    <polygon id="Fill-9" fill="#FF8FA1" points="75.5450873 48 79 51.3046991 59.4549127 70 56 66.6953009"></polygon>
                    <polygon id="Fill-10" fill="#FF8FA1" points="120 13 136 13 136 9 120 9"></polygon>
                    <polygon id="Fill-11" fill="#FF8FA1" points="9 51 23 51 23 47 9 47"></polygon>
                    <polyline id="Fill-12" fill="#FF8FA1" points="98 23.8654677 106.865723 15 110 18.1342769 101.134532 27 98 23.8654677"></polyline>
                    <path d="M30.0001296,43.5 C27.5136338,43.5 25.5000648,45.5137993 25.5000648,48 C25.5000648,50.4862007 27.5136338,52.5 30.0001296,52.5 C32.4863662,52.5 34.4999352,50.4862007 34.4999352,48 C34.4999352,45.5137993 32.4863662,43.5 30.0001296,43.5 Z M30.0001296,57 C25.0297308,57 21,52.9703273 21,48 C21,43.029932 25.0297308,39 30.0001296,39 C34.9702692,39 39,43.029932 39,48 C39,52.9703273 34.9702692,57 30.0001296,57 Z" id="Fill-13" fill="#284974"></path>
                    <path d="M53,66.5 C50.5137993,66.5 48.5,68.5137993 48.5,71 C48.5,73.4862007 50.5137993,75.5 53,75.5 C55.4862007,75.5 57.5,73.4862007 57.5,71 C57.5,68.5137993 55.4862007,66.5 53,66.5 Z M53,80 C48.029932,80 44,75.9703273 44,71 C44,66.0296727 48.029932,62 53,62 C57.9703273,62 62,66.0296727 62,71 C62,75.9703273 57.9703273,80 53,80 Z" id="Fill-14" fill="#284974"></path>
                    <path d="M113,6.5 C110.513799,6.5 108.5,8.51379926 108.5,11 C108.5,13.4862007 110.513799,15.5 113,15.5 C115.486201,15.5 117.5,13.4862007 117.5,11 C117.5,8.51379926 115.486201,6.5 113,6.5 Z M113,20 C108.029932,20 104,15.9703273 104,11 C104,6.02967274 108.029932,2 113,2 C117.970327,2 122,6.02967274 122,11 C122,15.9703273 117.970327,20 113,20 Z" id="Fill-15" fill="#284974"></path>
                    <path d="M72.6958253,13 C92.2985043,29.2004793 95.1600876,58.3531848 79.0869857,78.1140802 C66.2565356,93.8888344 44.6892782,99.332091 26,91.5106919 C45.6026789,107.710905 74.5202467,104.826264 90.5933486,85.0680344 C106.666715,65.3095382 103.802752,36.1565661 84.2021882,19.9539542 C80.7255007,17.0807763 76.8471178,14.7372889 72.6958253,13" id="Fill-16" fill="#CEF9FF"></path>
                    <polyline id="Fill-17" fill="#FF8FA1" points="84 37.8656564 92.8656564 29 96 32.1343436 87.1343436 41 84 37.8656564"></polyline>
                    <g id="Group-21" stroke-width="1" fill="none">
                        <mask id="mask-6" fill="white">
                            <use xlink:href="#path-5"></use>
                        </mask>
                        <g id="Clip-19"></g>
                        <path d="M92.9506547,28.6329545 L87.6793525,33.8916459 C88.2404748,35.5715167 88.7025755,37.2813947 89.0651223,39.0143756 L95.5145683,32.5803589 C94.7269209,31.2207416 93.8721942,29.9049402 92.9506547,28.6329545" id="Fill-18" fill="#FF8FA1" mask="url(#mask-6)"></path>
                        <path d="M55.4390432,101.575356 C29.9231511,101.575356 9.23988489,80.9413062 9.23988489,55.4864569 C9.23988489,30.0316077 29.9231511,9.39782297 55.4390432,9.39782297 C80.9549353,9.39782297 101.638468,30.0316077 101.638468,55.4864569 C101.638468,80.9413062 80.9549353,101.575356 55.4390432,101.575356 Z M55.4390432,0.180043062 C24.8206115,0.180043062 0,24.9412751 0,55.4864569 C0,86.0319043 24.8206115,110.792871 55.4390432,110.792871 C86.057741,110.792871 110.878086,86.0319043 110.878086,55.4864569 C110.878086,24.9412751 86.057741,0.180043062 55.4390432,0.180043062 Z" id="Fill-20" fill="#284974" mask="url(#mask-6)"></path>
                    </g>
                    <path d="M81,39.5 C78.5137993,39.5 76.5,41.5137993 76.5,44 C76.5,46.48646 78.5137993,48.5 81,48.5 C83.4862007,48.5 85.5,46.48646 85.5,44 C85.5,41.5137993 83.4862007,39.5 81,39.5 Z M81,53 C76.0296727,53 72,48.9703273 72,44 C72,39.029932 76.0296727,35 81,35 C85.970068,35 90,39.029932 90,44 C90,48.9703273 85.970068,53 81,53 Z" id="Fill-22" fill="#284974"></path>
                </g>
            </g>
        </g>
    </g>
</svg>