<?xml version="1.0" encoding="UTF-8"?>
<svg width="207px" height="207px" viewBox="0 0 207 207" version="1.1" xmlns="http://www.w3.org/2000/svg" xmlns:xlink="http://www.w3.org/1999/xlink">
    <!-- Generator: Sketch 50.2 (55047) - http://www.bohemiancoding.com/sketch -->
    <title>Group 22</title>
    <desc>Created with Sketch.</desc>
    <defs>
        <circle id="path-1" cx="103.5" cy="103.5" r="103.5"></circle>
        <polygon id="path-3" points="0.0183794466 0 154.694595 0 154.694595 155.996953 0.0183794466 155.996953"></polygon>
    </defs>
    <g id="web" stroke="none" stroke-width="1" fill="none" fill-rule="evenodd">
        <g id="Group-22">
            <mask id="mask-2" fill="white">
                <use xlink:href="#path-1"></use>
            </mask>
            <use id="Mask" fill="#FFF8D5" xlink:href="#path-1"></use>
            <g id="Group" mask="url(#mask-2)">
                <g transform="translate(26.000000, 51.000000)">
                    <g id="Group-5" stroke-width="1" fill="none">
                        <mask id="mask-4" fill="white">
                            <use xlink:href="#path-3"></use>
                        </mask>
                        <g id="Clip-2"></g>
                        <path d="M78.8753953,47.8347187 L2.29743083,47.8347187 C1.02863636,47.8347187 0,48.8575547 0,50.119875 L0,153.711797 C0,154.974117 1.02863636,155.996953 2.29743083,155.996953 L78.8753953,155.996953 C80.144496,155.996953 81.1728261,154.974117 81.1728261,153.711797 L81.1728261,50.119875 C81.1728261,48.8578594 80.144496,47.8347187 78.8753953,47.8347187" id="Fill-4" fill="#8E77A9" mask="url(#mask-4)"></path>
                    </g>
                    <path d="M41.56,48 L41.56,39.4444444 C41.56,31.2961333 48.037936,24.6666667 56,24.6666667 C63.962064,24.6666667 70.44,31.2961333 70.44,39.4444444 L70.44,48 L75,48 L75,39.4444444 C75,28.7226222 66.476752,20 56,20 C45.523248,20 37,28.7226222 37,39.4444444 L37,48 L41.56,48" id="Fill-6" fill="#B9C0C3"></path>
                    <path d="M78.600192,47 L69,47 C70.3256539,47 71.399808,48.0307583 71.399808,49.3028558 L71.399808,153.697144 C71.399808,154.969242 70.3256539,156 69,156 L78.600192,156 C79.9258459,156 81,154.969242 81,153.697144 L81,49.3028558 C81,48.0310653 79.9258459,47 78.600192,47" id="Fill-7" fill="#7A649D"></path>
                    <path d="M93.7829557,47 L79,47 C80.2246953,47 81.2170443,48.0307583 81.2170443,49.3028558 L81.2170443,153.697144 C81.2170443,154.969242 80.2246953,156 79,156 L93.7829557,156 C95.0073554,156 96,154.969242 96,153.697144 L96,49.3028558 C96,48.0310653 95.007651,47 93.7829557,47" id="Fill-8" fill="#665392"></path>
                    <path d="M139,71.2893773 C139,70.0247253 137.975851,69 136.711911,69 L96.2880891,69 L96.2880891,153.70757 C96.2880891,154.972222 95.2636353,155.996947 94,155.996947 L136.711911,156 C137.975851,156 139,154.975275 139,153.710623 C139,153.689255 138.997254,153.668193 138.996644,153.646825 C138.997254,153.625458 139,153.604396 139,153.583028 L139,71.2893773" id="Fill-9" fill="#00A68E"></path>
                    <path d="M152,71.2893773 C152,70.0247253 151.007496,69 149.782609,69 L135,69 C136.224887,69 137.217391,70.0247253 137.217391,71.2893773 L137.217391,153.583028 C137.217391,153.604396 137.21473,153.625458 137.214139,153.646825 C137.21473,153.668193 137.217391,153.689255 137.217391,153.710623 C137.217391,154.967949 136.235826,155.987485 135.0204,155.999084 L149.782609,156 C151.007496,156 152,154.975275 152,153.710623 C152,153.689255 151.997339,153.668193 151.996748,153.646825 C151.997339,153.625458 152,153.604396 152,153.583028 L152,71.2893773" id="Fill-10" fill="#00A077"></path>
                    <path d="M139,71.2893773 C139,70.0247253 137.925846,69 136.600192,69 L127,69 C128.325334,69 129.399808,70.0247253 129.399808,71.2893773 L129.399808,153.583028 C129.399808,153.604396 129.396928,153.625458 129.396288,153.646825 C129.396928,153.668193 129.399808,153.689255 129.399808,153.710623 C129.399808,154.971001 128.332693,155.992674 127.013439,155.999389 L136.600192,156 C137.925846,156 139,154.975275 139,153.710623 C139,153.689255 138.99712,153.668193 138.99648,153.646825 C138.99712,153.625458 139,153.604396 139,153.583028 L139,71.2893773" id="Fill-11" fill="#00A284"></path>
                    <path d="M40,20 C29.523248,20 21,28.6660869 21,39.318416 L21,68.6817901 C21,69.9623692 22.020528,71 23.28,71 C24.539472,71 25.56,69.9623692 25.56,68.6817901 L25.56,39.318416 C25.56,31.2229179 32.037936,24.6364198 40,24.6364198 C47.962064,24.6364198 54.44,31.2229179 54.44,39.318416 L54.44,68.6817901 C54.44,69.9623692 55.460528,71 56.72,71 C57.979472,71 59,69.9623692 59,68.6817901 L59,39.318416 C59,28.6660869 50.476752,20 40,20" id="Fill-15" fill="#D7DCDB"></path>
                    <path d="M109.60024,79 C108.274613,79 107.20048,79.9889297 107.20048,81.2094051 C107.20048,87.3595051 102.357764,92.4844411 96,93.53111 L96,98 C105.015098,96.914151 112,89.801045 112,81.2094051 C112,79.9892243 110.925867,79 109.60024,79" id="Fill-16" fill="#D7DCDB"></path>
                </g>
            </g>
        </g>
    </g>
</svg>