<?xml version="1.0" encoding="UTF-8"?>
<svg width="429px" height="397px" viewBox="0 0 429 397" version="1.1" xmlns="http://www.w3.org/2000/svg" xmlns:xlink="http://www.w3.org/1999/xlink">
    <!-- Generator: Sketch 52.3 (67297) - http://www.bohemiancoding.com/sketch -->
    <title>Group 20</title>
    <desc>Created with Sketch.</desc>
    <defs>
        <polygon id="path-1" points="0.000821289221 0.309025503 427.934657 0.309025503 427.934657 251 0.000821289221 251"></polygon>
        <path d="M350.803545,101.915385 C350.803545,101.915385 284.933903,110.080524 282.936172,44.7615939 C280.940575,-20.5573365 197.106291,-6.26779739 167.163799,38.6371939 C137.22344,83.5443678 73.3493955,57.0082113 35.4223806,75.3792287 C3.50990299,90.8386461 -28.4495299,142.741081 43.4090373,216.22515 C115.267604,289.70922 201.097485,226.428846 215.070933,210.10075 C229.042246,193.770472 306.889739,154.987698 362.779261,173.358716 C418.668784,191.729733 432.642231,157.028437 426.653306,138.65742 C420.664381,120.286403 400.704142,99.8746461 350.803545,101.915385" id="path-3"></path>
        <polygon id="path-5" points="0 0 80.0027027 0 80.0027027 130.802817 0 130.802817"></polygon>
        <polygon id="path-7" points="0.000252659896 0.329212121 80.3600029 0.329212121 80.3600029 134.755979 0.000252659896 134.755979"></polygon>
        <polygon id="path-9" points="0 0.523657895 59.6567161 0.523657895 59.6567161 66.8455091 0 66.8455091"></polygon>
    </defs>
    <g id="web" stroke="none" stroke-width="1" fill="none" fill-rule="evenodd">
        <g id="Group-20" transform="translate(-172.000000, 0.000000)">
            <g id="Group-3" transform="translate(172.000000, 73.000000)">
                <mask id="mask-2" fill="white">
                    <use xlink:href="#path-1"></use>
                </mask>
                <g id="Clip-2"></g>
                <g mask="url(#mask-2)">
                    <mask id="mask-4" fill="white">
                        <use xlink:href="#path-3"></use>
                    </mask>
                    <use id="Mask" fill="#B8E5FA" xlink:href="#path-3"></use>
                    <g opacity="0.202055432" mask="url(#mask-4)">
                        <g transform="translate(221.456757, 122.553991)">
                            <mask id="mask-6" fill="white">
                                <use xlink:href="#path-5"></use>
                            </mask>
                            <g id="Clip-2" stroke="none" fill="none"></g>
                            <path d="M40.1205061,0 C26.0107912,0 13.5092705,41.6471747 6.25050881,64.8715695 C0.203652735,83.6913378 -6.24640388,104.91363 11.8976204,120.531177 C32.0576473,137.748119 71.1692515,133.743913 78.0236607,105.315194 C82.4565626,88.0959644 78.8300618,68.0737903 73.1841022,51.6565456 C68.3468478,36.4428509 54.2348289,0 40.1205061,0" id="Fill-1" stroke="none" fill="#BABA38" fill-rule="evenodd" mask="url(#mask-6)"></path>
                        </g>
                    </g>
                </g>
            </g>
        </g>
        <g id="tree" transform="translate(233.000000, 198.000000)">
            <g id="Group-3">
                <mask id="mask-8" fill="white">
                    <use xlink:href="#path-7"></use>
                </mask>
                <g id="Clip-2"></g>
                <path d="M40.2998143,0.32897697 C26.1271286,0.32897697 13.5698143,43.13008 6.27865714,66.9979588 C0.204814286,86.3391709 -6.27402857,108.149474 11.9509714,124.199741 C32.2009714,141.893716 71.4871286,137.778565 78.3721286,108.562165 C82.8248143,90.8658376 79.1821286,70.2889042 73.5109714,53.416783 C68.6521286,37.7815588 54.4771286,0.32897697 40.2998143,0.32897697" id="Fill-1" fill="#8BBA99" mask="url(#mask-8)"></path>
            </g>
            <polygon id="Fill-4" fill="#976039" points="56.7 92.7874806 55.8035708 91.5462205 42.2160704 101.777463 41.3935852 63.4909091 39.9010533 63.4909091 38.4813279 88.6030997 25.0451283 80.2331568 24.3 81.9361987 38.4813279 93.0969098 38.4813279 102.243969 26.3408553 98.4209824 26.3408553 99.9704906 38.4813279 105.344166 38.3334398 188.121212 42.6631474 188.121212 42.0670447 106.893675"></polygon>
            <path d="M77.5285714,187.536339 C77.5285714,191.104819 61.7260082,194 42.235132,194 C22.7419266,194 6.94285714,191.104819 6.94285714,187.536339 C6.94285714,183.965455 22.7419266,181.066667 42.235132,181.066667 C61.7260082,181.066667 77.5285714,183.965455 77.5285714,187.536339" id="Fill-6" fill="#000000" opacity="0.097265625"></path>
        </g>
        <g id="Group-8" transform="translate(128.000000, 1.000000)">
            <path d="M31,56 L31,95" id="Stroke-1" stroke="#BB7F66" stroke-linecap="round"></path>
            <path d="M23,95 L39,95" id="Stroke-3" stroke="#BB7F66" stroke-linecap="round"></path>
            <g id="Group-7">
                <mask id="mask-10" fill="white">
                    <use xlink:href="#path-9"></use>
                </mask>
                <g id="Clip-6"></g>
                <path d="M36.7637647,20.6412895 C36.8255294,20.6994737 36.8890588,20.7541316 36.9508235,20.8140789 C36.8272941,20.7717632 36.7002353,20.7417895 36.5749412,20.7047632 C36.6384706,20.6853684 36.7002353,20.6624474 36.7637647,20.6412895 M58.0443529,29.547 C56.2214118,26.9057895 56.3502353,23.8572895 56.3502353,24.4109211 C56.3502353,18.7494211 52.2084706,18.1781579 52.2878824,14.2110526 C52.4184706,7.65739474 40.602,2.92860526 41.9996471,4.91039474 C38.6837647,0.204526316 32.2390588,-0.849842105 27.6278824,2.40142105 C24.6914118,4.47313158 6.702,0.171026316 7.45023529,15.2812895 C-8.37917647,23.4200263 6.46905882,26.1511579 3.08788235,34.7271579 C-0.558,43.9661053 7.85258824,45.3695789 7.85258824,49.1991579 C7.85258824,59.5400789 16.2790588,64.9776579 28.6549412,66.7884211 C31.1608235,67.1551579 32.5143529,65.6035789 35.2337647,66.4111053 C39.2255294,67.5994737 55.9549412,64.8348421 56.3502353,48.4533421 C56.3872941,46.9564211 55.1961176,43.7033947 57.822,40.2176316 C60.1990588,37.0615789 60.2590588,32.7577105 58.0443529,29.547" id="Fill-5" fill="#8BBA99" mask="url(#mask-10)"></path>
            </g>
        </g>
    </g>
</svg>