<?xml version="1.0" encoding="UTF-8"?>
<svg width="22px" height="25px" viewBox="0 0 22 25" version="1.1" xmlns="http://www.w3.org/2000/svg" xmlns:xlink="http://www.w3.org/1999/xlink">
    <!-- Generator: Sketch 52.3 (67297) - http://www.bohemiancoding.com/sketch -->
    <title>? copy</title>
    <desc>Created with Sketch.</desc>
    <g id="web" stroke="none" stroke-width="1" fill="none" fill-rule="evenodd">
        <path d="M7.64763068,18.324939 C6.78363068,12.276939 13.0476307,9.97293905 13.0476307,6.04893905 C13.0476307,4.06893905 11.7876307,2.55693905 9.51963068,2.55693905 C7.82763068,2.55693905 6.35163068,3.42093905 5.16363068,4.75293905 L2.82363068,2.62893905 C4.58763068,0.612939049 6.99963068,-0.827060951 9.98763068,-0.827060951 C14.1636307,-0.827060951 17.0796307,1.54893905 17.0796307,5.76093905 C17.0796307,11.016939 10.6716307,12.960939 11.2836307,18.324939 L7.64763068,18.324939 Z M9.51963068,27.252939 C7.93563068,27.252939 6.74763068,26.064939 6.74763068,24.372939 C6.74763068,22.680939 7.93563068,21.420939 9.51963068,21.420939 C11.0676307,21.420939 12.2916307,22.680939 12.2916307,24.372939 C12.2916307,26.064939 11.0676307,27.252939 9.51963068,27.252939 Z" id="?-copy" fill="#000000" transform="translate(9.951631, 13.212939) rotate(37.000000) translate(-9.951631, -13.212939) "></path>
    </g>
</svg>