<?xml version="1.0" encoding="UTF-8"?>
<svg width="22px" height="25px" viewBox="0 0 22 25" version="1.1" xmlns="http://www.w3.org/2000/svg" xmlns:xlink="http://www.w3.org/1999/xlink">
    <!-- Generator: Sketch 52.3 (67297) - http://www.bohemiancoding.com/sketch -->
    <title>? copy</title>
    <desc>Created with Sketch.</desc>
    <g id="web" stroke="none" stroke-width="1" fill="none" fill-rule="evenodd">
        <path d="M8.13047323,16.9993903 C7.4032005,11.6309692 12.6759278,9.58585644 12.6759278,6.10277374 C12.6759278,4.34525494 11.6153217,3.00314968 9.7062308,3.00314968 C8.28198838,3.00314968 7.03956414,3.77006697 6.03956414,4.9523978 L4.06986717,3.06705945 C5.55471565,1.27758577 7.58501868,-0.000609721518 10.1001702,-0.000609721518 C13.6153217,-0.000609721518 16.0698672,2.10841283 16.0698672,5.84713464 C16.0698672,10.5125482 10.6759278,12.2381121 11.1910793,16.9993903 L8.13047323,16.9993903 Z M10.3254573,25.0059842 C8.89688589,25.0059842 7.82545732,23.9874657 7.82545732,22.5368484 C7.82545732,21.0862311 8.89688589,20.0059842 10.3254573,20.0059842 C11.7215612,20.0059842 12.8254573,21.0862311 12.8254573,22.5368484 C12.8254573,23.9874657 11.7215612,25.0059842 10.3254573,25.0059842 Z" id="?-copy" fill="#000000" transform="translate(10.069867, 12.502687) rotate(-1.000000) translate(-10.069867, -12.502687) "></path>
    </g>
</svg>