<?xml version="1.0" encoding="UTF-8"?>
<svg width="430px" height="494px" viewBox="0 0 430 494" version="1.1" xmlns="http://www.w3.org/2000/svg" xmlns:xlink="http://www.w3.org/1999/xlink">
    <!-- Generator: Sketch 52.3 (67297) - http://www.bohemiancoding.com/sketch -->
    <title>Group 6 Copy</title>
    <desc>Created with Sketch.</desc>
    <defs>
        <polygon id="path-1" points="0.590604425 0.8625 191.6536 0.8625 191.6536 195 0.590604425 195"></polygon>
        <polygon id="path-3" points="0 0.236601474 266.873902 0.236601474 266.873902 128 0 128"></polygon>
        <polygon id="path-5" points="0.034070552 0.0430871212 88.8971121 0.0430871212 88.8971121 129.901365 0.034070552 129.901365"></polygon>
        <polygon id="path-7" points="0.217028518 0.343823664 28.68 0.343823664 28.68 10.3789324 0.217028518 10.3789324"></polygon>
        <polygon id="path-9" points="0.000122298785 0.995076923 17.5840406 0.995076923 17.5840406 20.5905104 0.000122298785 20.5905104"></polygon>
    </defs>
    <g id="web" stroke="none" stroke-width="1" fill="none" fill-rule="evenodd">
        <g id="Group-6-Copy" opacity="0.311383929" transform="translate(-104.000000, 0.000000)">
            <path d="M0,283.182 C2.449,282.229 60.51,259.881 106.173,263.271 C112.967,263.774 120.067,264.585 126.932,265.369 C169.647,270.244 196.636,271.124 211.277,242.299 C216.109,232.785 218.774,222.796 221.594,212.221 C228.396,186.722 236.106,157.82 275.723,138.33 C343.287,105.09 347.016,75.297 347.046,75 C346.991,75.543 387,1.13686838e-13 387,1.13686838e-13 L409,6 C409,8.517 381.379,91.816 368.75,109.968 C353.588,131.761 327.488,151.869 291.174,169.734 C265.824,182.206 261.457,198.579 255.411,221.241 C252.397,232.546 248.979,245.357 242.482,258.148 C215.771,310.735 162.13,304.616 122.963,300.142 C116.136,299.363 109.689,298.628 103.587,298.176 C65.89,295.381 13.204,315.602 12.677,315.806 L0,283.182 Z" id="Fill-1" fill="#BEEBD7"></path>
            <g id="Group-5" transform="translate(215.000000, 233.000000)">
                <mask id="mask-2" fill="white">
                    <use xlink:href="#path-1"></use>
                </mask>
                <g id="Clip-4"></g>
                <path d="M185.8996,195.0005 C142.4966,187.7675 105.6996,173.2365 76.5316,151.8125 C52.7476,134.3435 34.0556,112.3725 20.9746,86.5145 C-1.2454,42.5835 0.5716,2.5445 0.6606,0.8625 L18.1446,1.7785 L35.6156,2.6265 C35.6006,2.9595 34.3476,36.3065 52.9096,72.0875 C77.5036,119.4925 124.1826,149.2305 191.6536,160.4765 L185.8996,195.0005 Z" id="Fill-3" fill="#BEEBD7" mask="url(#mask-2)"></path>
            </g>
        </g>
        <g id="Group-53" transform="translate(160.000000, 193.000000)">
            <g id="Group-3" transform="translate(0.000000, 171.000000)">
                <mask id="mask-4" fill="white">
                    <use xlink:href="#path-3"></use>
                </mask>
                <g id="Clip-2"></g>
                <path d="M19.0867694,56.0580097 C7.92268632,67.5433935 -2.28822003,82.6527333 0.449184561,98.5079162 C3.83891951,118.131412 26.2355954,129.237859 45.918696,127.890529 C65.6017967,126.5432 83.4202453,116.357027 101.393585,108.140722 C134.775623,92.8840178 170.945704,83.861721 207.526842,81.6693029 C219.542827,80.9475192 231.847743,80.91143 243.18459,76.8273369 C254.524415,72.7492588 264.979573,63.546516 266.644653,51.5077647 C268.154843,40.5847707 262.027703,29.6828287 253.449112,22.8559574 C223.397235,-1.06816629 169.075094,-2.15986421 132.437362,2.29414299 C89.6784466,7.50000825 49.5675759,24.6934985 19.0867694,56.0580097" id="Fill-1" fill="#CEE3D3" mask="url(#mask-4)"></path>
            </g>
            <path d="M141.5,125 L141.5,215" id="Stroke-4" stroke="#BB7F66" stroke-linecap="round"></path>
            <path d="M123,213.5 L160,213.5" id="Stroke-6" stroke="#BB7F66" stroke-linecap="round"></path>
            <g id="Group-10" transform="translate(97.000000, 0.000000)">
                <mask id="mask-6" fill="white">
                    <use xlink:href="#path-5"></use>
                </mask>
                <g id="Clip-9"></g>
                <path d="M71.9206994,30.6513852 C72.1088688,28.4646277 72.0471257,26.2057792 71.7090087,23.8928625 C69.8861172,11.4601845 59.8219916,1.59274129 47.5939174,0.217006439 C30.9703224,-1.64834583 16.907596,11.5953549 16.907596,28.1972905 C16.907596,28.9031807 16.9340573,29.6030633 16.9840398,30.2939345 C17.6602738,39.5636239 15.5227864,48.8843777 9.81889992,56.1235064 C3.03303906,64.7443777 -0.736230276,75.9364913 0.166395064,88.0567754 C1.76877555,109.533859 18.4482334,127.2502 39.3997258,129.614181 C66.2079924,132.645003 88.8971121,111.285067 88.8971121,84.5093019 C88.8971121,73.9780216 85.3806955,64.2938095 79.4827592,56.6011087 C73.8200348,49.2147943 71.1239194,39.9991731 71.9206994,30.6513852" id="Fill-8" fill="#8BBA99" mask="url(#mask-6)"></path>
            </g>
            <path d="M97,248 L104,248 C103.169086,246.335684 101.845004,244.953456 100.216055,244 C99.4837746,245.551481 98.3778822,246.919605 97,248" id="Fill-11" fill="#8BBA99"></path>
            <path d="M83.1973029,237.578169 C82.7924595,237.614802 82.3962297,237.581222 82,237.556801 C84.9688518,240.179048 87.130888,243.805625 88.0324542,248 L88.3597744,248 C89.7695483,244.819113 92.6781043,242.499081 96.206846,242.184655 C98.3372986,241.989284 100.355773,242.566239 102.041185,243.671308 C102.779091,241.903809 103.123639,239.925676 102.959979,237.862068 C102.440286,231.332398 97.0395027,226.487803 90.8950705,227.04339 C90.8721007,227.046443 90.852002,227.052548 90.826161,227.055601 C90.8663582,227.302867 90.9352677,227.537923 90.9582376,227.797401 C91.3544673,232.776313 87.880279,237.153848 83.1973029,237.578169" id="Fill-13" fill="#8BBA99"></path>
            <path d="M96.4562434,241.043878 C93.1032529,241.423635 90.3368311,244.195129 89,248 L99.0671563,248 C100.324869,246.601473 101.334313,244.830491 102,242.822162 C100.395803,241.500316 98.4805876,240.813833 96.4562434,241.043878" id="Fill-15" fill="#8BBA99"></path>
            <path d="M83.6411489,240.088894 C83.5661579,239.265996 83.5880303,238.457952 83.6942675,237.673675 C81.760125,237.293419 80.0415815,236.351691 78.7417378,235 C77.3012859,237.501371 74.6172335,239.292733 71.4051196,239.554159 C69.94592,239.670018 68.5523375,239.429388 67.2743661,238.951097 C67.374354,242.515996 65.2371109,245.670932 62,247.12957 C62.1562312,247.40585 62.2687177,247.702925 62.3968273,248 L88,248 C85.5752914,246.092779 83.9254897,243.303245 83.6411489,240.088894" id="Fill-17" fill="#8BBA99"></path>
            <path d="M84.0443163,240.338895 C84.3287828,243.451669 85.9793136,246.153049 88.4050938,248 L92,248 C91.0215603,244.047181 88.6676783,240.629459 85.4353887,238.158228 C84.9789919,238.132336 84.5350991,238.080552 84.0974584,238 C83.9911742,238.759494 83.9692922,239.542002 84.0443163,240.338895" id="Fill-19" fill="#8BBA99"></path>
            <path d="M54,246.430412 C52.4689706,245.208119 51.1995541,243.32732 50.3641769,241 C48.3723523,242.425258 46.8324043,244.9375 46,248 L53.7175771,248 C53.7978447,247.463273 53.9018952,246.949098 54,246.430412" id="Fill-21" fill="#8BBA99"></path>
            <path d="M62.6009078,247.381 C61.6204609,247.528 60.5614525,247.632 59.4207402,247.663 C57.5761173,247.713 55.8194832,247.583 54.2985335,247.326 C54.1948324,247.442 54.0848464,247.556 54,247.674 L63,247.674 C62.8711592,247.574 62.7580307,247.474 62.6009078,247.381" id="Fill-23" fill="#8BBA99"></path>
            <path d="M56.2454972,242.33754 C57.8581738,239.470839 60.1834944,237.085387 63,235.46637 C62.1567519,234.224628 61.5832296,232.757115 61.4497863,231.135127 C61.4355902,230.962827 61.4639823,230.79944 61.4583039,230.630112 C60.2970632,230.151833 59.0307714,229.911209 57.704856,230.030036 C53.0740893,230.442959 49.6386339,234.705877 50.0304462,239.551047 C50.1326581,240.79873 50.4903997,241.963235 51.0270121,243 C51.9128486,242.563311 52.8696655,242.254361 53.9003021,242.16227 C54.7094796,242.090974 55.4874257,242.180094 56.2454972,242.33754" id="Fill-25" fill="#8BBA99"></path>
            <path d="M62.5454952,247 C65.8941279,245.447431 68.1028692,242.089328 67.9963072,238.294862 C66.2493348,237.63083 64.7606948,236.486166 63.6821574,235 C60.4788366,236.726482 57.8341595,239.265613 56,242.316996 C58.7996765,242.857708 61.198938,244.574704 62.5454952,247" id="Fill-27" fill="#8BBA99"></path>
            <path d="M55.6577802,247 C56.2138194,245.650428 57.0021763,244.373155 58,243.178891 C56.9831338,243.03965 55.9396083,242.956641 54.8541893,243.023584 C53.4678999,243.103915 52.1844396,243.382398 51,243.776023 C52.070185,245.157728 53.6964091,246.274337 55.6577802,247" id="Fill-29" fill="#8BBA99"></path>
            <path d="M64,246.845295 C62.7373202,243.818056 60.4875095,241.674913 57.8622256,241 C57.0658592,242.756351 56.4420893,244.639002 56,246.628218 C57.4655564,247.64256 59.1582135,248.155651 60.9356548,247.958309 C62.0348221,247.835956 63.0552612,247.425483 64,246.845295" id="Fill-31" fill="#8BBA99"></path>
            <path d="M79.5757356,238.286534 C81.4031965,238.942908 83.1227752,239.853036 84.6821649,241 C85.7119506,235.370065 90.2266618,230.900627 96,230.359287 C95.166364,225.270692 90.7333818,221.592964 85.6759898,222.036186 C82.3120232,222.333923 79.5070832,224.374097 78,227.222899 C79.3926625,228.799551 80.3407192,230.819426 80.5303305,233.116737 C80.680712,234.96406 80.3014893,236.723415 79.5757356,238.286534" id="Fill-33" fill="#8BBA99"></path>
            <path d="M85,236.108384 C85.3779772,236.377725 85.7474285,236.664444 86.1026702,236.965643 C86.494857,236.988813 86.8870439,237.017774 87.2877565,236.985916 C91.925792,236.583352 95.3616896,232.42738 94.9695028,227.70666 C94.9467673,227.460487 94.8785609,227.237484 94.8387738,227 C89.8199192,227.46628 85.8952091,231.289194 85,236.108384" id="Fill-35" fill="#8BBA99"></path>
            <path d="M84.8275862,237 C84.8706897,236.921305 84.9353448,236.845489 85,236.769674 C82.9439655,236.444338 80.6767241,236.18618 78.2672414,236 C78.1724138,236.045106 78.1034483,236.09405 78,236.137236 C79.7931034,236.573896 82.1594828,236.877159 84.8275862,237" id="Fill-37" fill="#8BBA99"></path>
            <path d="M83.714,236.648 C83.589,236.544 83.459,236.445 83.326,236.352 C83.311,236.431 83.296,236.51 83.286,236.592 C83.426,236.621 83.568,236.639 83.714,236.648" id="Fill-39" fill="#8BBA99"></path>
            <path d="M66.7973341,234 C68.1004132,233.457428 69.4766111,233.076408 70.9180934,232.933144 C73.0333121,232.725869 75.0832463,233.012396 77,233.682991 C76.1617467,232.375331 75.6002997,230.802481 75.4749534,229.058933 C75.3391616,227.217845 75.6943095,225.468201 76.3993823,223.96241 C74.8325537,221.965866 72.5423725,220.78318 70.0537263,221.033129 C65.9460238,221.438534 62.8907079,225.529164 63.0029973,230.278197 C64.5854943,231.003659 65.9146872,232.302175 66.7973341,234" id="Fill-41" fill="#8BBA99"></path>
            <path d="M67.2480469,240.267842 C68.4462891,240.822076 69.7529297,241.100914 71.1210938,240.966659 C74.1357422,240.663724 76.6494141,238.587929 78,235.689389 C77.8066406,235.441533 77.6191406,235.190234 77.4433594,234.921723 C75.2958984,234.164385 72.9960938,233.840795 70.6230469,234.074882 C69.0058594,234.236677 67.4619141,234.666982 66,235.279738 C66.6738281,236.584425 67.1367188,238.057792 67.2539062,239.686069 C67.2685547,239.885731 67.2421875,240.075065 67.2480469,240.267842" id="Fill-43" fill="#8BBA99"></path>
            <path d="M65.5015953,236 C66.2950447,235.312039 67.1324221,234.735872 68,234.25 C67.0720211,231.855037 65.6745617,230.019042 64.0135344,229 C64.0162799,229.249386 63.9888249,229.481572 64.0052979,229.730958 C64.1315909,232.082924 64.6861818,234.202703 65.5015953,236" id="Fill-45" fill="#8BBA99"></path>
            <path d="M67.9894482,239 C67.983476,238.845411 68.010351,238.693582 67.9954204,238.533471 C67.8759759,237.227743 67.4041699,236.046239 66.7173637,235 C65.7707656,235.311939 64.8629869,235.68185 64,236.123533 C64.9973621,237.42098 66.3739606,238.42029 67.9894482,239" id="Fill-47" fill="#8BBA99"></path>
            <path d="M77.0712251,234.779749 C77.367147,234.845824 77.6595874,234.920159 77.9485465,235 C78.7249062,233.728051 79.1252711,232.296421 78.9651251,230.793209 C78.763202,228.92383 77.7570676,227.280208 76.2704953,226 C75.3305082,227.360049 74.8570332,228.940349 75.0380678,230.600489 C75.2051766,232.178036 75.9571663,233.595901 77.0712251,234.779749" id="Fill-49" fill="#8BBA99"></path>
            <path d="M77.626,235.4685 C77.543,235.4395 77.459,235.4125 77.374,235.3885 C77.433,235.4665 77.497,235.5385 77.564,235.6115 C77.588,235.5665 77.604,235.5155 77.626,235.4685" id="Fill-51" fill="#8BBA99"></path>
        </g>
        <g id="Group-69" transform="translate(146.000000, 360.000000)">
            <path d="M74.1210865,73.6505599 C72.6081201,66.2928744 71.107989,59 71.107989,59 L56.4981562,64.4668203 L57.7447892,66.7481727 L48.8835871,66.4597631 L53.1497352,75.692111 C57.4319276,81.7778778 56.6746422,90.1077305 51.368831,95.3055846 L47,99.5847406 L50.2778265,103.086163 L55.4584931,97.9774241 C60.682479,92.8281784 63.7822152,85.9970835 64.3549925,78.8208692 L65.630505,81.1524502 C68.0644075,85.6001152 68.5746125,90.8627804 67.0391843,95.6993123 L64.4047294,104 L69.5581209,104 C70.2063059,102.42833 70.9764267,100.555288 71.7706137,98.6271559 C75.0227696,90.7299175 75.8426273,82.0241602 74.1210865,73.6505599" id="Fill-1" fill="#5F2438"></path>
            <polygon id="Fill-3" fill="#FFDAD3" points="46 100.392845 49.4879725 104 51 102.577343 47.4896907 99"></polygon>
            <path d="M64,106.402772 L68.2538399,108 C68.2538399,108 68.9717057,106.358106 70,104 L64.8084074,104 L64,106.402772 Z" id="Fill-5" fill="#FFDAD3"></path>
            <path d="M61.6579599,32.8849469 L61.5556778,30.7773791 C61.5441298,30.5402982 61.6893044,30.334283 61.9037668,30.2280054 C63.0024746,29.696617 63.7233984,28.6142199 63.6442123,27.3813991 L63.5105856,25.2869116 L63.388507,23.4131547 C63.388507,23.4131547 64.4905142,23.5521332 64.5779489,23.2676361 C64.7000275,22.8703211 63.3093209,22.1770638 63.3093209,22.1770638 L63.1245532,19.3141071 C63.1014572,18.9249673 62.9909266,18.5603532 62.8276052,18.2218997 C60.5609018,17.7575481 57.708551,17.7591831 58.1473742,20.8951917 C58.3552378,22.3749037 58.5350564,23.9396379 58.6653836,25.4160799 C58.3667858,25.8150299 58.0236459,26.3987395 57.634314,27.2734864 C57.0107231,28.6698113 56.205664,29.7620187 55.3808084,30.494517 C55.9780038,30.7299629 56.6758317,30.8574961 57.3736596,30.9065473 C57.6689579,30.9261678 57.9065164,31.1501684 57.9197141,31.4428408 L58.0005499,33.1138526 C58.0153973,33.3787292 57.8091834,33.6059999 57.5402805,33.6223503 L56.3277426,33.6942921 L54,36.3446935 L61.4088535,38.9345984 L66,39 L64.9425351,33.2528311 L62.1776189,33.3476635 C61.9037668,33.3640139 61.6711575,33.1563637 61.6579599,32.8849469" id="Fill-7" fill="#FFDAD3"></path>
            <path d="M19.0746838,29.5871531 C19.4835455,28.8655205 20.2127359,28.9711649 20.5829651,29.0719334 L20.5845748,29.0703081 L20.5877942,29.0735587 C20.7777378,29.123943 22.5934702,30.3201627 22.5934702,30.3201627 L22.3246517,30.2323966 C22.2071442,30.0081054 24.0341445,31.1734445 24.0421929,31.2205782 L30.0672697,34.9701421 C32.280596,36.34677 34.981659,36.6669539 37.4525361,35.8478034 L43.5017582,34.7165955 C44.1359768,34.5979487 44.7508791,35.0140252 44.8844835,35.6511422 L46,41 L37.980515,40.8846038 C34.5422131,40.8342195 31.194054,39.7680236 28.3529478,37.8176653 C28.3529478,37.8176653 18.0267744,31.4399935 19.0746838,29.5871531" id="Fill-9" fill="#FFDAD3"></path>
            <g id="Group-13" transform="translate(71.000000, 34.000000)">
                <mask id="mask-8" fill="white">
                    <use xlink:href="#path-7"></use>
                </mask>
                <g id="Clip-12"></g>
                <path d="M28.6395789,1.03352857 C28.3222105,0.293385714 27.6022105,0.312242857 27.2264211,0.367242857 L27.2264211,0.365671429 L27.2232632,0.368814286 C27.0322105,0.395528571 25.1295789,1.33838571 25.1295789,1.33838571 L25.4027368,1.28495714 C25.5401053,1.08224286 25.4848421,0.807242857 25.2811579,0.670528571 C25.0758947,0.530671429 24.7995789,0.585671429 24.6637895,0.789957143 C24.6637895,0.789957143 23.6295789,1.99367143 23.6169474,2.04081429 L17.3248421,4.95738571 C15.0132632,6.0291 12.3432632,6.03224286 10.0285263,4.96524286 L3.48221053,1.94652857 L0.837473684,4.50481429 C-0.264631579,5.57024286 0.164842105,7.41824286 1.62536842,7.89281429 L8.18273684,10.0236714 C11.6690526,11.0356714 14.9185263,9.71881429 17.9074737,8.16781429 C17.9074737,8.16781429 29.4527368,2.93181429 28.6395789,1.03352857" id="Fill-11" fill="#FFDAD3" mask="url(#mask-8)"></path>
            </g>
            <polygon id="Fill-14" fill="#5F2438" points="74 110.690957 63.0379911 111 63 109.309043 73.9620089 109"></polygon>
            <path d="M73.9667929,108.23658 C73.8039199,106.252955 70.4863708,105.983026 69.8712485,106.000784 L64.0821411,106.206783 C63.4670188,106.224542 62.9815624,106.96152 63.0005379,107.845893 L63.0495579,110 L74,109.68745 L73.9667929,108.23658 Z" id="Fill-16" fill="#EA603B"></path>
            <path d="M48.2790056,42.4049421 C48.2822252,42.1716685 48.0488079,42.0118026 47.8379274,42.1031545 L45.8450263,43.530528 C43.3691928,45.4277113 42.0765437,42.4555119 41.8431263,41.2124735 L41.5372692,39.5697705 C39.8244689,32.9288134 42.4757678,34.2207903 45.7001466,33.9059525 C50.4393233,33.4394053 56.9878868,33.6025337 56.9878868,33.6025337 C57.5287711,33.5617516 58.0889727,37.1522076 59.6617226,37.8683413 C62.567366,39.1864188 63.7585993,37.2093026 63.6169391,33.207763 C63.6137195,33.1359865 64.4942663,33.0984669 66.3777027,33.0136402 C68.3351888,32.9255508 70.2975042,33.2648579 72.11333,34.0103547 L77.0553384,36.0347781 C77.7668588,36.1750685 78.1805709,36.9319843 77.923007,37.6171236 L76.0186435,44.3249633 C75.7337134,45.0867729 74.7597997,45.2841583 74.2060372,44.6920022 L72.3306496,43.1178132 C72.0247924,42.8617016 71.5740555,43.1618578 71.68513,43.5484721 L74.2044274,55.6101859 C74.7195553,57.6411345 75.743372,67.5087714 74.9272162,69.2656642 L51.8366078,69.9850604 C49.7149247,70.0519431 48.4464222,69.9393845 48.597741,68.6963461 L48.2790056,42.4049421 Z" id="Fill-18" fill="#FDFAEB"></path>
            <path d="M58.6752106,21.8173593 C58.2521451,18.6955271 62.2569533,21.2897257 63.4847976,20.144891 C66.9122646,17.1761377 52.1208759,12.1440765 52,20.9526264 C52.2115328,27.0741534 52.0254476,27.0497259 53.4282438,30.1471306 C55.4608669,32.4026014 59.8346646,30.3702349 58.6752106,21.8173593" id="Fill-20" fill="#FF9B20"></path>
            <polygon id="Fill-22" fill="#5F2438" points="42.5254105 102.265411 42.7834246 102 42 102.804228 49.4730258 111 50 110.459584 50 110.461183"></polygon>
            <path d="M45.8107555,100.298558 C45.3929615,99.839394 44.6072595,99.9191101 44.064751,100.473934 L43,101.564449 L43.2665775,101.290226 L50.7182752,109.464308 L50.1944739,110 L51.5164487,108.646422 C52.0589573,108.091598 52.1602879,107.262551 51.7424939,106.803387 L48.9753886,103.770989 L48.6791914,104.065938 L45.8107555,100.298558 Z" id="Fill-24" fill="#EA603B"></path>
            <polygon id="Fill-26" fill="#EA603B" points="48.7192118 105 49 104.685146 46 101"></polygon>
            <polygon id="Fill-28" fill="#EA603B" points="43.5254105 102 43.2580141 102.283309 43 102.555088 50.4730258 111 50.4745895 110.998353 51 110.444912"></polygon>
            <path d="M14,19 L21,32" id="Fill-30" fill="#EA603B"></path>
            <polygon id="Fill-32" fill="#E7D1BD" points="20.0695481 32 13 18.5431106 13.9304519 18 21 31.4585452"></polygon>
            <polygon id="Fill-34" fill="#E7D1BD" points="15.5208418 16 8 2.2682243 8.47753946 2 16 15.7317757"></polygon>
            <polygon id="Fill-36" fill="#E7D1BD" points="1.26490779 10 1 9.51992586 12.7350922 3 13 3.47845227"></polygon>
            <polygon id="Fill-38" fill="#E7D1BD" points="2.26490779 11 2 10.5199259 13.7350922 4 14 4.48007414"></polygon>
            <polygon id="Fill-40" fill="#E7D1BD" points="2.26490779 13 2 12.5214368 13.7350922 6 14 6.47856315"></polygon>
            <polygon id="Fill-42" fill="#E7D1BD" points="3.26490779 15 3 14.5199259 14.7350922 8 15 8.47845227"></polygon>
            <polygon id="Fill-44" fill="#E7D1BD" points="4.26494346 16 4 15.5215477 15.7366721 9 16 9.48007414"></polygon>
            <polygon id="Fill-46" fill="#E7D1BD" points="5.26494346 18 5 17.5199259 16.7366721 11 17 11.4784523"></polygon>
            <polygon id="Fill-48" fill="#E7D1BD" points="7.25969913 19 7 18.52 16.7418844 13 17 13.48"></polygon>
            <polygon id="Fill-50" fill="#E7D1BD" points="1.26902129 8 1 7.50098342 10.7309787 2 11 2.49901658"></polygon>
            <polygon id="Fill-52" fill="#E7D1BD" points="14.5151074 17 6 2.25740295 6.48325446 2 15 16.742597"></polygon>
            <polygon id="Fill-54" fill="#E7D1BD" points="12.5432975 19 4 3.28090588 4.45670246 3 13 18.717432"></polygon>
            <polygon id="Fill-56" fill="#E7D1BD" points="11.5184984 19 3 4.25643699 3.48313384 4 12 18.743563"></polygon>
            <polygon id="Fill-58" fill="#E7D1BD" points="8.52084176 20 1 6.2682243 1.47753946 6 9 19.7317757"></polygon>
            <g id="Group-62">
                <mask id="mask-10" fill="white">
                    <use xlink:href="#path-9"></use>
                </mask>
                <g id="Clip-61"></g>
                <path d="M7.0186,2.37413077 C6.8476,2.44197692 6.67976667,2.52113077 6.5151,2.61482308 L3.21068333,4.48059231 C2.24485,5.02497692 1.54501667,5.92636154 1.23785,7.01513077 C0.930683333,8.10713077 1.05576667,9.24920769 1.58935,10.2345923 L5.43051667,17.3164385 C5.9641,18.3002077 6.8476,19.0142077 7.91635,19.3275923 C8.9851,19.6425923 10.1029333,19.5165923 11.07035,18.9689769 L14.3747667,17.1032077 C15.3390167,16.5588231 16.0404333,15.6574385 16.3476,14.5686692 C16.6531833,13.4782846 16.5281,12.3345923 15.9945167,11.3492077 L12.1549333,4.26736154 C11.1384333,2.39513077 8.92335,1.61651538 7.0186,2.37413077 M10.9531833,20.2289769 C9.89551667,20.6505923 8.73493333,20.7071308 7.62026667,20.3792077 C6.27601667,19.9834385 5.1661,19.0852846 4.49318333,17.8446692 L0.652016667,10.7628231 C-0.741316667,8.19436154 0.172266667,4.94582308 2.69293333,3.52428462 L5.99576667,1.65851538 C8.51485,0.238592308 11.69735,1.17066923 13.0906833,3.73913077 L16.93185,10.8209769 C17.60635,12.0615923 17.7631,13.4992846 17.3767667,14.8691308 C16.9904333,16.2405923 16.1085167,17.3729769 14.8925167,18.0595154 L11.5881,19.9252846 C11.3822667,20.0432077 11.1701,20.1433615 10.9531833,20.2289769" id="Fill-60" fill="#5F2438" mask="url(#mask-10)"></path>
            </g>
            <path d="M15.8382294,22.8780709 C15.0015354,23.1991707 14.0325698,22.8704978 13.5850001,22.0753213 L12.2284483,19.6610142 C11.7408895,18.7946505 12.0592639,17.7026082 12.9405611,17.2239877 C13.8157061,16.7468818 14.9277094,17.0558646 15.4152682,17.9237429 L16.77182,20.3365355 C17.2593788,21.2044138 16.9394664,22.2949415 16.0612453,22.7750766 C15.9889573,22.8144568 15.9135934,22.8477784 15.8382294,22.8780709" id="Fill-63" fill="#5F2438"></path>
            <path d="M23.2271094,34.9213678 C22.6705193,35.128375 22.0262349,34.9162775 21.7291482,34.4072435 L20.1506515,31.7025765 C19.8285093,31.1477294 20.0396914,30.4503529 20.6249164,30.1432358 C21.2101413,29.8378154 21.9456993,30.0363386 22.2696312,30.5911857 L23.8481279,33.2958527 C24.1720598,33.8506997 23.9608777,34.5480763 23.3756527,34.8551934 C23.3273314,34.8806451 23.2772204,34.9027033 23.2271094,34.9213678" id="Fill-65" fill="#5F2438"></path>
            <path d="M9.2528074,19 C9.1554354,19 9.05629299,18.9847485 8.96246178,18.9528591 L6.45734561,18.1251205 C6.07847999,17.9989493 5.89789918,17.6550981 6.05900559,17.3570013 C6.220112,17.060291 6.65740083,16.9202548 7.03980725,17.046426 L9.54315302,17.8741646 C9.92378905,18.0003358 10.1008291,18.344187 9.94149305,18.6422838 C9.82110584,18.8655098 9.54492342,19 9.2528074,19" id="Fill-67" fill="#FFDAD3"></path>
        </g>
    </g>
</svg>