<?xml version="1.0" encoding="UTF-8"?>
<svg width="100px" height="110px" viewBox="0 0 100 110" version="1.1" xmlns="http://www.w3.org/2000/svg" xmlns:xlink="http://www.w3.org/1999/xlink">
    <!-- Generator: Sketch 52.3 (67297) - http://www.bohemiancoding.com/sketch -->
    <title>Group 69</title>
    <desc>Created with Sketch.</desc>
    <defs>
        <polygon id="path-1" points="0.217028518 0.343823664 28.68 0.343823664 28.68 10.3789324 0.217028518 10.3789324"></polygon>
        <polygon id="path-3" points="0.000122298785 0.995076923 17.5840406 0.995076923 17.5840406 20.5905104 0.000122298785 20.5905104"></polygon>
    </defs>
    <g id="web" stroke="none" stroke-width="1" fill="none" fill-rule="evenodd">
        <g id="Group-69" transform="translate(0.000000, -1.000000)">
            <path d="M74.1210865,73.6505599 C72.6081201,66.2928744 71.107989,59 71.107989,59 L56.4981562,64.4668203 L57.7447892,66.7481727 L48.8835871,66.4597631 L53.1497352,75.692111 C57.4319276,81.7778778 56.6746422,90.1077305 51.368831,95.3055846 L47,99.5847406 L50.2778265,103.086163 L55.4584931,97.9774241 C60.682479,92.8281784 63.7822152,85.9970835 64.3549925,78.8208692 L65.630505,81.1524502 C68.0644075,85.6001152 68.5746125,90.8627804 67.0391843,95.6993123 L64.4047294,104 L69.5581209,104 C70.2063059,102.42833 70.9764267,100.555288 71.7706137,98.6271559 C75.0227696,90.7299175 75.8426273,82.0241602 74.1210865,73.6505599" id="Fill-1" fill="#5F2438"></path>
            <polygon id="Fill-3" fill="#FFDAD3" points="46 100.392845 49.4879725 104 51 102.577343 47.4896907 99"></polygon>
            <path d="M64,106.402772 L68.2538399,108 C68.2538399,108 68.9717057,106.358106 70,104 L64.8084074,104 L64,106.402772 Z" id="Fill-5" fill="#FFDAD3"></path>
            <path d="M61.6579599,32.8849469 L61.5556778,30.7773791 C61.5441298,30.5402982 61.6893044,30.334283 61.9037668,30.2280054 C63.0024746,29.696617 63.7233984,28.6142199 63.6442123,27.3813991 L63.5105856,25.2869116 L63.388507,23.4131547 C63.388507,23.4131547 64.4905142,23.5521332 64.5779489,23.2676361 C64.7000275,22.8703211 63.3093209,22.1770638 63.3093209,22.1770638 L63.1245532,19.3141071 C63.1014572,18.9249673 62.9909266,18.5603532 62.8276052,18.2218997 C60.5609018,17.7575481 57.708551,17.7591831 58.1473742,20.8951917 C58.3552378,22.3749037 58.5350564,23.9396379 58.6653836,25.4160799 C58.3667858,25.8150299 58.0236459,26.3987395 57.634314,27.2734864 C57.0107231,28.6698113 56.205664,29.7620187 55.3808084,30.494517 C55.9780038,30.7299629 56.6758317,30.8574961 57.3736596,30.9065473 C57.6689579,30.9261678 57.9065164,31.1501684 57.9197141,31.4428408 L58.0005499,33.1138526 C58.0153973,33.3787292 57.8091834,33.6059999 57.5402805,33.6223503 L56.3277426,33.6942921 L54,36.3446935 L61.4088535,38.9345984 L66,39 L64.9425351,33.2528311 L62.1776189,33.3476635 C61.9037668,33.3640139 61.6711575,33.1563637 61.6579599,32.8849469" id="Fill-7" fill="#FFDAD3"></path>
            <path d="M19.0746838,29.5871531 C19.4835455,28.8655205 20.2127359,28.9711649 20.5829651,29.0719334 L20.5845748,29.0703081 L20.5877942,29.0735587 C20.7777378,29.123943 22.5934702,30.3201627 22.5934702,30.3201627 L22.3246517,30.2323966 C22.2071442,30.0081054 24.0341445,31.1734445 24.0421929,31.2205782 L30.0672697,34.9701421 C32.280596,36.34677 34.981659,36.6669539 37.4525361,35.8478034 L43.5017582,34.7165955 C44.1359768,34.5979487 44.7508791,35.0140252 44.8844835,35.6511422 L46,41 L37.980515,40.8846038 C34.5422131,40.8342195 31.194054,39.7680236 28.3529478,37.8176653 C28.3529478,37.8176653 18.0267744,31.4399935 19.0746838,29.5871531" id="Fill-9" fill="#FFDAD3"></path>
            <g id="Group-13" transform="translate(71.000000, 34.000000)">
                <mask id="mask-2" fill="white">
                    <use xlink:href="#path-1"></use>
                </mask>
                <g id="Clip-12"></g>
                <path d="M28.6395789,1.03352857 C28.3222105,0.293385714 27.6022105,0.312242857 27.2264211,0.367242857 L27.2264211,0.365671429 L27.2232632,0.368814286 C27.0322105,0.395528571 25.1295789,1.33838571 25.1295789,1.33838571 L25.4027368,1.28495714 C25.5401053,1.08224286 25.4848421,0.807242857 25.2811579,0.670528571 C25.0758947,0.530671429 24.7995789,0.585671429 24.6637895,0.789957143 C24.6637895,0.789957143 23.6295789,1.99367143 23.6169474,2.04081429 L17.3248421,4.95738571 C15.0132632,6.0291 12.3432632,6.03224286 10.0285263,4.96524286 L3.48221053,1.94652857 L0.837473684,4.50481429 C-0.264631579,5.57024286 0.164842105,7.41824286 1.62536842,7.89281429 L8.18273684,10.0236714 C11.6690526,11.0356714 14.9185263,9.71881429 17.9074737,8.16781429 C17.9074737,8.16781429 29.4527368,2.93181429 28.6395789,1.03352857" id="Fill-11" fill="#FFDAD3" mask="url(#mask-2)"></path>
            </g>
            <polygon id="Fill-14" fill="#5F2438" points="74 110.690957 63.0379911 111 63 109.309043 73.9620089 109"></polygon>
            <path d="M73.9667929,108.23658 C73.8039199,106.252955 70.4863708,105.983026 69.8712485,106.000784 L64.0821411,106.206783 C63.4670188,106.224542 62.9815624,106.96152 63.0005379,107.845893 L63.0495579,110 L74,109.68745 L73.9667929,108.23658 Z" id="Fill-16" fill="#EA603B"></path>
            <path d="M48.2790056,42.4049421 C48.2822252,42.1716685 48.0488079,42.0118026 47.8379274,42.1031545 L45.8450263,43.530528 C43.3691928,45.4277113 42.0765437,42.4555119 41.8431263,41.2124735 L41.5372692,39.5697705 C39.8244689,32.9288134 42.4757678,34.2207903 45.7001466,33.9059525 C50.4393233,33.4394053 56.9878868,33.6025337 56.9878868,33.6025337 C57.5287711,33.5617516 58.0889727,37.1522076 59.6617226,37.8683413 C62.567366,39.1864188 63.7585993,37.2093026 63.6169391,33.207763 C63.6137195,33.1359865 64.4942663,33.0984669 66.3777027,33.0136402 C68.3351888,32.9255508 70.2975042,33.2648579 72.11333,34.0103547 L77.0553384,36.0347781 C77.7668588,36.1750685 78.1805709,36.9319843 77.923007,37.6171236 L76.0186435,44.3249633 C75.7337134,45.0867729 74.7597997,45.2841583 74.2060372,44.6920022 L72.3306496,43.1178132 C72.0247924,42.8617016 71.5740555,43.1618578 71.68513,43.5484721 L74.2044274,55.6101859 C74.7195553,57.6411345 75.743372,67.5087714 74.9272162,69.2656642 L51.8366078,69.9850604 C49.7149247,70.0519431 48.4464222,69.9393845 48.597741,68.6963461 L48.2790056,42.4049421 Z" id="Fill-18" fill="#FDFAEB"></path>
            <path d="M58.6752106,21.8173593 C58.2521451,18.6955271 62.2569533,21.2897257 63.4847976,20.144891 C66.9122646,17.1761377 52.1208759,12.1440765 52,20.9526264 C52.2115328,27.0741534 52.0254476,27.0497259 53.4282438,30.1471306 C55.4608669,32.4026014 59.8346646,30.3702349 58.6752106,21.8173593" id="Fill-20" fill="#FF9B20"></path>
            <polygon id="Fill-22" fill="#5F2438" points="42.5254105 102.265411 42.7834246 102 42 102.804228 49.4730258 111 50 110.459584 50 110.461183"></polygon>
            <path d="M45.8107555,100.298558 C45.3929615,99.839394 44.6072595,99.9191101 44.064751,100.473934 L43,101.564449 L43.2665775,101.290226 L50.7182752,109.464308 L50.1944739,110 L51.5164487,108.646422 C52.0589573,108.091598 52.1602879,107.262551 51.7424939,106.803387 L48.9753886,103.770989 L48.6791914,104.065938 L45.8107555,100.298558 Z" id="Fill-24" fill="#EA603B"></path>
            <polygon id="Fill-26" fill="#EA603B" points="48.7192118 105 49 104.685146 46 101"></polygon>
            <polygon id="Fill-28" fill="#EA603B" points="43.5254105 102 43.2580141 102.283309 43 102.555088 50.4730258 111 50.4745895 110.998353 51 110.444912"></polygon>
            <path d="M14,19 L21,32" id="Fill-30" fill="#EA603B"></path>
            <polygon id="Fill-32" fill="#E7D1BD" points="20.0695481 32 13 18.5431106 13.9304519 18 21 31.4585452"></polygon>
            <polygon id="Fill-34" fill="#E7D1BD" points="15.5208418 16 8 2.2682243 8.47753946 2 16 15.7317757"></polygon>
            <polygon id="Fill-36" fill="#E7D1BD" points="1.26490779 10 1 9.51992586 12.7350922 3 13 3.47845227"></polygon>
            <polygon id="Fill-38" fill="#E7D1BD" points="2.26490779 11 2 10.5199259 13.7350922 4 14 4.48007414"></polygon>
            <polygon id="Fill-40" fill="#E7D1BD" points="2.26490779 13 2 12.5214368 13.7350922 6 14 6.47856315"></polygon>
            <polygon id="Fill-42" fill="#E7D1BD" points="3.26490779 15 3 14.5199259 14.7350922 8 15 8.47845227"></polygon>
            <polygon id="Fill-44" fill="#E7D1BD" points="4.26494346 16 4 15.5215477 15.7366721 9 16 9.48007414"></polygon>
            <polygon id="Fill-46" fill="#E7D1BD" points="5.26494346 18 5 17.5199259 16.7366721 11 17 11.4784523"></polygon>
            <polygon id="Fill-48" fill="#E7D1BD" points="7.25969913 19 7 18.52 16.7418844 13 17 13.48"></polygon>
            <polygon id="Fill-50" fill="#E7D1BD" points="1.26902129 8 1 7.50098342 10.7309787 2 11 2.49901658"></polygon>
            <polygon id="Fill-52" fill="#E7D1BD" points="14.5151074 17 6 2.25740295 6.48325446 2 15 16.742597"></polygon>
            <polygon id="Fill-54" fill="#E7D1BD" points="12.5432975 19 4 3.28090588 4.45670246 3 13 18.717432"></polygon>
            <polygon id="Fill-56" fill="#E7D1BD" points="11.5184984 19 3 4.25643699 3.48313384 4 12 18.743563"></polygon>
            <polygon id="Fill-58" fill="#E7D1BD" points="8.52084176 20 1 6.2682243 1.47753946 6 9 19.7317757"></polygon>
            <g id="Group-62">
                <mask id="mask-4" fill="white">
                    <use xlink:href="#path-3"></use>
                </mask>
                <g id="Clip-61"></g>
                <path d="M7.0186,2.37413077 C6.8476,2.44197692 6.67976667,2.52113077 6.5151,2.61482308 L3.21068333,4.48059231 C2.24485,5.02497692 1.54501667,5.92636154 1.23785,7.01513077 C0.930683333,8.10713077 1.05576667,9.24920769 1.58935,10.2345923 L5.43051667,17.3164385 C5.9641,18.3002077 6.8476,19.0142077 7.91635,19.3275923 C8.9851,19.6425923 10.1029333,19.5165923 11.07035,18.9689769 L14.3747667,17.1032077 C15.3390167,16.5588231 16.0404333,15.6574385 16.3476,14.5686692 C16.6531833,13.4782846 16.5281,12.3345923 15.9945167,11.3492077 L12.1549333,4.26736154 C11.1384333,2.39513077 8.92335,1.61651538 7.0186,2.37413077 M10.9531833,20.2289769 C9.89551667,20.6505923 8.73493333,20.7071308 7.62026667,20.3792077 C6.27601667,19.9834385 5.1661,19.0852846 4.49318333,17.8446692 L0.652016667,10.7628231 C-0.741316667,8.19436154 0.172266667,4.94582308 2.69293333,3.52428462 L5.99576667,1.65851538 C8.51485,0.238592308 11.69735,1.17066923 13.0906833,3.73913077 L16.93185,10.8209769 C17.60635,12.0615923 17.7631,13.4992846 17.3767667,14.8691308 C16.9904333,16.2405923 16.1085167,17.3729769 14.8925167,18.0595154 L11.5881,19.9252846 C11.3822667,20.0432077 11.1701,20.1433615 10.9531833,20.2289769" id="Fill-60" fill="#5F2438" mask="url(#mask-4)"></path>
            </g>
            <path d="M15.8382294,22.8780709 C15.0015354,23.1991707 14.0325698,22.8704978 13.5850001,22.0753213 L12.2284483,19.6610142 C11.7408895,18.7946505 12.0592639,17.7026082 12.9405611,17.2239877 C13.8157061,16.7468818 14.9277094,17.0558646 15.4152682,17.9237429 L16.77182,20.3365355 C17.2593788,21.2044138 16.9394664,22.2949415 16.0612453,22.7750766 C15.9889573,22.8144568 15.9135934,22.8477784 15.8382294,22.8780709" id="Fill-63" fill="#5F2438"></path>
            <path d="M23.2271094,34.9213678 C22.6705193,35.128375 22.0262349,34.9162775 21.7291482,34.4072435 L20.1506515,31.7025765 C19.8285093,31.1477294 20.0396914,30.4503529 20.6249164,30.1432358 C21.2101413,29.8378154 21.9456993,30.0363386 22.2696312,30.5911857 L23.8481279,33.2958527 C24.1720598,33.8506997 23.9608777,34.5480763 23.3756527,34.8551934 C23.3273314,34.8806451 23.2772204,34.9027033 23.2271094,34.9213678" id="Fill-65" fill="#5F2438"></path>
            <path d="M9.2528074,19 C9.1554354,19 9.05629299,18.9847485 8.96246178,18.9528591 L6.45734561,18.1251205 C6.07847999,17.9989493 5.89789918,17.6550981 6.05900559,17.3570013 C6.220112,17.060291 6.65740083,16.9202548 7.03980725,17.046426 L9.54315302,17.8741646 C9.92378905,18.0003358 10.1008291,18.344187 9.94149305,18.6422838 C9.82110584,18.8655098 9.54492342,19 9.2528074,19" id="Fill-67" fill="#FFDAD3"></path>
        </g>
    </g>
</svg>