<?xml version="1.0" encoding="UTF-8"?>
<svg width="307px" height="428px" viewBox="0 0 307 428" version="1.1" xmlns="http://www.w3.org/2000/svg" xmlns:xlink="http://www.w3.org/1999/xlink">
    <!-- Generator: Sketch 52.3 (67297) - http://www.bohemiancoding.com/sketch -->
    <title>Group 6 Copy</title>
    <desc>Created with Sketch.</desc>
    <defs>
        <polygon id="path-1" points="0.590604425 0.8625 191.6536 0.8625 191.6536 195 0.590604425 195"></polygon>
    </defs>
    <g id="web" stroke="none" stroke-width="1" fill="none" fill-rule="evenodd" opacity="0.311383929">
        <g id="Group-6-Copy" transform="translate(-101.000000, 4.000000)">
            <path d="M0,283.182 C2.449,282.229 60.51,259.881 106.173,263.271 C112.967,263.774 120.067,264.585 126.932,265.369 C169.647,270.244 196.636,271.124 211.277,242.299 C216.109,232.785 218.774,222.796 221.594,212.221 C228.396,186.722 236.106,157.82 275.723,138.33 C343.287,105.09 347.016,75.297 347.046,75 C346.991,75.543 387,1.13686838e-13 387,1.13686838e-13 L409,6 C409,8.517 381.379,91.816 368.75,109.968 C353.588,131.761 327.488,151.869 291.174,169.734 C265.824,182.206 261.457,198.579 255.411,221.241 C252.397,232.546 248.979,245.357 242.482,258.148 C215.771,310.735 162.13,304.616 122.963,300.142 C116.136,299.363 109.689,298.628 103.587,298.176 C65.89,295.381 13.204,315.602 12.677,315.806 L0,283.182 Z" id="Fill-1" fill="#BEEBD7"></path>
            <g id="Group-5" transform="translate(215.000000, 233.000000)">
                <mask id="mask-2" fill="white">
                    <use xlink:href="#path-1"></use>
                </mask>
                <g id="Clip-4"></g>
                <path d="M185.8996,195.0005 C142.4966,187.7675 105.6996,173.2365 76.5316,151.8125 C52.7476,134.3435 34.0556,112.3725 20.9746,86.5145 C-1.2454,42.5835 0.5716,2.5445 0.6606,0.8625 L18.1446,1.7785 L35.6156,2.6265 C35.6006,2.9595 34.3476,36.3065 52.9096,72.0875 C77.5036,119.4925 124.1826,149.2305 191.6536,160.4765 L185.8996,195.0005 Z" id="Fill-3" fill="#BEEBD7" mask="url(#mask-2)"></path>
            </g>
        </g>
    </g>
</svg>