<?xml version="1.0" encoding="UTF-8"?>
<svg width="348px" height="340px" viewBox="0 0 348 340" version="1.1" xmlns="http://www.w3.org/2000/svg" xmlns:xlink="http://www.w3.org/1999/xlink">
    <!-- Generator: Sketch 52.3 (67297) - http://www.bohemiancoding.com/sketch -->
    <title>Group 6</title>
    <desc>Created with Sketch.</desc>
    <defs>
        <polygon id="path-1" points="0.590604425 0.8625 191.6536 0.8625 191.6536 195 0.590604425 195"></polygon>
    </defs>
    <g id="web" stroke="none" stroke-width="1" fill="none" fill-rule="evenodd" opacity="0.26734561">
        <g id="Group-6-Copy-2" transform="translate(1.000000, -1.000000)">
            <path d="M12.677,240.806 L0,208.182 C2.449,207.229 60.51,184.881 106.173,188.271 C112.967,188.774 120.067,189.585 126.932,190.369 C169.647,195.244 196.636,196.124 211.277,167.299 C216.109,157.785 218.774,147.796 221.594,137.221 C228.396,111.722 236.106,82.82 275.723,63.33 C343.287,30.09 347.016,0.297 347.046,0 C346.991,0.543 347.019,0.828 347.019,0.828 L382.019,0.828 C382.019,3.345 381.379,16.816 368.75,34.968 C353.588,56.761 327.488,76.869 291.174,94.734 C265.824,107.206 261.457,123.579 255.411,146.241 C252.397,157.546 248.979,170.357 242.482,183.148 C215.771,235.735 162.13,229.616 122.963,225.142 C116.136,224.363 109.689,223.628 103.587,223.176 C65.89,220.381 13.204,240.602 12.677,240.806" id="Fill-1" fill="#BEEBD7"></path>
            <g id="Group-5" transform="translate(215.000000, 158.000000)">
                <mask id="mask-2" fill="white">
                    <use xlink:href="#path-1"></use>
                </mask>
                <g id="Clip-4"></g>
                <path d="M185.8996,195.0005 C142.4966,187.7675 105.6996,173.2365 76.5316,151.8125 C52.7476,134.3435 34.0556,112.3725 20.9746,86.5145 C-1.2454,42.5835 0.5716,2.5445 0.6606,0.8625 L18.1446,1.7785 L35.6156,2.6265 C35.6006,2.9595 34.3476,36.3065 52.9096,72.0875 C77.5036,119.4925 124.1826,149.2305 191.6536,160.4765 L185.8996,195.0005 Z" id="Fill-3" fill="#BEEBD7" mask="url(#mask-2)"></path>
            </g>
        </g>
    </g>
</svg>