<?xml version="1.0" encoding="UTF-8"?>
<svg width="92px" height="39px" viewBox="0 0 92 39" version="1.1" xmlns="http://www.w3.org/2000/svg" xmlns:xlink="http://www.w3.org/1999/xlink">
    <!-- Generator: Sketch 52.3 (67297) - http://www.bohemiancoding.com/sketch -->
    <title>Group 24</title>
    <desc>Created with Sketch.</desc>
    <g id="web" stroke="none" stroke-width="1" fill="none" fill-rule="evenodd">
        <g id="Group-24">
            <path d="M86,28.0051129 C86,34.0752068 68.0897886,39 45.99934,39 C23.9062515,39 6,34.0752068 6,28.0051129 C6,21.9309287 23.9062515,17 45.99934,17 C68.0897886,17 86,21.9309287 86,28.0051129" id="Fill-6" fill="#000000" opacity="0.097265625"></path>
            <g id="Group-7">
                <path d="M67.7245794,26.788818 C68.67183,29.6740324 67.0967083,32.7769988 64.2114048,33.7242201 C61.3261013,34.6714414 58.223039,33.0999976 57.2757884,30.2147833 C56.3285378,27.3295689 57.9000302,24.2229733 60.7853337,23.275752 C63.6742666,22.3285307 66.7773288,23.8999745 67.7245794,26.788818" id="Fill-1" fill="#1E1A1E"></path>
                <path d="M22.7245794,17.7853337 C23.67183,20.6706372 22.0967083,23.7773288 19.2114048,24.7245794 C16.3261013,25.67183 13.223039,24.0967083 12.2757884,21.2114048 C11.3285378,18.3261013 12.9000302,15.223039 15.7853337,14.2757884 C18.6706372,13.3285378 21.7773288,14.9000302 22.7245794,17.7853337" id="Fill-3" fill="#1E1A1E"></path>
                <path d="M2.85227735,2.77144449 C-2.48226464,7.8453242 0.0373189056,16.2555486 7.32560576,17.6948241 L67.5500581,29.5835866 C76.2938671,31.3141854 85.4042257,27.544324 90.1231067,20.2508387 C95.0555118,12.6278807 89.7352047,3.07317213 80.3543824,2.70901809 L10.2544437,0.00734188215 C7.50710118,-0.0967021309 4.80958095,0.909056662 2.85227735,2.77144449" id="Fill-5" fill="#F9AD58"></path>
            </g>
        </g>
    </g>
</svg>