<?xml version="1.0" encoding="UTF-8"?>
<svg width="67px" height="93px" viewBox="0 0 67 93" version="1.1" xmlns="http://www.w3.org/2000/svg" xmlns:xlink="http://www.w3.org/1999/xlink">
    <!-- Generator: Sketch 52.3 (67297) - http://www.bohemiancoding.com/sketch -->
    <title>Group 19</title>
    <desc>Created with Sketch.</desc>
    <g id="web" stroke="none" stroke-width="1" fill="none" fill-rule="evenodd">
        <g id="Group-19">
            <path d="M33.5,65 L33.5,91" id="Stroke-22" stroke="#BB7F66" stroke-width="2" stroke-linecap="round"></path>
            <path d="M29,91.5 L39,91.5" id="Stroke-24" stroke="#BB7F66" stroke-width="2" stroke-linecap="round"></path>
            <path d="M66.7188488,74.8649917 L46.0007705,38.6332903 C45.8065385,38.2986105 46.0473862,37.8776461 46.4306706,37.8776461 L51.9054228,37.8776461 C53.8839993,37.8776461 55.1193147,35.7153009 54.1300265,33.9869936 L35.2921138,1.04718167 C34.4970575,-0.349060557 32.5055322,-0.349060557 31.7052965,1.04718167 L12.8699735,33.9869936 C11.8832751,35.7153009 13.1185905,37.8776461 15.0919874,37.8776461 L20.5693294,37.8776461 C20.9526138,37.8776461 21.1934615,38.2986105 21.0018193,38.6332903 L0.281151209,74.8649917 C-0.516494805,76.2586192 0.477972953,78 2.07067522,78 L64.9293248,78 C66.522027,78 67.5164948,76.2586192 66.7188488,74.8649917" id="Fill-26" fill="#8BBA99"></path>
        </g>
    </g>
</svg>