<?xml version="1.0" encoding="UTF-8"?>
<svg width="57px" height="79px" viewBox="0 0 57 79" version="1.1" xmlns="http://www.w3.org/2000/svg" xmlns:xlink="http://www.w3.org/1999/xlink">
    <!-- Generator: Sketch 52.3 (67297) - http://www.bohemiancoding.com/sketch -->
    <title>Group 24</title>
    <desc>Created with Sketch.</desc>
    <g id="web" stroke="none" stroke-width="1" fill="none" fill-rule="evenodd">
        <g id="Group-24">
            <path d="M27.5,55 L27.5,77" id="Stroke-28" stroke="#BB7F66" stroke-width="2" stroke-linecap="round"></path>
            <path d="M22,77.5 L32,77.5" id="Stroke-30" stroke="#BB7F66" stroke-width="2" stroke-linecap="round"></path>
            <path d="M56.7606278,63.3501704 L39.1325519,32.6885995 C38.9719906,32.4051536 39.1739871,32.0488958 39.5028787,32.0488958 L44.1617459,32.0488958 C45.84246,32.0488958 46.8912878,30.2233999 46.0496359,28.7593625 L30.0245832,0.885443549 C29.3460822,-0.29514785 27.6550093,-0.29514785 26.9765083,0.885443549 L10.9488659,28.7593625 C10.107214,30.2233999 11.1586315,32.0488958 12.8419353,32.0488958 L17.4982128,32.0488958 C17.8245148,32.0488958 18.0316906,32.4051536 17.8659499,32.6885995 L0.237874005,63.3501704 C-0.438037236,64.525561 0.40620439,66 1.76579597,66 L55.2378852,66 C56.5948871,66 57.4391287,64.525561 56.7606278,63.3501704" id="Fill-32" fill="#8BBA99"></path>
        </g>
    </g>
</svg>